<svg xmlns="http://www.w3.org/2000/svg" xmlns:xlink="http://www.w3.org/1999/xlink" width="200" zoomAndPan="magnify" viewBox="0 0 150 149.999998" height="200" preserveAspectRatio="xMidYMid meet" version="1.0"><defs><g/><clipPath id="dca51470e8"><path d="M 1.40625 1.40625 L 149.90625 1.40625 L 149.90625 149.90625 L 1.40625 149.90625 Z M 1.40625 1.40625 " clip-rule="nonzero"/></clipPath><clipPath id="b6aa2bd3bb"><path d="M 1.40625 1.40625 L 149.90625 1.40625 L 149.90625 149.90625 L 1.40625 149.90625 Z M 1.40625 1.40625 " clip-rule="nonzero"/></clipPath><clipPath id="b5bff30486"><path d="M 75.65625 1.40625 C 34.652344 1.40625 1.40625 34.652344 1.40625 75.65625 C 1.40625 116.664062 34.652344 149.90625 75.65625 149.90625 C 116.664062 149.90625 149.90625 116.664062 149.90625 75.65625 C 149.90625 34.652344 116.664062 1.40625 75.65625 1.40625 " clip-rule="nonzero"/></clipPath><clipPath id="50c6acbc21"><path d="M 9.15625 9.460938 L 141.90625 9.460938 L 141.90625 142.210938 L 9.15625 142.210938 Z M 9.15625 9.460938 " clip-rule="nonzero"/></clipPath><clipPath id="7c35b4dda3"><path d="M 49 60.476562 L 73 60.476562 L 73 101 L 49 101 Z M 49 60.476562 " clip-rule="nonzero"/></clipPath><clipPath id="d31ad4e3de"><path d="M 27 61 L 80 61 L 80 124.976562 L 27 124.976562 Z M 27 61 " clip-rule="nonzero"/></clipPath><clipPath id="9fab7360c4"><path d="M 69 114 L 111 114 L 111 128.070312 L 69 128.070312 Z M 69 114 " clip-rule="nonzero"/></clipPath><clipPath id="f0ca219251"><path d="M 60.566406 50.070312 L 119.066406 50.070312 L 119.066406 70 L 60.566406 70 Z M 60.566406 50.070312 " clip-rule="nonzero"/></clipPath></defs><g clip-path="url(#dca51470e8)"><path fill="#f5fff9" d="M 75.65625 1.40625 C 34.652344 1.40625 1.40625 34.652344 1.40625 75.65625 C 1.40625 116.664062 34.652344 149.90625 75.65625 149.90625 C 116.664062 149.90625 149.90625 116.664062 149.90625 75.65625 C 149.90625 34.652344 116.664062 1.40625 75.65625 1.40625 " fill-opacity="1" fill-rule="nonzero"/></g><g clip-path="url(#b6aa2bd3bb)"><g clip-path="url(#b5bff30486)"><path stroke-linecap="butt" transform="matrix(0.749586, 0, 0, 0.749586, 1.40797, 1.407971)" fill="none" stroke-linejoin="miter" d="M 99.052396 -0.0022957 C 44.350318 -0.0022957 -0.0022947 44.350317 -0.0022947 99.052395 C -0.0022947 153.759683 44.350318 198.107085 99.052396 198.107085 C 153.759684 198.107085 198.107086 153.759683 198.107086 99.052395 C 198.107086 44.350317 153.759684 -0.0022957 99.052396 -0.0022957 " stroke="#0c5b08" stroke-width="24" stroke-opacity="1" stroke-miterlimit="4"/></g></g><g clip-path="url(#50c6acbc21)"><path fill="#f5fff9" d="M 75.53125 9.460938 C 38.875 9.460938 9.15625 39.179688 9.15625 75.835938 C 9.15625 112.496094 38.875 142.210938 75.53125 142.210938 C 112.1875 142.210938 141.90625 112.496094 141.90625 75.835938 C 141.90625 39.179688 112.1875 9.460938 75.53125 9.460938 " fill-opacity="1" fill-rule="nonzero"/></g><g clip-path="url(#7c35b4dda3)"><path fill="#ffcc4d" d="M 63.445312 60.511719 C 59.972656 60.511719 55.503906 63.980469 51.78125 69.5625 C 47.425781 76.09375 49.773438 80.789062 51.664062 84.566406 C 51.953125 85.144531 52.523438 85.535156 53.171875 85.59375 C 53.226562 85.597656 53.285156 85.601562 53.339844 85.601562 C 53.925781 85.601562 54.484375 85.324219 54.839844 84.851562 C 59.328125 78.863281 66.488281 69.484375 67.792969 68.175781 C 68.144531 67.824219 68.34375 67.347656 68.34375 66.851562 C 68.34375 62.175781 65.8125 60.511719 63.445312 60.511719 Z M 67.902344 77.378906 C 65.632812 77.378906 63.074219 79.5 59.34375 84.476562 C 55.359375 89.785156 54.726562 94.4375 57.289062 99.5625 C 57.574219 100.128906 58.121094 100.515625 58.75 100.585938 C 58.820312 100.597656 58.894531 100.601562 58.964844 100.601562 C 59.519531 100.601562 60.046875 100.355469 60.40625 99.925781 C 63.632812 96.058594 70.109375 88.363281 71.542969 86.925781 C 71.894531 86.574219 72.09375 86.097656 72.09375 85.601562 C 72.09375 83.566406 72.09375 77.378906 67.902344 77.378906 Z M 67.902344 77.378906 " fill-opacity="1" fill-rule="nonzero"/></g><g clip-path="url(#d31ad4e3de)"><path fill="#3bb73e" d="M 79.359375 80.945312 C 78.855469 80.039062 77.710938 79.71875 76.808594 80.222656 C 63.363281 87.691406 50.960938 106.753906 46.117188 116.988281 C 47.6875 97.875 56.558594 79.40625 71.542969 64.425781 C 72.277344 63.691406 72.277344 62.507812 71.542969 61.773438 C 70.8125 61.042969 69.625 61.042969 68.890625 61.773438 C 53.957031 76.707031 44.835938 94.992188 42.628906 114.050781 C 41.363281 103.371094 40.792969 87.96875 45.675781 76.988281 C 46.097656 76.039062 45.671875 74.929688 44.726562 74.511719 C 43.777344 74.085938 42.667969 74.515625 42.25 75.460938 C 39.761719 81.054688 38.601562 87.652344 38.195312 94.230469 C 36.539062 90.695312 34.589844 87.476562 31.722656 87.476562 L 31.636719 87.476562 C 29.929688 87.476562 28.464844 88.347656 27.28125 90.710938 C 26.820312 91.636719 27.195312 92.441406 28.121094 92.902344 C 29.050781 93.367188 30.175781 92.988281 30.636719 92.066406 C 31.222656 90.898438 31.621094 90.621094 31.613281 90.582031 C 32.808594 90.949219 34.886719 95.636719 35.667969 97.410156 C 36.035156 98.238281 36.371094 98.988281 36.65625 99.566406 C 36.933594 100.121094 37.453125 100.460938 38.023438 100.558594 C 38.070312 109.851562 39.332031 118.425781 40.203125 123.226562 L 40.242188 123.433594 C 40.40625 124.339844 41.195312 124.976562 42.085938 124.976562 C 42.195312 124.976562 42.308594 124.964844 42.421875 124.945312 C 42.652344 124.902344 42.855469 124.8125 43.042969 124.699219 C 43.320312 124.859375 43.621094 124.976562 43.964844 124.976562 C 44.308594 124.976562 44.609375 124.859375 44.886719 124.699219 C 45.15625 124.859375 45.453125 124.976562 45.789062 124.976562 L 45.839844 124.976562 C 46.832031 124.976562 47.660156 124.136719 47.714844 123.136719 C 47.820312 121.191406 52.390625 111.863281 59.234375 102.433594 C 59.429688 102.402344 59.621094 102.371094 59.804688 102.277344 C 60.265625 102.050781 60.777344 101.769531 61.320312 101.464844 C 63.074219 100.496094 66 98.878906 67.144531 99.554688 C 67.425781 99.71875 68.34375 100.558594 68.34375 104.351562 C 68.34375 105.386719 69.179688 106.226562 70.21875 106.226562 C 71.253906 106.226562 72.09375 105.386719 72.09375 104.351562 C 72.09375 100.15625 71.097656 97.53125 69.050781 96.324219 C 67.582031 95.460938 65.921875 95.53125 64.289062 96 C 68.640625 90.910156 73.546875 86.316406 78.628906 83.492188 C 79.535156 82.988281 79.863281 81.851562 79.359375 80.945312 Z M 79.359375 80.945312 " fill-opacity="1" fill-rule="nonzero"/></g><g fill="#ffffff" fill-opacity="0.4"><g transform="translate(31.368365, 72.562965)"><g><path d="M 3.65625 -9.578125 C 3.09375 -8.023438 2.300781 -6.734375 1.28125 -5.703125 C 0.257812 -4.671875 -0.9375 -3.992188 -2.3125 -3.671875 C -3.695312 -3.347656 -5.179688 -3.472656 -6.765625 -4.046875 C -7.867188 -4.453125 -9.003906 -5.085938 -10.171875 -5.953125 C -12.628906 -7.804688 -14.160156 -9.8125 -14.765625 -11.96875 C -15.378906 -14.132812 -15.328125 -16.195312 -14.609375 -18.15625 C -14.234375 -19.207031 -13.738281 -20.082031 -13.125 -20.78125 C -12.507812 -21.476562 -11.78125 -22.0625 -10.9375 -22.53125 L -11.265625 -23.484375 C -11.472656 -24.117188 -11.585938 -24.632812 -11.609375 -25.03125 C -11.628906 -25.4375 -11.5625 -25.851562 -11.40625 -26.28125 C -11.238281 -26.738281 -11.003906 -27.066406 -10.703125 -27.265625 C -10.398438 -27.460938 -10.054688 -27.492188 -9.671875 -27.359375 C -9.472656 -27.285156 -9.28125 -27.175781 -9.09375 -27.03125 L -5.328125 -23.90625 C -4.898438 -23.5625 -4.625 -23.238281 -4.5 -22.9375 C -4.382812 -22.632812 -4.410156 -22.25 -4.578125 -21.78125 C -4.753906 -21.300781 -5.066406 -20.972656 -5.515625 -20.796875 C -5.960938 -20.617188 -6.675781 -20.484375 -7.65625 -20.390625 C -8.675781 -20.265625 -9.375 -20.113281 -9.75 -19.9375 C -10.132812 -19.757812 -10.425781 -19.398438 -10.625 -18.859375 C -10.894531 -18.097656 -10.6875 -17.195312 -10 -16.15625 C -9.320312 -15.125 -8.160156 -13.984375 -6.515625 -12.734375 C -5.109375 -11.691406 -3.882812 -10.976562 -2.84375 -10.59375 C -1.914062 -10.257812 -1.160156 -10.179688 -0.578125 -10.359375 C 0.00390625 -10.546875 0.398438 -10.9375 0.609375 -11.53125 C 0.921875 -12.394531 0.988281 -13.175781 0.8125 -13.875 C 0.632812 -14.582031 0.316406 -15.351562 -0.140625 -16.1875 C -0.421875 -16.71875 -0.613281 -17.128906 -0.71875 -17.421875 C -0.820312 -17.722656 -0.828125 -18.003906 -0.734375 -18.265625 C -0.609375 -18.597656 -0.316406 -18.890625 0.140625 -19.140625 C 0.597656 -19.390625 0.992188 -19.441406 1.328125 -19.296875 C 1.734375 -19.171875 2.238281 -18.613281 2.84375 -17.625 C 3.457031 -16.644531 3.882812 -15.4375 4.125 -14 C 4.363281 -12.5625 4.207031 -11.085938 3.65625 -9.578125 Z M 3.65625 -9.578125 "/></g></g></g><g fill="#ffffff" fill-opacity="0.4"><g transform="translate(37.206633, 55.959558)"><g><path d="M -5.5625 -9.515625 C -5.914062 -9.972656 -6.070312 -10.46875 -6.03125 -11 C -5.988281 -11.539062 -5.765625 -12.050781 -5.359375 -12.53125 L -0.9375 -17.78125 C -0.25 -18.601562 0.414062 -18.742188 1.0625 -18.203125 C 1.226562 -18.054688 1.351562 -17.929688 1.4375 -17.828125 C 2.113281 -16.765625 2.039062 -15.742188 1.21875 -14.765625 L -3.203125 -9.515625 C -3.546875 -9.109375 -3.882812 -8.863281 -4.21875 -8.78125 C -4.550781 -8.707031 -4.867188 -8.796875 -5.171875 -9.046875 C -5.316406 -9.171875 -5.445312 -9.328125 -5.5625 -9.515625 Z M -5.5625 -9.515625 "/></g></g></g><g fill="#ffffff" fill-opacity="0.4"><g transform="translate(45.878079, 44.741177)"><g><path d="M 6.515625 -26.6875 C 7.128906 -27.050781 7.6875 -27.203125 8.1875 -27.140625 C 8.695312 -27.078125 9.09375 -26.8125 9.375 -26.34375 C 9.519531 -26.101562 9.617188 -25.851562 9.671875 -25.59375 L 10.421875 -22.84375 C 10.566406 -22.332031 10.554688 -21.90625 10.390625 -21.5625 C 10.234375 -21.21875 9.9375 -20.914062 9.5 -20.65625 C 9.070312 -20.394531 8.679688 -20.28125 8.328125 -20.3125 C 7.972656 -20.351562 7.613281 -20.535156 7.25 -20.859375 L 6 -22.0625 C 5.769531 -22.28125 5.578125 -22.398438 5.421875 -22.421875 C 5.273438 -22.453125 5.039062 -22.367188 4.71875 -22.171875 L 2.1875 -20.671875 L 3.75 -14.796875 L 4.234375 -15.09375 C 4.472656 -15.226562 4.660156 -15.378906 4.796875 -15.546875 C 4.929688 -15.722656 5.046875 -15.96875 5.140625 -16.28125 L 5.53125 -17.40625 C 5.664062 -17.820312 5.8125 -18.15625 5.96875 -18.40625 C 6.132812 -18.65625 6.34375 -18.851562 6.59375 -19 C 6.914062 -19.195312 7.238281 -19.265625 7.5625 -19.203125 C 7.882812 -19.140625 8.144531 -18.941406 8.34375 -18.609375 C 8.414062 -18.472656 8.488281 -18.296875 8.5625 -18.078125 L 9.734375 -13.5625 C 9.972656 -12.59375 9.757812 -11.910156 9.09375 -11.515625 C 8.550781 -11.191406 7.96875 -11.21875 7.34375 -11.59375 L 6.375 -12.171875 C 6.125 -12.347656 5.925781 -12.4375 5.78125 -12.4375 C 5.632812 -12.445312 5.457031 -12.390625 5.25 -12.265625 L 4.53125 -11.84375 L 5.6875 -7.4375 C 5.71875 -7.300781 5.785156 -7.148438 5.890625 -6.984375 C 6.023438 -6.753906 6.191406 -6.59375 6.390625 -6.5 C 6.597656 -6.414062 6.863281 -6.351562 7.1875 -6.3125 C 7.457031 -6.28125 7.65625 -6.234375 7.78125 -6.171875 C 7.90625 -6.109375 8.003906 -6.015625 8.078125 -5.890625 C 8.265625 -5.578125 8.253906 -5.285156 8.046875 -5.015625 C 7.847656 -4.742188 7.488281 -4.453125 6.96875 -4.140625 L 0.609375 -0.359375 C 0.171875 -0.0976562 -0.203125 0.015625 -0.515625 -0.015625 C -0.835938 -0.046875 -1.050781 -0.222656 -1.15625 -0.546875 C -1.195312 -0.722656 -1.203125 -0.882812 -1.171875 -1.03125 C -1.140625 -1.175781 -1.066406 -1.363281 -0.953125 -1.59375 C -0.753906 -1.9375 -0.625 -2.25 -0.5625 -2.53125 C -0.507812 -2.820312 -0.550781 -3.191406 -0.6875 -3.640625 L -4.046875 -16.40625 C -4.109375 -16.664062 -4.195312 -16.890625 -4.3125 -17.078125 C -4.425781 -17.273438 -4.554688 -17.421875 -4.703125 -17.515625 C -4.847656 -17.617188 -5.019531 -17.710938 -5.21875 -17.796875 C -5.507812 -17.921875 -5.695312 -18.050781 -5.78125 -18.1875 C -5.8125 -18.238281 -5.84375 -18.34375 -5.875 -18.5 C -5.945312 -18.769531 -5.890625 -19.019531 -5.703125 -19.25 C -5.523438 -19.476562 -5.207031 -19.726562 -4.75 -20 Z M 6.515625 -26.6875 "/></g></g></g><g fill="#ffffff" fill-opacity="0.4"><g transform="translate(59.07451, 36.072452)"><g><path d="M 17.171875 -6.390625 C 17.140625 -6.117188 17.144531 -5.863281 17.1875 -5.625 C 17.226562 -5.40625 17.289062 -5.222656 17.375 -5.078125 C 17.457031 -4.941406 17.535156 -4.835938 17.609375 -4.765625 C 17.691406 -4.703125 17.75 -4.648438 17.78125 -4.609375 C 18.007812 -4.441406 18.140625 -4.257812 18.171875 -4.0625 C 18.179688 -4.019531 18.175781 -3.921875 18.15625 -3.765625 C 18.132812 -3.492188 18 -3.28125 17.75 -3.125 C 17.507812 -2.96875 17.113281 -2.847656 16.5625 -2.765625 L 9.671875 -1.609375 C 9.265625 -1.546875 8.941406 -1.5625 8.703125 -1.65625 C 8.460938 -1.75 8.320312 -1.910156 8.28125 -2.140625 C 8.257812 -2.253906 8.269531 -2.390625 8.3125 -2.546875 C 8.320312 -2.710938 8.375 -2.847656 8.46875 -2.953125 C 8.570312 -3.066406 8.710938 -3.191406 8.890625 -3.328125 C 9.160156 -3.554688 9.375 -3.789062 9.53125 -4.03125 C 9.695312 -4.28125 9.804688 -4.660156 9.859375 -5.171875 L 10.203125 -7.796875 L 5.671875 -7.046875 L 5.171875 -5.25 C 4.953125 -4.46875 4.875 -3.878906 4.9375 -3.484375 C 4.976562 -3.242188 5.050781 -3.054688 5.15625 -2.921875 C 5.257812 -2.796875 5.398438 -2.671875 5.578125 -2.546875 C 5.742188 -2.410156 5.859375 -2.289062 5.921875 -2.1875 C 5.992188 -2.09375 6.023438 -1.953125 6.015625 -1.765625 C 5.984375 -1.472656 5.851562 -1.25 5.625 -1.09375 C 5.394531 -0.945312 5.019531 -0.832031 4.5 -0.75 L 0.171875 -0.03125 C -0.273438 0.0390625 -0.625 0.015625 -0.875 -0.109375 C -1.132812 -0.234375 -1.289062 -0.425781 -1.34375 -0.6875 C -1.394531 -1.007812 -1.320312 -1.273438 -1.125 -1.484375 C -0.9375 -1.703125 -0.640625 -1.957031 -0.234375 -2.25 C 0.296875 -2.65625 0.710938 -3.023438 1.015625 -3.359375 C 1.328125 -3.691406 1.566406 -4.128906 1.734375 -4.671875 L 5.109375 -16.265625 C 5.628906 -18.066406 6.363281 -19.429688 7.3125 -20.359375 C 8.269531 -21.285156 9.628906 -21.894531 11.390625 -22.1875 C 13.367188 -22.519531 14.96875 -22.375 16.1875 -21.75 C 17.40625 -21.125 18.132812 -20.09375 18.375 -18.65625 C 18.476562 -18.050781 18.484375 -17.414062 18.390625 -16.75 Z M 10.59375 -10.84375 L 11.28125 -16.21875 C 11.320312 -16.457031 11.320312 -16.703125 11.28125 -16.953125 C 11.21875 -17.328125 11.066406 -17.585938 10.828125 -17.734375 C 10.597656 -17.890625 10.300781 -17.9375 9.9375 -17.875 C 9.46875 -17.789062 9.085938 -17.585938 8.796875 -17.265625 C 8.515625 -16.941406 8.269531 -16.40625 8.0625 -15.65625 L 6.53125 -10.15625 Z M 10.59375 -10.84375 "/></g></g></g><g fill="#ffffff" fill-opacity="0.4"><g transform="translate(76.241752, 32.392811)"><g><path d="M 25.125 -7.859375 C 24.550781 -6.828125 23.765625 -6.101562 22.765625 -5.6875 C 21.773438 -5.269531 20.617188 -5.144531 19.296875 -5.3125 C 20.203125 -5.019531 20.820312 -4.585938 21.15625 -4.015625 C 21.5 -3.441406 21.582031 -2.785156 21.40625 -2.046875 C 21.332031 -1.753906 21.195312 -1.410156 21 -1.015625 L 20.34375 0.3125 C 20.257812 0.5 20.210938 0.628906 20.203125 0.703125 C 20.140625 0.953125 20.148438 1.148438 20.234375 1.296875 C 20.316406 1.441406 20.460938 1.539062 20.671875 1.59375 C 21.066406 1.695312 21.335938 1.828125 21.484375 1.984375 C 21.640625 2.148438 21.65625 2.378906 21.53125 2.671875 C 21.34375 3.085938 21.003906 3.457031 20.515625 3.78125 C 20.035156 4.101562 19.410156 4.316406 18.640625 4.421875 C 17.878906 4.535156 17.003906 4.472656 16.015625 4.234375 C 14.753906 3.921875 13.820312 3.390625 13.21875 2.640625 C 12.613281 1.898438 12.4375 1.003906 12.6875 -0.046875 C 12.789062 -0.453125 12.960938 -0.875 13.203125 -1.3125 L 14.109375 -3.015625 C 14.234375 -3.253906 14.332031 -3.507812 14.40625 -3.78125 C 14.507812 -4.21875 14.4375 -4.566406 14.1875 -4.828125 C 13.9375 -5.085938 13.488281 -5.296875 12.84375 -5.453125 L 11.75 -5.71875 L 9.265625 -1.3125 C 9.210938 -1.195312 9.160156 -1.050781 9.109375 -0.875 C 9.046875 -0.613281 9.054688 -0.367188 9.140625 -0.140625 C 9.222656 0.0859375 9.351562 0.332031 9.53125 0.59375 C 9.675781 0.769531 9.773438 0.925781 9.828125 1.0625 C 9.890625 1.207031 9.90625 1.351562 9.875 1.5 C 9.789062 1.820312 9.582031 2.007812 9.25 2.0625 C 8.914062 2.125 8.457031 2.082031 7.875 1.9375 L 0.6875 0.171875 C 0.1875 0.046875 -0.160156 -0.132812 -0.359375 -0.375 C -0.554688 -0.625 -0.582031 -0.898438 -0.4375 -1.203125 C -0.351562 -1.367188 -0.242188 -1.488281 -0.109375 -1.5625 C 0.015625 -1.644531 0.195312 -1.726562 0.4375 -1.8125 C 0.8125 -1.914062 1.117188 -2.046875 1.359375 -2.203125 C 1.609375 -2.367188 1.84375 -2.664062 2.0625 -3.09375 L 8.59375 -14.546875 C 8.738281 -14.773438 8.835938 -15.007812 8.890625 -15.25 C 8.941406 -15.445312 8.953125 -15.625 8.921875 -15.78125 C 8.890625 -15.945312 8.832031 -16.140625 8.75 -16.359375 C 8.644531 -16.648438 8.613281 -16.867188 8.65625 -17.015625 C 8.664062 -17.078125 8.710938 -17.179688 8.796875 -17.328125 C 8.941406 -17.546875 9.148438 -17.675781 9.421875 -17.71875 C 9.703125 -17.757812 10.113281 -17.710938 10.65625 -17.578125 L 20.234375 -15.21875 C 21.546875 -14.894531 22.644531 -14.410156 23.53125 -13.765625 C 24.414062 -13.128906 25.035156 -12.394531 25.390625 -11.5625 C 25.742188 -10.738281 25.8125 -9.882812 25.59375 -9 C 25.5 -8.601562 25.34375 -8.222656 25.125 -7.859375 Z M 17.875 -9.953125 C 18.082031 -10.359375 18.210938 -10.675781 18.265625 -10.90625 C 18.515625 -11.914062 18.082031 -12.5625 16.96875 -12.84375 L 15.765625 -13.140625 L 13.265625 -8.375 L 14.453125 -8.078125 C 15.203125 -7.898438 15.835938 -7.9375 16.359375 -8.1875 C 16.890625 -8.445312 17.394531 -9.035156 17.875 -9.953125 Z M 17.875 -9.953125 "/></g></g></g><g fill="#ffffff" fill-opacity="0.4"><g transform="translate(95.212822, 35.132753)"><g><path d="M 36.59375 6.953125 C 36.894531 7.222656 37.085938 7.476562 37.171875 7.71875 C 37.253906 7.96875 37.210938 8.179688 37.046875 8.359375 C 36.984375 8.441406 36.875 8.519531 36.71875 8.59375 C 36.550781 8.675781 36.394531 8.710938 36.25 8.703125 C 36.113281 8.703125 35.925781 8.675781 35.6875 8.625 C 35.332031 8.550781 35.007812 8.523438 34.71875 8.546875 C 34.4375 8.578125 34.097656 8.71875 33.703125 8.96875 L 22.453125 15.859375 C 22.234375 16.003906 22.046875 16.164062 21.890625 16.34375 C 21.742188 16.488281 21.644531 16.640625 21.59375 16.796875 C 21.550781 16.960938 21.503906 17.15625 21.453125 17.375 C 21.453125 17.488281 21.429688 17.609375 21.390625 17.734375 C 21.359375 17.859375 21.304688 17.960938 21.234375 18.046875 C 21.203125 18.078125 21.117188 18.132812 20.984375 18.21875 C 20.765625 18.351562 20.503906 18.367188 20.203125 18.265625 C 19.910156 18.160156 19.570312 17.929688 19.1875 17.578125 L 14.078125 12.890625 C 13.785156 12.617188 13.597656 12.351562 13.515625 12.09375 C 13.441406 11.832031 13.484375 11.613281 13.640625 11.4375 C 13.722656 11.351562 13.835938 11.285156 13.984375 11.234375 C 14.109375 11.148438 14.25 11.109375 14.40625 11.109375 C 14.5625 11.117188 14.6875 11.128906 14.78125 11.140625 C 14.875 11.160156 14.953125 11.171875 15.015625 11.171875 C 15.367188 11.253906 15.6875 11.285156 15.96875 11.265625 C 16.257812 11.242188 16.609375 11.113281 17.015625 10.875 L 24.046875 6.5 L 12.046875 8.328125 C 11.066406 8.460938 10.335938 8.503906 9.859375 8.453125 C 9.378906 8.410156 8.957031 8.222656 8.59375 7.890625 C 8.25 7.578125 8.082031 7.21875 8.09375 6.8125 C 8.101562 6.40625 8.273438 5.863281 8.609375 5.1875 L 12.734375 -3.40625 L 5.96875 0.75 C 5.726562 0.882812 5.523438 1.039062 5.359375 1.21875 C 5.203125 1.382812 5.097656 1.546875 5.046875 1.703125 C 4.992188 1.867188 4.960938 2.0625 4.953125 2.28125 C 4.898438 2.59375 4.820312 2.804688 4.71875 2.921875 C 4.6875 2.953125 4.601562 3.007812 4.46875 3.09375 C 4.226562 3.257812 3.96875 3.285156 3.6875 3.171875 C 3.414062 3.066406 3.078125 2.828125 2.671875 2.453125 L 0.859375 0.796875 C 0.566406 0.515625 0.378906 0.25 0.296875 0 C 0.222656 -0.25 0.265625 -0.460938 0.421875 -0.640625 C 0.503906 -0.722656 0.617188 -0.800781 0.765625 -0.875 C 0.960938 -0.96875 1.164062 -1 1.375 -0.96875 C 1.582031 -0.9375 1.707031 -0.921875 1.75 -0.921875 C 2.125 -0.847656 2.453125 -0.816406 2.734375 -0.828125 C 3.015625 -0.847656 3.363281 -0.988281 3.78125 -1.25 L 15.046875 -8.1875 L 15.75 -9.671875 C 15.875 -9.953125 16.03125 -10.191406 16.21875 -10.390625 C 16.457031 -10.648438 16.710938 -10.757812 16.984375 -10.71875 C 17.253906 -10.6875 17.566406 -10.507812 17.921875 -10.1875 L 21.28125 -7.09375 C 21.71875 -6.695312 21.953125 -6.304688 21.984375 -5.921875 C 22.023438 -5.546875 21.894531 -5.070312 21.59375 -4.5 L 17.15625 4.703125 L 29.765625 2.78125 C 30.554688 2.664062 31.203125 2.695312 31.703125 2.875 C 32.203125 3.0625 32.753906 3.429688 33.359375 3.984375 Z M 36.59375 6.953125 "/></g></g></g><g fill="#ffffff" fill-opacity="0.4"><g transform="translate(114.701613, 53.468106)"><g><path d="M 22.359375 3.625 C 22.734375 4.664062 22.953125 5.664062 23.015625 6.625 C 23.085938 7.59375 23.023438 8.628906 22.828125 9.734375 L 23.59375 10.171875 C 24.082031 10.492188 24.445312 10.773438 24.6875 11.015625 C 24.925781 11.253906 25.113281 11.550781 25.25 11.90625 C 25.414062 12.363281 25.441406 12.753906 25.328125 13.078125 C 25.222656 13.410156 24.988281 13.644531 24.625 13.78125 C 24.46875 13.832031 24.300781 13.863281 24.125 13.875 L 19.890625 14.09375 C 19.398438 14.113281 19.023438 14.0625 18.765625 13.9375 C 18.515625 13.8125 18.316406 13.550781 18.171875 13.15625 C 18.023438 12.757812 18.019531 12.359375 18.15625 11.953125 C 18.300781 11.554688 18.640625 10.894531 19.171875 9.96875 C 19.691406 9.050781 20.003906 8.273438 20.109375 7.640625 C 20.222656 7.015625 20.179688 6.421875 19.984375 5.859375 C 19.835938 5.453125 19.578125 5.160156 19.203125 4.984375 C 18.835938 4.804688 18.460938 4.785156 18.078125 4.921875 C 17.628906 5.085938 17.296875 5.457031 17.078125 6.03125 C 16.867188 6.613281 16.644531 7.484375 16.40625 8.640625 C 16.1875 9.804688 15.957031 10.785156 15.71875 11.578125 C 15.476562 12.367188 15.097656 13.113281 14.578125 13.8125 C 14.054688 14.507812 13.351562 15.015625 12.46875 15.328125 C 11.894531 15.535156 11.289062 15.648438 10.65625 15.671875 C 9.007812 15.765625 7.570312 15.3125 6.34375 14.3125 C 5.113281 13.3125 4.191406 11.960938 3.578125 10.265625 C 3.117188 8.992188 2.878906 7.867188 2.859375 6.890625 C 2.847656 5.921875 3.03125 4.851562 3.40625 3.6875 L 2.21875 2.984375 C 1.65625 2.660156 1.25 2.378906 1 2.140625 C 0.757812 1.898438 0.570312 1.59375 0.4375 1.21875 C 0.289062 0.800781 0.269531 0.429688 0.375 0.109375 C 0.488281 -0.210938 0.71875 -0.4375 1.0625 -0.5625 C 1.25 -0.632812 1.460938 -0.675781 1.703125 -0.6875 L 6.3125 -0.796875 C 6.84375 -0.828125 7.253906 -0.75 7.546875 -0.5625 C 7.847656 -0.375 8.070312 -0.0820312 8.21875 0.3125 C 8.375 0.738281 8.363281 1.171875 8.1875 1.609375 C 8.019531 2.054688 7.648438 2.703125 7.078125 3.546875 C 6.441406 4.441406 6.046875 5.203125 5.890625 5.828125 C 5.742188 6.460938 5.796875 7.132812 6.046875 7.84375 C 6.234375 8.332031 6.453125 8.679688 6.703125 8.890625 C 6.960938 9.109375 7.285156 9.207031 7.671875 9.1875 C 7.785156 9.1875 7.929688 9.15625 8.109375 9.09375 C 8.554688 8.9375 8.882812 8.578125 9.09375 8.015625 C 9.3125 7.453125 9.519531 6.632812 9.71875 5.5625 C 9.945312 4.414062 10.179688 3.460938 10.421875 2.703125 C 10.660156 1.953125 11.039062 1.234375 11.5625 0.546875 C 12.09375 -0.128906 12.820312 -0.632812 13.75 -0.96875 C 14.394531 -1.195312 15.070312 -1.328125 15.78125 -1.359375 C 17.195312 -1.421875 18.503906 -0.992188 19.703125 -0.078125 C 20.910156 0.835938 21.796875 2.070312 22.359375 3.625 Z M 22.359375 3.625 "/></g></g></g><g fill="#0071bc" fill-opacity="1"><g transform="translate(30.61276, 71.807361)"><g><path d="M 3.65625 -9.578125 C 3.09375 -8.023438 2.300781 -6.734375 1.28125 -5.703125 C 0.257812 -4.671875 -0.9375 -3.992188 -2.3125 -3.671875 C -3.695312 -3.347656 -5.179688 -3.472656 -6.765625 -4.046875 C -7.867188 -4.453125 -9.003906 -5.085938 -10.171875 -5.953125 C -12.628906 -7.804688 -14.160156 -9.8125 -14.765625 -11.96875 C -15.378906 -14.132812 -15.328125 -16.195312 -14.609375 -18.15625 C -14.234375 -19.207031 -13.738281 -20.082031 -13.125 -20.78125 C -12.507812 -21.476562 -11.78125 -22.0625 -10.9375 -22.53125 L -11.265625 -23.484375 C -11.472656 -24.117188 -11.585938 -24.632812 -11.609375 -25.03125 C -11.628906 -25.4375 -11.5625 -25.851562 -11.40625 -26.28125 C -11.238281 -26.738281 -11.003906 -27.066406 -10.703125 -27.265625 C -10.398438 -27.460938 -10.054688 -27.492188 -9.671875 -27.359375 C -9.472656 -27.285156 -9.28125 -27.175781 -9.09375 -27.03125 L -5.328125 -23.90625 C -4.898438 -23.5625 -4.625 -23.238281 -4.5 -22.9375 C -4.382812 -22.632812 -4.410156 -22.25 -4.578125 -21.78125 C -4.753906 -21.300781 -5.066406 -20.972656 -5.515625 -20.796875 C -5.960938 -20.617188 -6.675781 -20.484375 -7.65625 -20.390625 C -8.675781 -20.265625 -9.375 -20.113281 -9.75 -19.9375 C -10.132812 -19.757812 -10.425781 -19.398438 -10.625 -18.859375 C -10.894531 -18.097656 -10.6875 -17.195312 -10 -16.15625 C -9.320312 -15.125 -8.160156 -13.984375 -6.515625 -12.734375 C -5.109375 -11.691406 -3.882812 -10.976562 -2.84375 -10.59375 C -1.914062 -10.257812 -1.160156 -10.179688 -0.578125 -10.359375 C 0.00390625 -10.546875 0.398438 -10.9375 0.609375 -11.53125 C 0.921875 -12.394531 0.988281 -13.175781 0.8125 -13.875 C 0.632812 -14.582031 0.316406 -15.351562 -0.140625 -16.1875 C -0.421875 -16.71875 -0.613281 -17.128906 -0.71875 -17.421875 C -0.820312 -17.722656 -0.828125 -18.003906 -0.734375 -18.265625 C -0.609375 -18.597656 -0.316406 -18.890625 0.140625 -19.140625 C 0.597656 -19.390625 0.992188 -19.441406 1.328125 -19.296875 C 1.734375 -19.171875 2.238281 -18.613281 2.84375 -17.625 C 3.457031 -16.644531 3.882812 -15.4375 4.125 -14 C 4.363281 -12.5625 4.207031 -11.085938 3.65625 -9.578125 Z M 3.65625 -9.578125 "/></g></g></g><g fill="#0071bc" fill-opacity="1"><g transform="translate(36.451028, 55.203955)"><g><path d="M -5.5625 -9.515625 C -5.914062 -9.972656 -6.070312 -10.46875 -6.03125 -11 C -5.988281 -11.539062 -5.765625 -12.050781 -5.359375 -12.53125 L -0.9375 -17.78125 C -0.25 -18.601562 0.414062 -18.742188 1.0625 -18.203125 C 1.226562 -18.054688 1.351562 -17.929688 1.4375 -17.828125 C 2.113281 -16.765625 2.039062 -15.742188 1.21875 -14.765625 L -3.203125 -9.515625 C -3.546875 -9.109375 -3.882812 -8.863281 -4.21875 -8.78125 C -4.550781 -8.707031 -4.867188 -8.796875 -5.171875 -9.046875 C -5.316406 -9.171875 -5.445312 -9.328125 -5.5625 -9.515625 Z M -5.5625 -9.515625 "/></g></g></g><g fill="#0071bc" fill-opacity="1"><g transform="translate(45.122473, 43.985572)"><g><path d="M 6.515625 -26.6875 C 7.128906 -27.050781 7.6875 -27.203125 8.1875 -27.140625 C 8.695312 -27.078125 9.09375 -26.8125 9.375 -26.34375 C 9.519531 -26.101562 9.617188 -25.851562 9.671875 -25.59375 L 10.421875 -22.84375 C 10.566406 -22.332031 10.554688 -21.90625 10.390625 -21.5625 C 10.234375 -21.21875 9.9375 -20.914062 9.5 -20.65625 C 9.070312 -20.394531 8.679688 -20.28125 8.328125 -20.3125 C 7.972656 -20.351562 7.613281 -20.535156 7.25 -20.859375 L 6 -22.0625 C 5.769531 -22.28125 5.578125 -22.398438 5.421875 -22.421875 C 5.273438 -22.453125 5.039062 -22.367188 4.71875 -22.171875 L 2.1875 -20.671875 L 3.75 -14.796875 L 4.234375 -15.09375 C 4.472656 -15.226562 4.660156 -15.378906 4.796875 -15.546875 C 4.929688 -15.722656 5.046875 -15.96875 5.140625 -16.28125 L 5.53125 -17.40625 C 5.664062 -17.820312 5.8125 -18.15625 5.96875 -18.40625 C 6.132812 -18.65625 6.34375 -18.851562 6.59375 -19 C 6.914062 -19.195312 7.238281 -19.265625 7.5625 -19.203125 C 7.882812 -19.140625 8.144531 -18.941406 8.34375 -18.609375 C 8.414062 -18.472656 8.488281 -18.296875 8.5625 -18.078125 L 9.734375 -13.5625 C 9.972656 -12.59375 9.757812 -11.910156 9.09375 -11.515625 C 8.550781 -11.191406 7.96875 -11.21875 7.34375 -11.59375 L 6.375 -12.171875 C 6.125 -12.347656 5.925781 -12.4375 5.78125 -12.4375 C 5.632812 -12.445312 5.457031 -12.390625 5.25 -12.265625 L 4.53125 -11.84375 L 5.6875 -7.4375 C 5.71875 -7.300781 5.785156 -7.148438 5.890625 -6.984375 C 6.023438 -6.753906 6.191406 -6.59375 6.390625 -6.5 C 6.597656 -6.414062 6.863281 -6.351562 7.1875 -6.3125 C 7.457031 -6.28125 7.65625 -6.234375 7.78125 -6.171875 C 7.90625 -6.109375 8.003906 -6.015625 8.078125 -5.890625 C 8.265625 -5.578125 8.253906 -5.285156 8.046875 -5.015625 C 7.847656 -4.742188 7.488281 -4.453125 6.96875 -4.140625 L 0.609375 -0.359375 C 0.171875 -0.0976562 -0.203125 0.015625 -0.515625 -0.015625 C -0.835938 -0.046875 -1.050781 -0.222656 -1.15625 -0.546875 C -1.195312 -0.722656 -1.203125 -0.882812 -1.171875 -1.03125 C -1.140625 -1.175781 -1.066406 -1.363281 -0.953125 -1.59375 C -0.753906 -1.9375 -0.625 -2.25 -0.5625 -2.53125 C -0.507812 -2.820312 -0.550781 -3.191406 -0.6875 -3.640625 L -4.046875 -16.40625 C -4.109375 -16.664062 -4.195312 -16.890625 -4.3125 -17.078125 C -4.425781 -17.273438 -4.554688 -17.421875 -4.703125 -17.515625 C -4.847656 -17.617188 -5.019531 -17.710938 -5.21875 -17.796875 C -5.507812 -17.921875 -5.695312 -18.050781 -5.78125 -18.1875 C -5.8125 -18.238281 -5.84375 -18.34375 -5.875 -18.5 C -5.945312 -18.769531 -5.890625 -19.019531 -5.703125 -19.25 C -5.523438 -19.476562 -5.207031 -19.726562 -4.75 -20 Z M 6.515625 -26.6875 "/></g></g></g><g fill="#0071bc" fill-opacity="1"><g transform="translate(58.318903, 35.316847)"><g><path d="M 17.171875 -6.390625 C 17.140625 -6.117188 17.144531 -5.863281 17.1875 -5.625 C 17.226562 -5.40625 17.289062 -5.222656 17.375 -5.078125 C 17.457031 -4.941406 17.535156 -4.835938 17.609375 -4.765625 C 17.691406 -4.703125 17.75 -4.648438 17.78125 -4.609375 C 18.007812 -4.441406 18.140625 -4.257812 18.171875 -4.0625 C 18.179688 -4.019531 18.175781 -3.921875 18.15625 -3.765625 C 18.132812 -3.492188 18 -3.28125 17.75 -3.125 C 17.507812 -2.96875 17.113281 -2.847656 16.5625 -2.765625 L 9.671875 -1.609375 C 9.265625 -1.546875 8.941406 -1.5625 8.703125 -1.65625 C 8.460938 -1.75 8.320312 -1.910156 8.28125 -2.140625 C 8.257812 -2.253906 8.269531 -2.390625 8.3125 -2.546875 C 8.320312 -2.710938 8.375 -2.847656 8.46875 -2.953125 C 8.570312 -3.066406 8.710938 -3.191406 8.890625 -3.328125 C 9.160156 -3.554688 9.375 -3.789062 9.53125 -4.03125 C 9.695312 -4.28125 9.804688 -4.660156 9.859375 -5.171875 L 10.203125 -7.796875 L 5.671875 -7.046875 L 5.171875 -5.25 C 4.953125 -4.46875 4.875 -3.878906 4.9375 -3.484375 C 4.976562 -3.242188 5.050781 -3.054688 5.15625 -2.921875 C 5.257812 -2.796875 5.398438 -2.671875 5.578125 -2.546875 C 5.742188 -2.410156 5.859375 -2.289062 5.921875 -2.1875 C 5.992188 -2.09375 6.023438 -1.953125 6.015625 -1.765625 C 5.984375 -1.472656 5.851562 -1.25 5.625 -1.09375 C 5.394531 -0.945312 5.019531 -0.832031 4.5 -0.75 L 0.171875 -0.03125 C -0.273438 0.0390625 -0.625 0.015625 -0.875 -0.109375 C -1.132812 -0.234375 -1.289062 -0.425781 -1.34375 -0.6875 C -1.394531 -1.007812 -1.320312 -1.273438 -1.125 -1.484375 C -0.9375 -1.703125 -0.640625 -1.957031 -0.234375 -2.25 C 0.296875 -2.65625 0.710938 -3.023438 1.015625 -3.359375 C 1.328125 -3.691406 1.566406 -4.128906 1.734375 -4.671875 L 5.109375 -16.265625 C 5.628906 -18.066406 6.363281 -19.429688 7.3125 -20.359375 C 8.269531 -21.285156 9.628906 -21.894531 11.390625 -22.1875 C 13.367188 -22.519531 14.96875 -22.375 16.1875 -21.75 C 17.40625 -21.125 18.132812 -20.09375 18.375 -18.65625 C 18.476562 -18.050781 18.484375 -17.414062 18.390625 -16.75 Z M 10.59375 -10.84375 L 11.28125 -16.21875 C 11.320312 -16.457031 11.320312 -16.703125 11.28125 -16.953125 C 11.21875 -17.328125 11.066406 -17.585938 10.828125 -17.734375 C 10.597656 -17.890625 10.300781 -17.9375 9.9375 -17.875 C 9.46875 -17.789062 9.085938 -17.585938 8.796875 -17.265625 C 8.515625 -16.941406 8.269531 -16.40625 8.0625 -15.65625 L 6.53125 -10.15625 Z M 10.59375 -10.84375 "/></g></g></g><g fill="#0071bc" fill-opacity="1"><g transform="translate(75.486148, 31.637206)"><g><path d="M 25.125 -7.859375 C 24.550781 -6.828125 23.765625 -6.101562 22.765625 -5.6875 C 21.773438 -5.269531 20.617188 -5.144531 19.296875 -5.3125 C 20.203125 -5.019531 20.820312 -4.585938 21.15625 -4.015625 C 21.5 -3.441406 21.582031 -2.785156 21.40625 -2.046875 C 21.332031 -1.753906 21.195312 -1.410156 21 -1.015625 L 20.34375 0.3125 C 20.257812 0.5 20.210938 0.628906 20.203125 0.703125 C 20.140625 0.953125 20.148438 1.148438 20.234375 1.296875 C 20.316406 1.441406 20.460938 1.539062 20.671875 1.59375 C 21.066406 1.695312 21.335938 1.828125 21.484375 1.984375 C 21.640625 2.148438 21.65625 2.378906 21.53125 2.671875 C 21.34375 3.085938 21.003906 3.457031 20.515625 3.78125 C 20.035156 4.101562 19.410156 4.316406 18.640625 4.421875 C 17.878906 4.535156 17.003906 4.472656 16.015625 4.234375 C 14.753906 3.921875 13.820312 3.390625 13.21875 2.640625 C 12.613281 1.898438 12.4375 1.003906 12.6875 -0.046875 C 12.789062 -0.453125 12.960938 -0.875 13.203125 -1.3125 L 14.109375 -3.015625 C 14.234375 -3.253906 14.332031 -3.507812 14.40625 -3.78125 C 14.507812 -4.21875 14.4375 -4.566406 14.1875 -4.828125 C 13.9375 -5.085938 13.488281 -5.296875 12.84375 -5.453125 L 11.75 -5.71875 L 9.265625 -1.3125 C 9.210938 -1.195312 9.160156 -1.050781 9.109375 -0.875 C 9.046875 -0.613281 9.054688 -0.367188 9.140625 -0.140625 C 9.222656 0.0859375 9.351562 0.332031 9.53125 0.59375 C 9.675781 0.769531 9.773438 0.925781 9.828125 1.0625 C 9.890625 1.207031 9.90625 1.351562 9.875 1.5 C 9.789062 1.820312 9.582031 2.007812 9.25 2.0625 C 8.914062 2.125 8.457031 2.082031 7.875 1.9375 L 0.6875 0.171875 C 0.1875 0.046875 -0.160156 -0.132812 -0.359375 -0.375 C -0.554688 -0.625 -0.582031 -0.898438 -0.4375 -1.203125 C -0.351562 -1.367188 -0.242188 -1.488281 -0.109375 -1.5625 C 0.015625 -1.644531 0.195312 -1.726562 0.4375 -1.8125 C 0.8125 -1.914062 1.117188 -2.046875 1.359375 -2.203125 C 1.609375 -2.367188 1.84375 -2.664062 2.0625 -3.09375 L 8.59375 -14.546875 C 8.738281 -14.773438 8.835938 -15.007812 8.890625 -15.25 C 8.941406 -15.445312 8.953125 -15.625 8.921875 -15.78125 C 8.890625 -15.945312 8.832031 -16.140625 8.75 -16.359375 C 8.644531 -16.648438 8.613281 -16.867188 8.65625 -17.015625 C 8.664062 -17.078125 8.710938 -17.179688 8.796875 -17.328125 C 8.941406 -17.546875 9.148438 -17.675781 9.421875 -17.71875 C 9.703125 -17.757812 10.113281 -17.710938 10.65625 -17.578125 L 20.234375 -15.21875 C 21.546875 -14.894531 22.644531 -14.410156 23.53125 -13.765625 C 24.414062 -13.128906 25.035156 -12.394531 25.390625 -11.5625 C 25.742188 -10.738281 25.8125 -9.882812 25.59375 -9 C 25.5 -8.601562 25.34375 -8.222656 25.125 -7.859375 Z M 17.875 -9.953125 C 18.082031 -10.359375 18.210938 -10.675781 18.265625 -10.90625 C 18.515625 -11.914062 18.082031 -12.5625 16.96875 -12.84375 L 15.765625 -13.140625 L 13.265625 -8.375 L 14.453125 -8.078125 C 15.203125 -7.898438 15.835938 -7.9375 16.359375 -8.1875 C 16.890625 -8.445312 17.394531 -9.035156 17.875 -9.953125 Z M 17.875 -9.953125 "/></g></g></g><g fill="#0071bc" fill-opacity="1"><g transform="translate(94.457218, 34.377147)"><g><path d="M 36.59375 6.953125 C 36.894531 7.222656 37.085938 7.476562 37.171875 7.71875 C 37.253906 7.96875 37.210938 8.179688 37.046875 8.359375 C 36.984375 8.441406 36.875 8.519531 36.71875 8.59375 C 36.550781 8.675781 36.394531 8.710938 36.25 8.703125 C 36.113281 8.703125 35.925781 8.675781 35.6875 8.625 C 35.332031 8.550781 35.007812 8.523438 34.71875 8.546875 C 34.4375 8.578125 34.097656 8.71875 33.703125 8.96875 L 22.453125 15.859375 C 22.234375 16.003906 22.046875 16.164062 21.890625 16.34375 C 21.742188 16.488281 21.644531 16.640625 21.59375 16.796875 C 21.550781 16.960938 21.503906 17.15625 21.453125 17.375 C 21.453125 17.488281 21.429688 17.609375 21.390625 17.734375 C 21.359375 17.859375 21.304688 17.960938 21.234375 18.046875 C 21.203125 18.078125 21.117188 18.132812 20.984375 18.21875 C 20.765625 18.351562 20.503906 18.367188 20.203125 18.265625 C 19.910156 18.160156 19.570312 17.929688 19.1875 17.578125 L 14.078125 12.890625 C 13.785156 12.617188 13.597656 12.351562 13.515625 12.09375 C 13.441406 11.832031 13.484375 11.613281 13.640625 11.4375 C 13.722656 11.351562 13.835938 11.285156 13.984375 11.234375 C 14.109375 11.148438 14.25 11.109375 14.40625 11.109375 C 14.5625 11.117188 14.6875 11.128906 14.78125 11.140625 C 14.875 11.160156 14.953125 11.171875 15.015625 11.171875 C 15.367188 11.253906 15.6875 11.285156 15.96875 11.265625 C 16.257812 11.242188 16.609375 11.113281 17.015625 10.875 L 24.046875 6.5 L 12.046875 8.328125 C 11.066406 8.460938 10.335938 8.503906 9.859375 8.453125 C 9.378906 8.410156 8.957031 8.222656 8.59375 7.890625 C 8.25 7.578125 8.082031 7.21875 8.09375 6.8125 C 8.101562 6.40625 8.273438 5.863281 8.609375 5.1875 L 12.734375 -3.40625 L 5.96875 0.75 C 5.726562 0.882812 5.523438 1.039062 5.359375 1.21875 C 5.203125 1.382812 5.097656 1.546875 5.046875 1.703125 C 4.992188 1.867188 4.960938 2.0625 4.953125 2.28125 C 4.898438 2.59375 4.820312 2.804688 4.71875 2.921875 C 4.6875 2.953125 4.601562 3.007812 4.46875 3.09375 C 4.226562 3.257812 3.96875 3.285156 3.6875 3.171875 C 3.414062 3.066406 3.078125 2.828125 2.671875 2.453125 L 0.859375 0.796875 C 0.566406 0.515625 0.378906 0.25 0.296875 0 C 0.222656 -0.25 0.265625 -0.460938 0.421875 -0.640625 C 0.503906 -0.722656 0.617188 -0.800781 0.765625 -0.875 C 0.960938 -0.96875 1.164062 -1 1.375 -0.96875 C 1.582031 -0.9375 1.707031 -0.921875 1.75 -0.921875 C 2.125 -0.847656 2.453125 -0.816406 2.734375 -0.828125 C 3.015625 -0.847656 3.363281 -0.988281 3.78125 -1.25 L 15.046875 -8.1875 L 15.75 -9.671875 C 15.875 -9.953125 16.03125 -10.191406 16.21875 -10.390625 C 16.457031 -10.648438 16.710938 -10.757812 16.984375 -10.71875 C 17.253906 -10.6875 17.566406 -10.507812 17.921875 -10.1875 L 21.28125 -7.09375 C 21.71875 -6.695312 21.953125 -6.304688 21.984375 -5.921875 C 22.023438 -5.546875 21.894531 -5.070312 21.59375 -4.5 L 17.15625 4.703125 L 29.765625 2.78125 C 30.554688 2.664062 31.203125 2.695312 31.703125 2.875 C 32.203125 3.0625 32.753906 3.429688 33.359375 3.984375 Z M 36.59375 6.953125 "/></g></g></g><g fill="#0071bc" fill-opacity="1"><g transform="translate(113.946016, 52.712503)"><g><path d="M 22.359375 3.625 C 22.734375 4.664062 22.953125 5.664062 23.015625 6.625 C 23.085938 7.59375 23.023438 8.628906 22.828125 9.734375 L 23.59375 10.171875 C 24.082031 10.492188 24.445312 10.773438 24.6875 11.015625 C 24.925781 11.253906 25.113281 11.550781 25.25 11.90625 C 25.414062 12.363281 25.441406 12.753906 25.328125 13.078125 C 25.222656 13.410156 24.988281 13.644531 24.625 13.78125 C 24.46875 13.832031 24.300781 13.863281 24.125 13.875 L 19.890625 14.09375 C 19.398438 14.113281 19.023438 14.0625 18.765625 13.9375 C 18.515625 13.8125 18.316406 13.550781 18.171875 13.15625 C 18.023438 12.757812 18.019531 12.359375 18.15625 11.953125 C 18.300781 11.554688 18.640625 10.894531 19.171875 9.96875 C 19.691406 9.050781 20.003906 8.273438 20.109375 7.640625 C 20.222656 7.015625 20.179688 6.421875 19.984375 5.859375 C 19.835938 5.453125 19.578125 5.160156 19.203125 4.984375 C 18.835938 4.804688 18.460938 4.785156 18.078125 4.921875 C 17.628906 5.085938 17.296875 5.457031 17.078125 6.03125 C 16.867188 6.613281 16.644531 7.484375 16.40625 8.640625 C 16.1875 9.804688 15.957031 10.785156 15.71875 11.578125 C 15.476562 12.367188 15.097656 13.113281 14.578125 13.8125 C 14.054688 14.507812 13.351562 15.015625 12.46875 15.328125 C 11.894531 15.535156 11.289062 15.648438 10.65625 15.671875 C 9.007812 15.765625 7.570312 15.3125 6.34375 14.3125 C 5.113281 13.3125 4.191406 11.960938 3.578125 10.265625 C 3.117188 8.992188 2.878906 7.867188 2.859375 6.890625 C 2.847656 5.921875 3.03125 4.851562 3.40625 3.6875 L 2.21875 2.984375 C 1.65625 2.660156 1.25 2.378906 1 2.140625 C 0.757812 1.898438 0.570312 1.59375 0.4375 1.21875 C 0.289062 0.800781 0.269531 0.429688 0.375 0.109375 C 0.488281 -0.210938 0.71875 -0.4375 1.0625 -0.5625 C 1.25 -0.632812 1.460938 -0.675781 1.703125 -0.6875 L 6.3125 -0.796875 C 6.84375 -0.828125 7.253906 -0.75 7.546875 -0.5625 C 7.847656 -0.375 8.070312 -0.0820312 8.21875 0.3125 C 8.375 0.738281 8.363281 1.171875 8.1875 1.609375 C 8.019531 2.054688 7.648438 2.703125 7.078125 3.546875 C 6.441406 4.441406 6.046875 5.203125 5.890625 5.828125 C 5.742188 6.460938 5.796875 7.132812 6.046875 7.84375 C 6.234375 8.332031 6.453125 8.679688 6.703125 8.890625 C 6.960938 9.109375 7.285156 9.207031 7.671875 9.1875 C 7.785156 9.1875 7.929688 9.15625 8.109375 9.09375 C 8.554688 8.9375 8.882812 8.578125 9.09375 8.015625 C 9.3125 7.453125 9.519531 6.632812 9.71875 5.5625 C 9.945312 4.414062 10.179688 3.460938 10.421875 2.703125 C 10.660156 1.953125 11.039062 1.234375 11.5625 0.546875 C 12.09375 -0.128906 12.820312 -0.632812 13.75 -0.96875 C 14.394531 -1.195312 15.070312 -1.328125 15.78125 -1.359375 C 17.195312 -1.421875 18.503906 -0.992188 19.703125 -0.078125 C 20.910156 0.835938 21.796875 2.070312 22.359375 3.625 Z M 22.359375 3.625 "/></g></g></g><path fill="#d6a887" d="M 81.429688 93.839844 L 81.429688 105.082031 C 81.445312 105.21875 81.957031 109.667969 89.738281 109.386719 C 89.820312 109.382812 98.035156 109.046875 98.316406 104.480469 L 98.640625 93.398438 C 97.238281 94.652344 94.273438 96.675781 89.753906 96.675781 C 85.652344 96.675781 82.898438 95.042969 81.429688 93.839844 " fill-opacity="1" fill-rule="nonzero"/><path fill="#e1bc9b" d="M 75.800781 82.03125 C 75.9375 84.789062 76.660156 86.992188 74.707031 87.089844 C 73.460938 87.148438 72.34375 84.964844 72.207031 82.207031 C 72.074219 79.453125 72.972656 77.167969 74.21875 77.109375 C 75.464844 77.046875 75.667969 79.277344 75.800781 82.03125 " fill-opacity="1" fill-rule="nonzero"/><path fill="#e1bc9b" d="M 107.25 82.261719 C 107.050781 85.019531 105.882812 87.175781 104.640625 87.085938 C 102.945312 86.96875 103.492188 84.765625 103.6875 82.011719 C 103.886719 79.261719 104.101562 77.03125 105.347656 77.121094 C 106.59375 77.207031 107.445312 79.511719 107.25 82.261719 " fill-opacity="1" fill-rule="nonzero"/><path fill="#e1bc9b" d="M 104.226562 75.394531 C 104.226562 84.992188 104.226562 101.460938 89.816406 101.460938 C 75.40625 101.460938 75.40625 84.992188 75.40625 75.394531 C 75.40625 65.796875 81.855469 58.015625 89.816406 58.015625 C 97.777344 58.015625 104.226562 65.796875 104.226562 75.394531 " fill-opacity="1" fill-rule="nonzero"/><path fill="#2d3d48" d="M 75.804688 103.101562 L 81.429688 101.734375 C 81.429688 101.734375 81.105469 107.042969 89.207031 107.042969 C 96.960938 107.042969 98.332031 106.140625 98.40625 101.332031 L 104.152344 102.917969 C 110.746094 104.679688 115.332031 110.644531 115.332031 117.457031 L 115.332031 121.128906 C 115.332031 123.328125 113.546875 125.109375 111.34375 125.109375 L 68.289062 125.109375 C 66.085938 125.109375 64.300781 123.328125 64.300781 121.128906 L 64.300781 117.726562 C 64.300781 110.789062 69.050781 104.75 75.804688 103.101562 " fill-opacity="1" fill-rule="nonzero"/><path fill="#79471b" d="M 70.941406 105.859375 L 70.941406 120.246094 L 76.757812 120.246094 L 76.757812 102.585938 L 73.464844 103.003906 C 72.023438 103.183594 70.941406 104.410156 70.941406 105.859375 " fill-opacity="1" fill-rule="nonzero"/><path fill="#79471b" d="M 109.269531 105.648438 L 109.269531 120.03125 L 103.457031 120.03125 L 103.457031 102.371094 L 106.746094 102.789062 C 108.191406 102.972656 109.269531 104.195312 109.269531 105.648438 " fill-opacity="1" fill-rule="nonzero"/><g clip-path="url(#9fab7360c4)"><path fill="#79471b" d="M 106.449219 128.027344 L 73.621094 128.027344 C 71.417969 128.027344 69.632812 126.246094 69.632812 124.046875 L 69.632812 114.480469 L 110.433594 114.480469 L 110.433594 124.046875 C 110.433594 126.246094 108.648438 128.027344 106.449219 128.027344 " fill-opacity="1" fill-rule="nonzero"/></g><path fill="#f8f8f8" d="M 77.125 120.246094 L 70.574219 120.246094 L 70.574219 114.480469 L 71.308594 114.480469 L 71.308594 119.507812 L 76.386719 119.507812 L 76.386719 114.480469 L 77.125 114.480469 L 77.125 120.246094 " fill-opacity="1" fill-rule="nonzero"/><path fill="#f8f8f8" d="M 109.640625 120.246094 L 103.089844 120.246094 L 103.089844 114.480469 L 103.824219 114.480469 L 103.824219 119.507812 L 108.902344 119.507812 L 108.902344 114.480469 L 109.640625 114.480469 L 109.640625 120.246094 " fill-opacity="1" fill-rule="nonzero"/><path fill="#f8f8f8" d="M 74.957031 117.070312 C 74.957031 117.679688 74.460938 118.171875 73.847656 118.171875 C 73.238281 118.171875 72.742188 117.679688 72.742188 117.070312 C 72.742188 116.460938 73.238281 115.964844 73.847656 115.964844 C 74.460938 115.964844 74.957031 116.460938 74.957031 117.070312 " fill-opacity="1" fill-rule="nonzero"/><path fill="#f8f8f8" d="M 107.46875 117.070312 C 107.46875 117.679688 106.972656 118.171875 106.363281 118.171875 C 105.753906 118.171875 105.257812 117.679688 105.257812 117.070312 C 105.257812 116.460938 105.753906 115.964844 106.363281 115.964844 C 106.972656 115.964844 107.46875 116.460938 107.46875 117.070312 " fill-opacity="1" fill-rule="nonzero"/><path fill="#362018" d="M 104.175781 78.269531 L 103.550781 71.757812 L 103.28125 69.3125 L 103.269531 69.226562 L 103.265625 69.191406 C 103.265625 69.191406 103.242188 69.210938 103.191406 69.253906 C 103.140625 69.292969 103.066406 69.351562 102.972656 69.421875 C 102.164062 70.054688 99.789062 71.847656 97.152344 73.191406 C 95.960938 73.792969 94.714844 74.308594 93.539062 74.585938 L 94.121094 73.523438 L 95.375 71.222656 L 95.605469 70.800781 L 96.644531 68.902344 C 96.550781 68.9375 93.285156 70.128906 89.316406 71.199219 C 88.972656 71.289062 88.625 71.382812 88.273438 71.472656 C 85.488281 72.179688 82.472656 72.777344 80.023438 72.855469 C 79.296875 72.878906 78.621094 72.855469 78.015625 72.777344 L 75.417969 78.519531 C 75.417969 78.519531 74.363281 74.578125 74.28125 70.539062 C 74.265625 69.742188 74.285156 68.941406 74.363281 68.167969 C 74.371094 68.089844 74.378906 68.007812 74.386719 67.929688 C 74.386719 67.910156 74.390625 67.890625 74.394531 67.871094 C 74.476562 67.160156 74.574219 66.417969 74.726562 65.660156 C 75.5625 61.5625 78.074219 57.171875 89.011719 56.765625 C 100.445312 56.335938 103.855469 61.277344 105.074219 65.957031 C 105.28125 66.757812 105.425781 67.554688 105.535156 68.3125 C 105.539062 68.339844 105.542969 68.367188 105.546875 68.394531 C 105.605469 68.835938 105.65625 69.265625 105.699219 69.675781 C 105.742188 70.078125 105.769531 70.464844 105.78125 70.847656 C 105.921875 75.152344 104.175781 78.269531 104.175781 78.269531 " fill-opacity="1" fill-rule="nonzero"/><g clip-path="url(#f0ca219251)"><path fill="#bb853e" d="M 119.0625 69.671875 L 60.570312 69.671875 L 73.089844 65.617188 L 73.230469 65.566406 C 73.230469 64.761719 73.296875 63.972656 73.429688 63.203125 C 74.550781 56.671875 80.253906 50.105469 87.117188 50.105469 L 92.515625 50.105469 C 99.378906 50.105469 105.082031 56.671875 106.199219 63.203125 C 106.335938 63.972656 106.402344 64.761719 106.402344 65.566406 L 106.542969 65.617188 L 119.0625 69.671875 " fill-opacity="1" fill-rule="nonzero"/></g><path fill="#bfb290" d="M 106.542969 65.617188 L 73.089844 65.617188 L 73.230469 65.566406 C 73.230469 64.761719 73.296875 63.972656 73.429688 63.203125 L 106.199219 63.203125 C 106.335938 63.972656 106.402344 64.761719 106.402344 65.566406 L 106.542969 65.617188 " fill-opacity="1" fill-rule="nonzero"/></svg>