<svg xmlns="http://www.w3.org/2000/svg" xmlns:xlink="http://www.w3.org/1999/xlink" width="200" zoomAndPan="magnify" viewBox="0 0 150 149.999998" height="200" preserveAspectRatio="xMidYMid meet" version="1.0"><defs><g/><clipPath id="1cd5b51f97"><path d="M 2.816406 0.6875 L 148.316406 0.6875 L 148.316406 146.1875 L 2.816406 146.1875 Z M 2.816406 0.6875 " clip-rule="nonzero"/></clipPath><clipPath id="dd08320b7a"><path d="M 1.40625 0 L 149.15625 0 L 149.15625 147.222656 L 1.40625 147.222656 Z M 1.40625 0 " clip-rule="nonzero"/></clipPath><clipPath id="b6e9a8df3f"><path d="M 49 60.476562 L 73 60.476562 L 73 101 L 49 101 Z M 49 60.476562 " clip-rule="nonzero"/></clipPath><clipPath id="d46eb9a660"><path d="M 27 61 L 80 61 L 80 124.976562 L 27 124.976562 Z M 27 61 " clip-rule="nonzero"/></clipPath><clipPath id="95aaf02ef5"><path d="M 69 114 L 111 114 L 111 128.070312 L 69 128.070312 Z M 69 114 " clip-rule="nonzero"/></clipPath><clipPath id="1bc7f3dc8f"><path d="M 60.566406 50.070312 L 119.066406 50.070312 L 119.066406 70 L 60.566406 70 Z M 60.566406 50.070312 " clip-rule="nonzero"/></clipPath></defs><rect x="-15" width="180" fill="#ffffff" y="-15" height="179.999997" fill-opacity="1"/><rect x="-15" width="180" fill="#ffffff" y="-15" height="179.999997" fill-opacity="1"/><rect x="-15" width="180" fill="#ffffff" y="-15" height="179.999997" fill-opacity="1"/><g clip-path="url(#1cd5b51f97)"><path fill="#2637d1" d="M 75.566406 0.6875 C 35.386719 0.6875 2.816406 33.257812 2.816406 73.4375 C 2.816406 113.617188 35.386719 146.1875 75.566406 146.1875 C 115.746094 146.1875 148.316406 113.617188 148.316406 73.4375 C 148.316406 33.257812 115.746094 0.6875 75.566406 0.6875 " fill-opacity="1" fill-rule="nonzero"/></g><g clip-path="url(#dd08320b7a)"><path fill="#009245" d="M 75.28125 147.222656 C 34.46875 147.222656 1.40625 113.933594 1.40625 73.347656 C 1.40625 32.761719 34.46875 -0.527344 75.28125 -0.527344 C 116.097656 -0.527344 149.15625 32.535156 149.15625 73.347656 C 149.15625 114.160156 115.867188 147.222656 75.28125 147.222656 Z M 75.28125 4.03125 C 36.976562 4.03125 5.96875 35.042969 5.96875 73.347656 C 5.96875 111.652344 36.976562 142.660156 75.28125 142.660156 C 113.589844 142.660156 144.597656 111.652344 144.597656 73.347656 C 144.597656 35.042969 113.359375 4.03125 75.28125 4.03125 Z M 75.28125 4.03125 " fill-opacity="1" fill-rule="nonzero"/></g><g clip-path="url(#b6e9a8df3f)"><path fill="#ffcc4d" d="M 63.445312 60.511719 C 59.972656 60.511719 55.503906 63.980469 51.78125 69.5625 C 47.425781 76.09375 49.773438 80.789062 51.664062 84.566406 C 51.953125 85.144531 52.523438 85.535156 53.171875 85.59375 C 53.226562 85.597656 53.285156 85.601562 53.339844 85.601562 C 53.925781 85.601562 54.484375 85.324219 54.839844 84.851562 C 59.328125 78.863281 66.488281 69.484375 67.792969 68.175781 C 68.144531 67.824219 68.34375 67.347656 68.34375 66.851562 C 68.34375 62.175781 65.8125 60.511719 63.445312 60.511719 Z M 67.902344 77.378906 C 65.632812 77.378906 63.074219 79.5 59.34375 84.476562 C 55.359375 89.785156 54.726562 94.4375 57.289062 99.5625 C 57.574219 100.128906 58.121094 100.515625 58.75 100.585938 C 58.820312 100.597656 58.894531 100.601562 58.964844 100.601562 C 59.519531 100.601562 60.046875 100.355469 60.40625 99.925781 C 63.632812 96.058594 70.109375 88.363281 71.542969 86.925781 C 71.894531 86.574219 72.09375 86.097656 72.09375 85.601562 C 72.09375 83.566406 72.09375 77.378906 67.902344 77.378906 Z M 67.902344 77.378906 " fill-opacity="1" fill-rule="nonzero"/></g><g clip-path="url(#d46eb9a660)"><path fill="#3bb73e" d="M 79.359375 80.945312 C 78.855469 80.039062 77.710938 79.71875 76.808594 80.222656 C 63.363281 87.691406 50.960938 106.753906 46.117188 116.988281 C 47.6875 97.875 56.558594 79.40625 71.542969 64.425781 C 72.277344 63.691406 72.277344 62.507812 71.542969 61.773438 C 70.8125 61.042969 69.625 61.042969 68.890625 61.773438 C 53.957031 76.707031 44.835938 94.992188 42.628906 114.050781 C 41.363281 103.371094 40.792969 87.96875 45.675781 76.988281 C 46.097656 76.039062 45.671875 74.929688 44.726562 74.511719 C 43.777344 74.085938 42.667969 74.515625 42.25 75.460938 C 39.761719 81.054688 38.601562 87.652344 38.195312 94.230469 C 36.539062 90.695312 34.589844 87.476562 31.722656 87.476562 L 31.636719 87.476562 C 29.929688 87.476562 28.464844 88.347656 27.28125 90.710938 C 26.820312 91.636719 27.195312 92.441406 28.121094 92.902344 C 29.050781 93.367188 30.175781 92.988281 30.636719 92.066406 C 31.222656 90.898438 31.621094 90.621094 31.613281 90.582031 C 32.808594 90.949219 34.886719 95.636719 35.667969 97.410156 C 36.035156 98.238281 36.371094 98.988281 36.65625 99.566406 C 36.933594 100.121094 37.453125 100.460938 38.023438 100.558594 C 38.070312 109.851562 39.332031 118.425781 40.203125 123.226562 L 40.242188 123.433594 C 40.40625 124.339844 41.195312 124.976562 42.085938 124.976562 C 42.195312 124.976562 42.308594 124.964844 42.421875 124.945312 C 42.652344 124.902344 42.855469 124.8125 43.042969 124.699219 C 43.320312 124.859375 43.621094 124.976562 43.964844 124.976562 C 44.308594 124.976562 44.609375 124.859375 44.886719 124.699219 C 45.15625 124.859375 45.453125 124.976562 45.789062 124.976562 L 45.839844 124.976562 C 46.832031 124.976562 47.660156 124.136719 47.714844 123.136719 C 47.820312 121.191406 52.390625 111.863281 59.234375 102.433594 C 59.429688 102.402344 59.621094 102.371094 59.804688 102.277344 C 60.265625 102.050781 60.777344 101.769531 61.320312 101.464844 C 63.074219 100.496094 66 98.878906 67.144531 99.554688 C 67.425781 99.71875 68.34375 100.558594 68.34375 104.351562 C 68.34375 105.386719 69.179688 106.226562 70.21875 106.226562 C 71.253906 106.226562 72.09375 105.386719 72.09375 104.351562 C 72.09375 100.15625 71.097656 97.53125 69.050781 96.324219 C 67.582031 95.460938 65.921875 95.53125 64.289062 96 C 68.640625 90.910156 73.546875 86.316406 78.628906 83.492188 C 79.535156 82.988281 79.863281 81.851562 79.359375 80.945312 Z M 79.359375 80.945312 " fill-opacity="1" fill-rule="nonzero"/></g><g fill="#ffffff" fill-opacity="0.4"><g transform="translate(27.450148, 71.599435)"><g><path d="M 3.828125 -10.015625 C 3.242188 -8.398438 2.414062 -7.050781 1.34375 -5.96875 C 0.28125 -4.882812 -0.972656 -4.175781 -2.421875 -3.84375 C -3.867188 -3.507812 -5.425781 -3.644531 -7.09375 -4.25 C -8.25 -4.664062 -9.429688 -5.316406 -10.640625 -6.203125 C -13.210938 -8.148438 -14.8125 -10.25 -15.4375 -12.5 C -16.070312 -14.757812 -16.015625 -16.921875 -15.265625 -18.984375 C -14.867188 -20.078125 -14.351562 -20.984375 -13.71875 -21.703125 C -13.082031 -22.429688 -12.328125 -23.046875 -11.453125 -23.546875 L -11.78125 -24.5625 C -12 -25.226562 -12.117188 -25.765625 -12.140625 -26.171875 C -12.160156 -26.585938 -12.09375 -27.019531 -11.9375 -27.46875 C -11.757812 -27.957031 -11.507812 -28.304688 -11.1875 -28.515625 C -10.875 -28.722656 -10.515625 -28.753906 -10.109375 -28.609375 C -9.890625 -28.535156 -9.691406 -28.421875 -9.515625 -28.265625 L -5.578125 -24.984375 C -5.117188 -24.628906 -4.828125 -24.289062 -4.703125 -23.96875 C -4.585938 -23.65625 -4.617188 -23.257812 -4.796875 -22.78125 C -4.972656 -22.28125 -5.296875 -21.929688 -5.765625 -21.734375 C -6.242188 -21.546875 -6.988281 -21.410156 -8 -21.328125 C -9.070312 -21.179688 -9.800781 -21.015625 -10.1875 -20.828125 C -10.582031 -20.648438 -10.882812 -20.28125 -11.09375 -19.71875 C -11.382812 -18.925781 -11.175781 -17.984375 -10.46875 -16.890625 C -9.757812 -15.804688 -8.535156 -14.617188 -6.796875 -13.328125 C -5.335938 -12.210938 -4.0625 -11.457031 -2.96875 -11.0625 C -2 -10.707031 -1.210938 -10.628906 -0.609375 -10.828125 C -0.015625 -11.035156 0.394531 -11.453125 0.625 -12.078125 C 0.957031 -12.972656 1.023438 -13.785156 0.828125 -14.515625 C 0.628906 -15.253906 0.300781 -16.0625 -0.15625 -16.9375 C -0.4375 -17.476562 -0.632812 -17.90625 -0.75 -18.21875 C -0.863281 -18.53125 -0.867188 -18.820312 -0.765625 -19.09375 C -0.640625 -19.4375 -0.335938 -19.738281 0.140625 -20 C 0.628906 -20.257812 1.039062 -20.320312 1.375 -20.1875 C 1.8125 -20.039062 2.347656 -19.453125 2.984375 -18.421875 C 3.617188 -17.398438 4.0625 -16.140625 4.3125 -14.640625 C 4.5625 -13.140625 4.398438 -11.597656 3.828125 -10.015625 Z M 3.828125 -10.015625 "/></g></g></g><g fill="#ffffff" fill-opacity="0.4"><g transform="translate(33.60876, 54.129146)"><g><path d="M -5.8125 -9.9375 C -6.175781 -10.425781 -6.335938 -10.945312 -6.296875 -11.5 C -6.265625 -12.050781 -6.035156 -12.582031 -5.609375 -13.09375 L -0.984375 -18.59375 C -0.253906 -19.445312 0.445312 -19.59375 1.125 -19.03125 C 1.289062 -18.882812 1.414062 -18.75 1.5 -18.625 C 2.207031 -17.53125 2.132812 -16.472656 1.28125 -15.453125 L -3.34375 -9.953125 C -3.695312 -9.523438 -4.046875 -9.269531 -4.390625 -9.1875 C -4.742188 -9.101562 -5.082031 -9.195312 -5.40625 -9.46875 C -5.5625 -9.59375 -5.695312 -9.75 -5.8125 -9.9375 Z M -5.8125 -9.9375 "/></g></g></g><g fill="#ffffff" fill-opacity="0.4"><g transform="translate(42.761555, 42.323815)"><g><path d="M 6.796875 -27.90625 C 7.441406 -28.289062 8.03125 -28.445312 8.5625 -28.375 C 9.101562 -28.3125 9.519531 -28.03125 9.8125 -27.53125 C 9.957031 -27.28125 10.0625 -27.023438 10.125 -26.765625 L 10.890625 -23.890625 C 11.046875 -23.359375 11.035156 -22.910156 10.859375 -22.546875 C 10.691406 -22.179688 10.378906 -21.863281 9.921875 -21.59375 C 9.484375 -21.332031 9.078125 -21.210938 8.703125 -21.234375 C 8.335938 -21.265625 7.96875 -21.453125 7.59375 -21.796875 L 6.25 -23.078125 C 6.03125 -23.296875 5.835938 -23.414062 5.671875 -23.4375 C 5.515625 -23.46875 5.269531 -23.378906 4.9375 -23.171875 L 2.28125 -21.609375 L 3.921875 -15.484375 L 4.421875 -15.78125 C 4.671875 -15.925781 4.863281 -16.085938 5 -16.265625 C 5.144531 -16.453125 5.269531 -16.703125 5.375 -17.015625 L 5.78125 -18.1875 C 5.925781 -18.644531 6.082031 -19 6.25 -19.25 C 6.425781 -19.507812 6.644531 -19.710938 6.90625 -19.859375 C 7.238281 -20.066406 7.570312 -20.132812 7.90625 -20.0625 C 8.238281 -20 8.507812 -19.796875 8.71875 -19.453125 C 8.800781 -19.304688 8.878906 -19.117188 8.953125 -18.890625 L 10.171875 -14.171875 C 10.429688 -13.160156 10.210938 -12.445312 9.515625 -12.03125 C 8.953125 -11.695312 8.335938 -11.726562 7.671875 -12.125 L 6.65625 -12.734375 C 6.382812 -12.910156 6.175781 -13 6.03125 -13 C 5.882812 -13.007812 5.707031 -12.957031 5.5 -12.84375 L 4.734375 -12.390625 L 5.953125 -7.765625 C 5.984375 -7.640625 6.050781 -7.488281 6.15625 -7.3125 C 6.300781 -7.070312 6.476562 -6.90625 6.6875 -6.8125 C 6.894531 -6.71875 7.171875 -6.644531 7.515625 -6.59375 C 7.796875 -6.5625 8 -6.519531 8.125 -6.46875 C 8.257812 -6.414062 8.367188 -6.316406 8.453125 -6.171875 C 8.640625 -5.859375 8.625 -5.550781 8.40625 -5.25 C 8.195312 -4.957031 7.820312 -4.648438 7.28125 -4.328125 L 0.625 -0.375 C 0.175781 -0.101562 -0.207031 0.015625 -0.53125 -0.015625 C -0.863281 -0.046875 -1.082031 -0.234375 -1.1875 -0.578125 C -1.25 -0.765625 -1.257812 -0.929688 -1.21875 -1.078125 C -1.1875 -1.234375 -1.109375 -1.429688 -0.984375 -1.671875 C -0.796875 -2.023438 -0.664062 -2.347656 -0.59375 -2.640625 C -0.53125 -2.941406 -0.570312 -3.328125 -0.71875 -3.796875 L -4.25 -17.15625 C -4.3125 -17.425781 -4.398438 -17.660156 -4.515625 -17.859375 C -4.640625 -18.066406 -4.773438 -18.222656 -4.921875 -18.328125 C -5.066406 -18.429688 -5.242188 -18.523438 -5.453125 -18.609375 C -5.765625 -18.753906 -5.957031 -18.894531 -6.03125 -19.03125 C -6.0625 -19.082031 -6.101562 -19.1875 -6.15625 -19.34375 C -6.21875 -19.625 -6.15625 -19.882812 -5.96875 -20.125 C -5.78125 -20.363281 -5.445312 -20.625 -4.96875 -20.90625 Z M 6.796875 -27.90625 "/></g></g></g><g fill="#ffffff" fill-opacity="0.4"><g transform="translate(56.678353, 33.216426)"><g><path d="M 17.984375 -6.6875 C 17.941406 -6.40625 17.941406 -6.132812 17.984375 -5.875 C 18.023438 -5.65625 18.085938 -5.472656 18.171875 -5.328125 C 18.265625 -5.179688 18.351562 -5.066406 18.4375 -4.984375 C 18.519531 -4.898438 18.570312 -4.84375 18.59375 -4.8125 C 18.820312 -4.644531 18.957031 -4.457031 19 -4.25 C 19 -4.207031 18.992188 -4.101562 18.984375 -3.9375 C 18.953125 -3.644531 18.804688 -3.421875 18.546875 -3.265625 C 18.296875 -3.109375 17.890625 -2.984375 17.328125 -2.890625 L 10.125 -1.6875 C 9.695312 -1.613281 9.351562 -1.628906 9.09375 -1.734375 C 8.832031 -1.847656 8.6875 -2.019531 8.65625 -2.25 C 8.632812 -2.375 8.640625 -2.515625 8.671875 -2.671875 C 8.710938 -2.847656 8.78125 -2.988281 8.875 -3.09375 C 8.96875 -3.195312 9.109375 -3.320312 9.296875 -3.46875 C 9.585938 -3.71875 9.816406 -3.96875 9.984375 -4.21875 C 10.148438 -4.476562 10.257812 -4.875 10.3125 -5.40625 L 10.671875 -8.15625 L 5.9375 -7.359375 L 5.390625 -5.484375 C 5.171875 -4.679688 5.097656 -4.070312 5.171875 -3.65625 C 5.210938 -3.40625 5.285156 -3.207031 5.390625 -3.0625 C 5.503906 -2.925781 5.65625 -2.789062 5.84375 -2.65625 C 6 -2.519531 6.113281 -2.398438 6.1875 -2.296875 C 6.257812 -2.191406 6.289062 -2.039062 6.28125 -1.84375 C 6.238281 -1.539062 6.101562 -1.3125 5.875 -1.15625 C 5.644531 -1 5.257812 -0.875 4.71875 -0.78125 L 0.1875 -0.03125 C -0.289062 0.0507812 -0.664062 0.0234375 -0.9375 -0.109375 C -1.207031 -0.253906 -1.363281 -0.460938 -1.40625 -0.734375 C -1.457031 -1.066406 -1.378906 -1.34375 -1.171875 -1.5625 C -0.972656 -1.789062 -0.660156 -2.0625 -0.234375 -2.375 C 0.316406 -2.769531 0.75 -3.144531 1.0625 -3.5 C 1.382812 -3.863281 1.632812 -4.328125 1.8125 -4.890625 L 5.359375 -17.015625 C 5.898438 -18.890625 6.664062 -20.3125 7.65625 -21.28125 C 8.644531 -22.25 10.0625 -22.890625 11.90625 -23.203125 C 13.976562 -23.546875 15.648438 -23.390625 16.921875 -22.734375 C 18.203125 -22.078125 18.96875 -21 19.21875 -19.5 C 19.320312 -18.875 19.328125 -18.210938 19.234375 -17.515625 Z M 11.078125 -11.328125 L 11.78125 -16.96875 C 11.832031 -17.21875 11.832031 -17.472656 11.78125 -17.734375 C 11.71875 -18.117188 11.5625 -18.390625 11.3125 -18.546875 C 11.070312 -18.703125 10.757812 -18.75 10.375 -18.6875 C 9.894531 -18.601562 9.503906 -18.390625 9.203125 -18.046875 C 8.910156 -17.710938 8.648438 -17.15625 8.421875 -16.375 L 6.828125 -10.625 Z M 11.078125 -11.328125 "/></g></g></g><g fill="#ffffff" fill-opacity="0.4"><g transform="translate(74.767108, 29.372992)"><g><path d="M 26.28125 -8.203125 C 25.664062 -7.140625 24.835938 -6.390625 23.796875 -5.953125 C 22.765625 -5.515625 21.5625 -5.382812 20.1875 -5.5625 C 21.125 -5.238281 21.769531 -4.78125 22.125 -4.1875 C 22.488281 -3.59375 22.578125 -2.90625 22.390625 -2.125 C 22.316406 -1.832031 22.175781 -1.472656 21.96875 -1.046875 L 21.265625 0.328125 C 21.179688 0.515625 21.132812 0.648438 21.125 0.734375 C 21.050781 0.992188 21.054688 1.203125 21.140625 1.359375 C 21.234375 1.515625 21.390625 1.625 21.609375 1.6875 C 22.023438 1.789062 22.3125 1.921875 22.46875 2.078125 C 22.632812 2.242188 22.648438 2.476562 22.515625 2.78125 C 22.316406 3.226562 21.960938 3.617188 21.453125 3.953125 C 20.953125 4.296875 20.300781 4.519531 19.5 4.625 C 18.707031 4.738281 17.789062 4.664062 16.75 4.40625 C 15.4375 4.082031 14.460938 3.53125 13.828125 2.75 C 13.191406 1.96875 13.007812 1.03125 13.28125 -0.0625 C 13.375 -0.476562 13.546875 -0.910156 13.796875 -1.359375 L 14.75 -3.15625 C 14.894531 -3.394531 15.003906 -3.648438 15.078125 -3.921875 C 15.191406 -4.390625 15.113281 -4.757812 14.84375 -5.03125 C 14.570312 -5.3125 14.097656 -5.535156 13.421875 -5.703125 L 12.28125 -5.984375 L 9.703125 -1.359375 C 9.628906 -1.253906 9.570312 -1.109375 9.53125 -0.921875 C 9.457031 -0.648438 9.460938 -0.394531 9.546875 -0.15625 C 9.640625 0.0820312 9.78125 0.34375 9.96875 0.625 C 10.113281 0.800781 10.222656 0.96875 10.296875 1.125 C 10.367188 1.28125 10.390625 1.429688 10.359375 1.578125 C 10.273438 1.910156 10.050781 2.101562 9.6875 2.15625 C 9.320312 2.21875 8.832031 2.175781 8.21875 2.03125 L 0.71875 0.171875 C 0.195312 0.046875 -0.164062 -0.140625 -0.375 -0.390625 C -0.582031 -0.640625 -0.609375 -0.925781 -0.453125 -1.25 C -0.367188 -1.414062 -0.257812 -1.539062 -0.125 -1.625 C 0.0078125 -1.707031 0.207031 -1.789062 0.46875 -1.875 C 0.851562 -2 1.171875 -2.144531 1.421875 -2.3125 C 1.679688 -2.488281 1.929688 -2.789062 2.171875 -3.21875 L 8.984375 -15.21875 C 9.117188 -15.445312 9.21875 -15.679688 9.28125 -15.921875 C 9.332031 -16.140625 9.34375 -16.332031 9.3125 -16.5 C 9.28125 -16.675781 9.234375 -16.875 9.171875 -17.09375 C 9.054688 -17.40625 9.019531 -17.640625 9.0625 -17.796875 C 9.070312 -17.859375 9.113281 -17.960938 9.1875 -18.109375 C 9.332031 -18.347656 9.550781 -18.488281 9.84375 -18.53125 C 10.144531 -18.570312 10.570312 -18.523438 11.125 -18.390625 L 21.15625 -15.921875 C 22.53125 -15.578125 23.679688 -15.066406 24.609375 -14.390625 C 25.535156 -13.722656 26.179688 -12.957031 26.546875 -12.09375 C 26.910156 -11.238281 26.976562 -10.351562 26.75 -9.4375 C 26.644531 -9.007812 26.488281 -8.597656 26.28125 -8.203125 Z M 18.6875 -10.40625 C 18.90625 -10.84375 19.046875 -11.179688 19.109375 -11.421875 C 19.367188 -12.472656 18.914062 -13.140625 17.75 -13.421875 L 16.484375 -13.734375 L 13.875 -8.765625 L 15.109375 -8.453125 C 15.890625 -8.265625 16.550781 -8.300781 17.09375 -8.5625 C 17.644531 -8.832031 18.175781 -9.445312 18.6875 -10.40625 Z M 18.6875 -10.40625 "/></g></g></g><g fill="#ffffff" fill-opacity="0.4"><g transform="translate(94.754798, 32.315673)"><g><path d="M 38.25 7.265625 C 38.570312 7.554688 38.773438 7.828125 38.859375 8.078125 C 38.941406 8.335938 38.898438 8.5625 38.734375 8.75 C 38.660156 8.820312 38.546875 8.898438 38.390625 8.984375 C 38.234375 9.066406 38.078125 9.101562 37.921875 9.09375 C 37.765625 9.09375 37.554688 9.066406 37.296875 9.015625 C 36.929688 8.929688 36.597656 8.90625 36.296875 8.9375 C 36.003906 8.96875 35.648438 9.113281 35.234375 9.375 L 23.5 16.59375 C 23.25 16.726562 23.039062 16.890625 22.875 17.078125 C 22.726562 17.234375 22.628906 17.394531 22.578125 17.5625 C 22.535156 17.726562 22.488281 17.929688 22.4375 18.171875 C 22.425781 18.296875 22.40625 18.421875 22.375 18.546875 C 22.34375 18.671875 22.285156 18.78125 22.203125 18.875 C 22.171875 18.90625 22.082031 18.96875 21.9375 19.0625 C 21.707031 19.195312 21.4375 19.210938 21.125 19.109375 C 20.820312 19.003906 20.46875 18.757812 20.0625 18.375 L 14.734375 13.484375 C 14.410156 13.191406 14.207031 12.910156 14.125 12.640625 C 14.050781 12.367188 14.097656 12.144531 14.265625 11.96875 C 14.347656 11.875 14.460938 11.796875 14.609375 11.734375 C 14.753906 11.660156 14.90625 11.625 15.0625 11.625 C 15.21875 11.625 15.347656 11.632812 15.453125 11.65625 C 15.554688 11.6875 15.640625 11.703125 15.703125 11.703125 C 16.078125 11.773438 16.410156 11.800781 16.703125 11.78125 C 17.003906 11.757812 17.375 11.617188 17.8125 11.359375 L 25.15625 6.8125 L 12.59375 8.703125 C 11.5625 8.847656 10.796875 8.894531 10.296875 8.84375 C 9.796875 8.789062 9.359375 8.59375 8.984375 8.25 C 8.628906 7.914062 8.453125 7.535156 8.453125 7.109375 C 8.460938 6.691406 8.648438 6.128906 9.015625 5.421875 L 13.28125 -3.546875 L 6.234375 0.765625 C 5.984375 0.910156 5.773438 1.078125 5.609375 1.265625 C 5.441406 1.441406 5.328125 1.613281 5.265625 1.78125 C 5.210938 1.957031 5.175781 2.164062 5.15625 2.40625 C 5.113281 2.71875 5.039062 2.9375 4.9375 3.0625 C 4.90625 3.09375 4.816406 3.15625 4.671875 3.25 C 4.421875 3.40625 4.148438 3.425781 3.859375 3.3125 C 3.578125 3.207031 3.222656 2.957031 2.796875 2.5625 L 0.90625 0.828125 C 0.582031 0.535156 0.382812 0.257812 0.3125 0 C 0.238281 -0.269531 0.28125 -0.492188 0.4375 -0.671875 C 0.53125 -0.753906 0.648438 -0.832031 0.796875 -0.90625 C 1.003906 -1.019531 1.210938 -1.054688 1.421875 -1.015625 C 1.640625 -0.984375 1.773438 -0.960938 1.828125 -0.953125 C 2.210938 -0.878906 2.550781 -0.851562 2.84375 -0.875 C 3.132812 -0.894531 3.507812 -1.039062 3.96875 -1.3125 L 15.734375 -8.5625 L 16.46875 -10.109375 C 16.59375 -10.410156 16.753906 -10.664062 16.953125 -10.875 C 17.203125 -11.144531 17.46875 -11.253906 17.75 -11.203125 C 18.039062 -11.160156 18.367188 -10.976562 18.734375 -10.65625 L 22.25 -7.421875 C 22.707031 -7.003906 22.953125 -6.597656 22.984375 -6.203125 C 23.023438 -5.804688 22.894531 -5.300781 22.59375 -4.6875 L 17.9375 4.921875 L 31.109375 2.90625 C 31.953125 2.789062 32.632812 2.828125 33.15625 3.015625 C 33.675781 3.210938 34.25 3.59375 34.875 4.15625 Z M 38.25 7.265625 "/></g></g></g><g fill="#ffffff" fill-opacity="0.4"><g transform="translate(115.222096, 51.626094)"><g><path d="M 23.390625 3.796875 C 23.773438 4.867188 24.003906 5.910156 24.078125 6.921875 C 24.148438 7.929688 24.082031 9.019531 23.875 10.1875 L 24.640625 10.640625 C 25.191406 10.972656 25.585938 11.265625 25.828125 11.515625 C 26.066406 11.765625 26.257812 12.082031 26.40625 12.46875 C 26.570312 12.9375 26.601562 13.34375 26.5 13.6875 C 26.394531 14.03125 26.144531 14.273438 25.75 14.421875 C 25.601562 14.472656 25.429688 14.5 25.234375 14.5 L 20.796875 14.71875 C 20.273438 14.757812 19.882812 14.710938 19.625 14.578125 C 19.363281 14.441406 19.15625 14.171875 19 13.765625 C 18.851562 13.347656 18.851562 12.929688 19 12.515625 C 19.144531 12.097656 19.5 11.410156 20.0625 10.453125 C 20.59375 9.492188 20.914062 8.675781 21.03125 8 C 21.144531 7.332031 21.097656 6.710938 20.890625 6.140625 C 20.742188 5.710938 20.472656 5.40625 20.078125 5.21875 C 19.691406 5.03125 19.296875 5.007812 18.890625 5.15625 C 18.429688 5.320312 18.085938 5.707031 17.859375 6.3125 C 17.628906 6.914062 17.394531 7.820312 17.15625 9.03125 C 16.925781 10.25 16.6875 11.273438 16.4375 12.109375 C 16.1875 12.941406 15.785156 13.71875 15.234375 14.4375 C 14.679688 15.164062 13.945312 15.695312 13.03125 16.03125 C 12.4375 16.238281 11.804688 16.359375 11.140625 16.390625 C 9.429688 16.484375 7.929688 16.007812 6.640625 14.96875 C 5.347656 13.925781 4.382812 12.519531 3.75 10.75 C 3.257812 9.414062 3.003906 8.234375 2.984375 7.203125 C 2.972656 6.179688 3.160156 5.070312 3.546875 3.875 L 2.3125 3.140625 C 1.726562 2.796875 1.304688 2.492188 1.046875 2.234375 C 0.796875 1.972656 0.601562 1.65625 0.46875 1.28125 C 0.300781 0.832031 0.273438 0.4375 0.390625 0.09375 C 0.503906 -0.238281 0.75 -0.472656 1.125 -0.609375 C 1.320312 -0.671875 1.539062 -0.703125 1.78125 -0.703125 L 6.609375 -0.84375 C 7.160156 -0.875 7.59375 -0.789062 7.90625 -0.59375 C 8.226562 -0.40625 8.460938 -0.0976562 8.609375 0.328125 C 8.773438 0.765625 8.765625 1.21875 8.578125 1.6875 C 8.398438 2.164062 8.007812 2.84375 7.40625 3.71875 C 6.738281 4.65625 6.328125 5.453125 6.171875 6.109375 C 6.015625 6.765625 6.070312 7.457031 6.34375 8.1875 C 6.53125 8.707031 6.753906 9.078125 7.015625 9.296875 C 7.285156 9.515625 7.625 9.617188 8.03125 9.609375 C 8.132812 9.609375 8.285156 9.578125 8.484375 9.515625 C 8.941406 9.347656 9.285156 8.972656 9.515625 8.390625 C 9.742188 7.804688 9.957031 6.953125 10.15625 5.828125 C 10.394531 4.617188 10.640625 3.617188 10.890625 2.828125 C 11.148438 2.035156 11.554688 1.285156 12.109375 0.578125 C 12.660156 -0.128906 13.414062 -0.660156 14.375 -1.015625 C 15.050781 -1.253906 15.753906 -1.382812 16.484375 -1.40625 C 17.972656 -1.476562 19.347656 -1.035156 20.609375 -0.078125 C 21.867188 0.878906 22.796875 2.171875 23.390625 3.796875 Z M 23.390625 3.796875 "/></g></g></g><g fill="#f4f4f4" fill-opacity="1"><g transform="translate(26.660179, 70.809473)"><g><path d="M 3.828125 -10.015625 C 3.242188 -8.398438 2.414062 -7.050781 1.34375 -5.96875 C 0.28125 -4.882812 -0.972656 -4.175781 -2.421875 -3.84375 C -3.867188 -3.507812 -5.425781 -3.644531 -7.09375 -4.25 C -8.25 -4.664062 -9.429688 -5.316406 -10.640625 -6.203125 C -13.210938 -8.148438 -14.8125 -10.25 -15.4375 -12.5 C -16.070312 -14.757812 -16.015625 -16.921875 -15.265625 -18.984375 C -14.867188 -20.078125 -14.351562 -20.984375 -13.71875 -21.703125 C -13.082031 -22.429688 -12.328125 -23.046875 -11.453125 -23.546875 L -11.78125 -24.5625 C -12 -25.226562 -12.117188 -25.765625 -12.140625 -26.171875 C -12.160156 -26.585938 -12.09375 -27.019531 -11.9375 -27.46875 C -11.757812 -27.957031 -11.507812 -28.304688 -11.1875 -28.515625 C -10.875 -28.722656 -10.515625 -28.753906 -10.109375 -28.609375 C -9.890625 -28.535156 -9.691406 -28.421875 -9.515625 -28.265625 L -5.578125 -24.984375 C -5.117188 -24.628906 -4.828125 -24.289062 -4.703125 -23.96875 C -4.585938 -23.65625 -4.617188 -23.257812 -4.796875 -22.78125 C -4.972656 -22.28125 -5.296875 -21.929688 -5.765625 -21.734375 C -6.242188 -21.546875 -6.988281 -21.410156 -8 -21.328125 C -9.070312 -21.179688 -9.800781 -21.015625 -10.1875 -20.828125 C -10.582031 -20.648438 -10.882812 -20.28125 -11.09375 -19.71875 C -11.382812 -18.925781 -11.175781 -17.984375 -10.46875 -16.890625 C -9.757812 -15.804688 -8.535156 -14.617188 -6.796875 -13.328125 C -5.335938 -12.210938 -4.0625 -11.457031 -2.96875 -11.0625 C -2 -10.707031 -1.210938 -10.628906 -0.609375 -10.828125 C -0.015625 -11.035156 0.394531 -11.453125 0.625 -12.078125 C 0.957031 -12.972656 1.023438 -13.785156 0.828125 -14.515625 C 0.628906 -15.253906 0.300781 -16.0625 -0.15625 -16.9375 C -0.4375 -17.476562 -0.632812 -17.90625 -0.75 -18.21875 C -0.863281 -18.53125 -0.867188 -18.820312 -0.765625 -19.09375 C -0.640625 -19.4375 -0.335938 -19.738281 0.140625 -20 C 0.628906 -20.257812 1.039062 -20.320312 1.375 -20.1875 C 1.8125 -20.039062 2.347656 -19.453125 2.984375 -18.421875 C 3.617188 -17.398438 4.0625 -16.140625 4.3125 -14.640625 C 4.5625 -13.140625 4.398438 -11.597656 3.828125 -10.015625 Z M 3.828125 -10.015625 "/></g></g></g><g fill="#f4f4f4" fill-opacity="1"><g transform="translate(32.818792, 53.339177)"><g><path d="M -5.8125 -9.9375 C -6.175781 -10.425781 -6.335938 -10.945312 -6.296875 -11.5 C -6.265625 -12.050781 -6.035156 -12.582031 -5.609375 -13.09375 L -0.984375 -18.59375 C -0.253906 -19.445312 0.445312 -19.59375 1.125 -19.03125 C 1.289062 -18.882812 1.414062 -18.75 1.5 -18.625 C 2.207031 -17.53125 2.132812 -16.472656 1.28125 -15.453125 L -3.34375 -9.953125 C -3.695312 -9.523438 -4.046875 -9.269531 -4.390625 -9.1875 C -4.742188 -9.101562 -5.082031 -9.195312 -5.40625 -9.46875 C -5.5625 -9.59375 -5.695312 -9.75 -5.8125 -9.9375 Z M -5.8125 -9.9375 "/></g></g></g><g fill="#f4f4f4" fill-opacity="1"><g transform="translate(41.971586, 41.533849)"><g><path d="M 6.796875 -27.90625 C 7.441406 -28.289062 8.03125 -28.445312 8.5625 -28.375 C 9.101562 -28.3125 9.519531 -28.03125 9.8125 -27.53125 C 9.957031 -27.28125 10.0625 -27.023438 10.125 -26.765625 L 10.890625 -23.890625 C 11.046875 -23.359375 11.035156 -22.910156 10.859375 -22.546875 C 10.691406 -22.179688 10.378906 -21.863281 9.921875 -21.59375 C 9.484375 -21.332031 9.078125 -21.210938 8.703125 -21.234375 C 8.335938 -21.265625 7.96875 -21.453125 7.59375 -21.796875 L 6.25 -23.078125 C 6.03125 -23.296875 5.835938 -23.414062 5.671875 -23.4375 C 5.515625 -23.46875 5.269531 -23.378906 4.9375 -23.171875 L 2.28125 -21.609375 L 3.921875 -15.484375 L 4.421875 -15.78125 C 4.671875 -15.925781 4.863281 -16.085938 5 -16.265625 C 5.144531 -16.453125 5.269531 -16.703125 5.375 -17.015625 L 5.78125 -18.1875 C 5.925781 -18.644531 6.082031 -19 6.25 -19.25 C 6.425781 -19.507812 6.644531 -19.710938 6.90625 -19.859375 C 7.238281 -20.066406 7.570312 -20.132812 7.90625 -20.0625 C 8.238281 -20 8.507812 -19.796875 8.71875 -19.453125 C 8.800781 -19.304688 8.878906 -19.117188 8.953125 -18.890625 L 10.171875 -14.171875 C 10.429688 -13.160156 10.210938 -12.445312 9.515625 -12.03125 C 8.953125 -11.695312 8.335938 -11.726562 7.671875 -12.125 L 6.65625 -12.734375 C 6.382812 -12.910156 6.175781 -13 6.03125 -13 C 5.882812 -13.007812 5.707031 -12.957031 5.5 -12.84375 L 4.734375 -12.390625 L 5.953125 -7.765625 C 5.984375 -7.640625 6.050781 -7.488281 6.15625 -7.3125 C 6.300781 -7.070312 6.476562 -6.90625 6.6875 -6.8125 C 6.894531 -6.71875 7.171875 -6.644531 7.515625 -6.59375 C 7.796875 -6.5625 8 -6.519531 8.125 -6.46875 C 8.257812 -6.414062 8.367188 -6.316406 8.453125 -6.171875 C 8.640625 -5.859375 8.625 -5.550781 8.40625 -5.25 C 8.195312 -4.957031 7.820312 -4.648438 7.28125 -4.328125 L 0.625 -0.375 C 0.175781 -0.101562 -0.207031 0.015625 -0.53125 -0.015625 C -0.863281 -0.046875 -1.082031 -0.234375 -1.1875 -0.578125 C -1.25 -0.765625 -1.257812 -0.929688 -1.21875 -1.078125 C -1.1875 -1.234375 -1.109375 -1.429688 -0.984375 -1.671875 C -0.796875 -2.023438 -0.664062 -2.347656 -0.59375 -2.640625 C -0.53125 -2.941406 -0.570312 -3.328125 -0.71875 -3.796875 L -4.25 -17.15625 C -4.3125 -17.425781 -4.398438 -17.660156 -4.515625 -17.859375 C -4.640625 -18.066406 -4.773438 -18.222656 -4.921875 -18.328125 C -5.066406 -18.429688 -5.242188 -18.523438 -5.453125 -18.609375 C -5.765625 -18.753906 -5.957031 -18.894531 -6.03125 -19.03125 C -6.0625 -19.082031 -6.101562 -19.1875 -6.15625 -19.34375 C -6.21875 -19.625 -6.15625 -19.882812 -5.96875 -20.125 C -5.78125 -20.363281 -5.445312 -20.625 -4.96875 -20.90625 Z M 6.796875 -27.90625 "/></g></g></g><g fill="#f4f4f4" fill-opacity="1"><g transform="translate(55.888381, 32.426459)"><g><path d="M 17.984375 -6.6875 C 17.941406 -6.40625 17.941406 -6.132812 17.984375 -5.875 C 18.023438 -5.65625 18.085938 -5.472656 18.171875 -5.328125 C 18.265625 -5.179688 18.351562 -5.066406 18.4375 -4.984375 C 18.519531 -4.898438 18.570312 -4.84375 18.59375 -4.8125 C 18.820312 -4.644531 18.957031 -4.457031 19 -4.25 C 19 -4.207031 18.992188 -4.101562 18.984375 -3.9375 C 18.953125 -3.644531 18.804688 -3.421875 18.546875 -3.265625 C 18.296875 -3.109375 17.890625 -2.984375 17.328125 -2.890625 L 10.125 -1.6875 C 9.695312 -1.613281 9.351562 -1.628906 9.09375 -1.734375 C 8.832031 -1.847656 8.6875 -2.019531 8.65625 -2.25 C 8.632812 -2.375 8.640625 -2.515625 8.671875 -2.671875 C 8.710938 -2.847656 8.78125 -2.988281 8.875 -3.09375 C 8.96875 -3.195312 9.109375 -3.320312 9.296875 -3.46875 C 9.585938 -3.71875 9.816406 -3.96875 9.984375 -4.21875 C 10.148438 -4.476562 10.257812 -4.875 10.3125 -5.40625 L 10.671875 -8.15625 L 5.9375 -7.359375 L 5.390625 -5.484375 C 5.171875 -4.679688 5.097656 -4.070312 5.171875 -3.65625 C 5.210938 -3.40625 5.285156 -3.207031 5.390625 -3.0625 C 5.503906 -2.925781 5.65625 -2.789062 5.84375 -2.65625 C 6 -2.519531 6.113281 -2.398438 6.1875 -2.296875 C 6.257812 -2.191406 6.289062 -2.039062 6.28125 -1.84375 C 6.238281 -1.539062 6.101562 -1.3125 5.875 -1.15625 C 5.644531 -1 5.257812 -0.875 4.71875 -0.78125 L 0.1875 -0.03125 C -0.289062 0.0507812 -0.664062 0.0234375 -0.9375 -0.109375 C -1.207031 -0.253906 -1.363281 -0.460938 -1.40625 -0.734375 C -1.457031 -1.066406 -1.378906 -1.34375 -1.171875 -1.5625 C -0.972656 -1.789062 -0.660156 -2.0625 -0.234375 -2.375 C 0.316406 -2.769531 0.75 -3.144531 1.0625 -3.5 C 1.382812 -3.863281 1.632812 -4.328125 1.8125 -4.890625 L 5.359375 -17.015625 C 5.898438 -18.890625 6.664062 -20.3125 7.65625 -21.28125 C 8.644531 -22.25 10.0625 -22.890625 11.90625 -23.203125 C 13.976562 -23.546875 15.648438 -23.390625 16.921875 -22.734375 C 18.203125 -22.078125 18.96875 -21 19.21875 -19.5 C 19.320312 -18.875 19.328125 -18.210938 19.234375 -17.515625 Z M 11.078125 -11.328125 L 11.78125 -16.96875 C 11.832031 -17.21875 11.832031 -17.472656 11.78125 -17.734375 C 11.71875 -18.117188 11.5625 -18.390625 11.3125 -18.546875 C 11.070312 -18.703125 10.757812 -18.75 10.375 -18.6875 C 9.894531 -18.601562 9.503906 -18.390625 9.203125 -18.046875 C 8.910156 -17.710938 8.648438 -17.15625 8.421875 -16.375 L 6.828125 -10.625 Z M 11.078125 -11.328125 "/></g></g></g><g fill="#f4f4f4" fill-opacity="1"><g transform="translate(73.977138, 28.583026)"><g><path d="M 26.28125 -8.203125 C 25.664062 -7.140625 24.835938 -6.390625 23.796875 -5.953125 C 22.765625 -5.515625 21.5625 -5.382812 20.1875 -5.5625 C 21.125 -5.238281 21.769531 -4.78125 22.125 -4.1875 C 22.488281 -3.59375 22.578125 -2.90625 22.390625 -2.125 C 22.316406 -1.832031 22.175781 -1.472656 21.96875 -1.046875 L 21.265625 0.328125 C 21.179688 0.515625 21.132812 0.648438 21.125 0.734375 C 21.050781 0.992188 21.054688 1.203125 21.140625 1.359375 C 21.234375 1.515625 21.390625 1.625 21.609375 1.6875 C 22.023438 1.789062 22.3125 1.921875 22.46875 2.078125 C 22.632812 2.242188 22.648438 2.476562 22.515625 2.78125 C 22.316406 3.226562 21.960938 3.617188 21.453125 3.953125 C 20.953125 4.296875 20.300781 4.519531 19.5 4.625 C 18.707031 4.738281 17.789062 4.664062 16.75 4.40625 C 15.4375 4.082031 14.460938 3.53125 13.828125 2.75 C 13.191406 1.96875 13.007812 1.03125 13.28125 -0.0625 C 13.375 -0.476562 13.546875 -0.910156 13.796875 -1.359375 L 14.75 -3.15625 C 14.894531 -3.394531 15.003906 -3.648438 15.078125 -3.921875 C 15.191406 -4.390625 15.113281 -4.757812 14.84375 -5.03125 C 14.570312 -5.3125 14.097656 -5.535156 13.421875 -5.703125 L 12.28125 -5.984375 L 9.703125 -1.359375 C 9.628906 -1.253906 9.570312 -1.109375 9.53125 -0.921875 C 9.457031 -0.648438 9.460938 -0.394531 9.546875 -0.15625 C 9.640625 0.0820312 9.78125 0.34375 9.96875 0.625 C 10.113281 0.800781 10.222656 0.96875 10.296875 1.125 C 10.367188 1.28125 10.390625 1.429688 10.359375 1.578125 C 10.273438 1.910156 10.050781 2.101562 9.6875 2.15625 C 9.320312 2.21875 8.832031 2.175781 8.21875 2.03125 L 0.71875 0.171875 C 0.195312 0.046875 -0.164062 -0.140625 -0.375 -0.390625 C -0.582031 -0.640625 -0.609375 -0.925781 -0.453125 -1.25 C -0.367188 -1.414062 -0.257812 -1.539062 -0.125 -1.625 C 0.0078125 -1.707031 0.207031 -1.789062 0.46875 -1.875 C 0.851562 -2 1.171875 -2.144531 1.421875 -2.3125 C 1.679688 -2.488281 1.929688 -2.789062 2.171875 -3.21875 L 8.984375 -15.21875 C 9.117188 -15.445312 9.21875 -15.679688 9.28125 -15.921875 C 9.332031 -16.140625 9.34375 -16.332031 9.3125 -16.5 C 9.28125 -16.675781 9.234375 -16.875 9.171875 -17.09375 C 9.054688 -17.40625 9.019531 -17.640625 9.0625 -17.796875 C 9.070312 -17.859375 9.113281 -17.960938 9.1875 -18.109375 C 9.332031 -18.347656 9.550781 -18.488281 9.84375 -18.53125 C 10.144531 -18.570312 10.570312 -18.523438 11.125 -18.390625 L 21.15625 -15.921875 C 22.53125 -15.578125 23.679688 -15.066406 24.609375 -14.390625 C 25.535156 -13.722656 26.179688 -12.957031 26.546875 -12.09375 C 26.910156 -11.238281 26.976562 -10.351562 26.75 -9.4375 C 26.644531 -9.007812 26.488281 -8.597656 26.28125 -8.203125 Z M 18.6875 -10.40625 C 18.90625 -10.84375 19.046875 -11.179688 19.109375 -11.421875 C 19.367188 -12.472656 18.914062 -13.140625 17.75 -13.421875 L 16.484375 -13.734375 L 13.875 -8.765625 L 15.109375 -8.453125 C 15.890625 -8.265625 16.550781 -8.300781 17.09375 -8.5625 C 17.644531 -8.832031 18.175781 -9.445312 18.6875 -10.40625 Z M 18.6875 -10.40625 "/></g></g></g><g fill="#f4f4f4" fill-opacity="1"><g transform="translate(93.964835, 31.525707)"><g><path d="M 38.25 7.265625 C 38.570312 7.554688 38.773438 7.828125 38.859375 8.078125 C 38.941406 8.335938 38.898438 8.5625 38.734375 8.75 C 38.660156 8.820312 38.546875 8.898438 38.390625 8.984375 C 38.234375 9.066406 38.078125 9.101562 37.921875 9.09375 C 37.765625 9.09375 37.554688 9.066406 37.296875 9.015625 C 36.929688 8.929688 36.597656 8.90625 36.296875 8.9375 C 36.003906 8.96875 35.648438 9.113281 35.234375 9.375 L 23.5 16.59375 C 23.25 16.726562 23.039062 16.890625 22.875 17.078125 C 22.726562 17.234375 22.628906 17.394531 22.578125 17.5625 C 22.535156 17.726562 22.488281 17.929688 22.4375 18.171875 C 22.425781 18.296875 22.40625 18.421875 22.375 18.546875 C 22.34375 18.671875 22.285156 18.78125 22.203125 18.875 C 22.171875 18.90625 22.082031 18.96875 21.9375 19.0625 C 21.707031 19.195312 21.4375 19.210938 21.125 19.109375 C 20.820312 19.003906 20.46875 18.757812 20.0625 18.375 L 14.734375 13.484375 C 14.410156 13.191406 14.207031 12.910156 14.125 12.640625 C 14.050781 12.367188 14.097656 12.144531 14.265625 11.96875 C 14.347656 11.875 14.460938 11.796875 14.609375 11.734375 C 14.753906 11.660156 14.90625 11.625 15.0625 11.625 C 15.21875 11.625 15.347656 11.632812 15.453125 11.65625 C 15.554688 11.6875 15.640625 11.703125 15.703125 11.703125 C 16.078125 11.773438 16.410156 11.800781 16.703125 11.78125 C 17.003906 11.757812 17.375 11.617188 17.8125 11.359375 L 25.15625 6.8125 L 12.59375 8.703125 C 11.5625 8.847656 10.796875 8.894531 10.296875 8.84375 C 9.796875 8.789062 9.359375 8.59375 8.984375 8.25 C 8.628906 7.914062 8.453125 7.535156 8.453125 7.109375 C 8.460938 6.691406 8.648438 6.128906 9.015625 5.421875 L 13.28125 -3.546875 L 6.234375 0.765625 C 5.984375 0.910156 5.773438 1.078125 5.609375 1.265625 C 5.441406 1.441406 5.328125 1.613281 5.265625 1.78125 C 5.210938 1.957031 5.175781 2.164062 5.15625 2.40625 C 5.113281 2.71875 5.039062 2.9375 4.9375 3.0625 C 4.90625 3.09375 4.816406 3.15625 4.671875 3.25 C 4.421875 3.40625 4.148438 3.425781 3.859375 3.3125 C 3.578125 3.207031 3.222656 2.957031 2.796875 2.5625 L 0.90625 0.828125 C 0.582031 0.535156 0.382812 0.257812 0.3125 0 C 0.238281 -0.269531 0.28125 -0.492188 0.4375 -0.671875 C 0.53125 -0.753906 0.648438 -0.832031 0.796875 -0.90625 C 1.003906 -1.019531 1.210938 -1.054688 1.421875 -1.015625 C 1.640625 -0.984375 1.773438 -0.960938 1.828125 -0.953125 C 2.210938 -0.878906 2.550781 -0.851562 2.84375 -0.875 C 3.132812 -0.894531 3.507812 -1.039062 3.96875 -1.3125 L 15.734375 -8.5625 L 16.46875 -10.109375 C 16.59375 -10.410156 16.753906 -10.664062 16.953125 -10.875 C 17.203125 -11.144531 17.46875 -11.253906 17.75 -11.203125 C 18.039062 -11.160156 18.367188 -10.976562 18.734375 -10.65625 L 22.25 -7.421875 C 22.707031 -7.003906 22.953125 -6.597656 22.984375 -6.203125 C 23.023438 -5.804688 22.894531 -5.300781 22.59375 -4.6875 L 17.9375 4.921875 L 31.109375 2.90625 C 31.953125 2.789062 32.632812 2.828125 33.15625 3.015625 C 33.675781 3.210938 34.25 3.59375 34.875 4.15625 Z M 38.25 7.265625 "/></g></g></g><g fill="#f4f4f4" fill-opacity="1"><g transform="translate(114.432133, 50.83613)"><g><path d="M 23.390625 3.796875 C 23.773438 4.867188 24.003906 5.910156 24.078125 6.921875 C 24.148438 7.929688 24.082031 9.019531 23.875 10.1875 L 24.640625 10.640625 C 25.191406 10.972656 25.585938 11.265625 25.828125 11.515625 C 26.066406 11.765625 26.257812 12.082031 26.40625 12.46875 C 26.570312 12.9375 26.601562 13.34375 26.5 13.6875 C 26.394531 14.03125 26.144531 14.273438 25.75 14.421875 C 25.601562 14.472656 25.429688 14.5 25.234375 14.5 L 20.796875 14.71875 C 20.273438 14.757812 19.882812 14.710938 19.625 14.578125 C 19.363281 14.441406 19.15625 14.171875 19 13.765625 C 18.851562 13.347656 18.851562 12.929688 19 12.515625 C 19.144531 12.097656 19.5 11.410156 20.0625 10.453125 C 20.59375 9.492188 20.914062 8.675781 21.03125 8 C 21.144531 7.332031 21.097656 6.710938 20.890625 6.140625 C 20.742188 5.710938 20.472656 5.40625 20.078125 5.21875 C 19.691406 5.03125 19.296875 5.007812 18.890625 5.15625 C 18.429688 5.320312 18.085938 5.707031 17.859375 6.3125 C 17.628906 6.914062 17.394531 7.820312 17.15625 9.03125 C 16.925781 10.25 16.6875 11.273438 16.4375 12.109375 C 16.1875 12.941406 15.785156 13.71875 15.234375 14.4375 C 14.679688 15.164062 13.945312 15.695312 13.03125 16.03125 C 12.4375 16.238281 11.804688 16.359375 11.140625 16.390625 C 9.429688 16.484375 7.929688 16.007812 6.640625 14.96875 C 5.347656 13.925781 4.382812 12.519531 3.75 10.75 C 3.257812 9.414062 3.003906 8.234375 2.984375 7.203125 C 2.972656 6.179688 3.160156 5.070312 3.546875 3.875 L 2.3125 3.140625 C 1.726562 2.796875 1.304688 2.492188 1.046875 2.234375 C 0.796875 1.972656 0.601562 1.65625 0.46875 1.28125 C 0.300781 0.832031 0.273438 0.4375 0.390625 0.09375 C 0.503906 -0.238281 0.75 -0.472656 1.125 -0.609375 C 1.320312 -0.671875 1.539062 -0.703125 1.78125 -0.703125 L 6.609375 -0.84375 C 7.160156 -0.875 7.59375 -0.789062 7.90625 -0.59375 C 8.226562 -0.40625 8.460938 -0.0976562 8.609375 0.328125 C 8.773438 0.765625 8.765625 1.21875 8.578125 1.6875 C 8.398438 2.164062 8.007812 2.84375 7.40625 3.71875 C 6.738281 4.65625 6.328125 5.453125 6.171875 6.109375 C 6.015625 6.765625 6.070312 7.457031 6.34375 8.1875 C 6.53125 8.707031 6.753906 9.078125 7.015625 9.296875 C 7.285156 9.515625 7.625 9.617188 8.03125 9.609375 C 8.132812 9.609375 8.285156 9.578125 8.484375 9.515625 C 8.941406 9.347656 9.285156 8.972656 9.515625 8.390625 C 9.742188 7.804688 9.957031 6.953125 10.15625 5.828125 C 10.394531 4.617188 10.640625 3.617188 10.890625 2.828125 C 11.148438 2.035156 11.554688 1.285156 12.109375 0.578125 C 12.660156 -0.128906 13.414062 -0.660156 14.375 -1.015625 C 15.050781 -1.253906 15.753906 -1.382812 16.484375 -1.40625 C 17.972656 -1.476562 19.347656 -1.035156 20.609375 -0.078125 C 21.867188 0.878906 22.796875 2.171875 23.390625 3.796875 Z M 23.390625 3.796875 "/></g></g></g><path fill="#d6a887" d="M 81.429688 93.839844 L 81.429688 105.082031 C 81.445312 105.21875 81.957031 109.667969 89.738281 109.386719 C 89.820312 109.382812 98.035156 109.046875 98.316406 104.480469 L 98.640625 93.398438 C 97.238281 94.652344 94.273438 96.675781 89.753906 96.675781 C 85.652344 96.675781 82.898438 95.042969 81.429688 93.839844 " fill-opacity="1" fill-rule="nonzero"/><path fill="#e1bc9b" d="M 75.800781 82.03125 C 75.9375 84.789062 76.660156 86.992188 74.707031 87.089844 C 73.460938 87.148438 72.34375 84.964844 72.207031 82.207031 C 72.074219 79.453125 72.972656 77.167969 74.21875 77.109375 C 75.464844 77.046875 75.667969 79.277344 75.800781 82.03125 " fill-opacity="1" fill-rule="nonzero"/><path fill="#e1bc9b" d="M 107.25 82.261719 C 107.050781 85.019531 105.882812 87.175781 104.640625 87.085938 C 102.945312 86.96875 103.492188 84.765625 103.6875 82.011719 C 103.886719 79.261719 104.101562 77.03125 105.347656 77.121094 C 106.59375 77.207031 107.445312 79.511719 107.25 82.261719 " fill-opacity="1" fill-rule="nonzero"/><path fill="#e1bc9b" d="M 104.226562 75.394531 C 104.226562 84.992188 104.226562 101.460938 89.816406 101.460938 C 75.40625 101.460938 75.40625 84.992188 75.40625 75.394531 C 75.40625 65.796875 81.855469 58.015625 89.816406 58.015625 C 97.777344 58.015625 104.226562 65.796875 104.226562 75.394531 " fill-opacity="1" fill-rule="nonzero"/><path fill="#2d3d48" d="M 75.804688 103.101562 L 81.429688 101.734375 C 81.429688 101.734375 81.105469 107.042969 89.207031 107.042969 C 96.960938 107.042969 98.332031 106.140625 98.40625 101.332031 L 104.152344 102.917969 C 110.746094 104.679688 115.332031 110.644531 115.332031 117.457031 L 115.332031 121.128906 C 115.332031 123.328125 113.546875 125.109375 111.34375 125.109375 L 68.289062 125.109375 C 66.085938 125.109375 64.300781 123.328125 64.300781 121.128906 L 64.300781 117.726562 C 64.300781 110.789062 69.050781 104.75 75.804688 103.101562 " fill-opacity="1" fill-rule="nonzero"/><path fill="#79471b" d="M 70.941406 105.859375 L 70.941406 120.246094 L 76.757812 120.246094 L 76.757812 102.585938 L 73.464844 103.003906 C 72.023438 103.183594 70.941406 104.410156 70.941406 105.859375 " fill-opacity="1" fill-rule="nonzero"/><path fill="#79471b" d="M 109.269531 105.648438 L 109.269531 120.03125 L 103.457031 120.03125 L 103.457031 102.371094 L 106.746094 102.789062 C 108.191406 102.972656 109.269531 104.195312 109.269531 105.648438 " fill-opacity="1" fill-rule="nonzero"/><g clip-path="url(#95aaf02ef5)"><path fill="#79471b" d="M 106.449219 128.027344 L 73.621094 128.027344 C 71.417969 128.027344 69.632812 126.246094 69.632812 124.046875 L 69.632812 114.480469 L 110.433594 114.480469 L 110.433594 124.046875 C 110.433594 126.246094 108.648438 128.027344 106.449219 128.027344 " fill-opacity="1" fill-rule="nonzero"/></g><path fill="#f8f8f8" d="M 77.125 120.246094 L 70.574219 120.246094 L 70.574219 114.480469 L 71.308594 114.480469 L 71.308594 119.507812 L 76.386719 119.507812 L 76.386719 114.480469 L 77.125 114.480469 L 77.125 120.246094 " fill-opacity="1" fill-rule="nonzero"/><path fill="#f8f8f8" d="M 109.640625 120.246094 L 103.089844 120.246094 L 103.089844 114.480469 L 103.824219 114.480469 L 103.824219 119.507812 L 108.902344 119.507812 L 108.902344 114.480469 L 109.640625 114.480469 L 109.640625 120.246094 " fill-opacity="1" fill-rule="nonzero"/><path fill="#f8f8f8" d="M 74.957031 117.070312 C 74.957031 117.679688 74.460938 118.171875 73.847656 118.171875 C 73.238281 118.171875 72.742188 117.679688 72.742188 117.070312 C 72.742188 116.460938 73.238281 115.964844 73.847656 115.964844 C 74.460938 115.964844 74.957031 116.460938 74.957031 117.070312 " fill-opacity="1" fill-rule="nonzero"/><path fill="#f8f8f8" d="M 107.46875 117.070312 C 107.46875 117.679688 106.972656 118.171875 106.363281 118.171875 C 105.753906 118.171875 105.257812 117.679688 105.257812 117.070312 C 105.257812 116.460938 105.753906 115.964844 106.363281 115.964844 C 106.972656 115.964844 107.46875 116.460938 107.46875 117.070312 " fill-opacity="1" fill-rule="nonzero"/><path fill="#362018" d="M 104.175781 78.269531 L 103.550781 71.757812 L 103.28125 69.3125 L 103.269531 69.226562 L 103.265625 69.191406 C 103.265625 69.191406 103.242188 69.210938 103.191406 69.253906 C 103.140625 69.292969 103.066406 69.351562 102.972656 69.421875 C 102.164062 70.054688 99.789062 71.847656 97.152344 73.191406 C 95.960938 73.792969 94.714844 74.308594 93.539062 74.585938 L 94.121094 73.523438 L 95.375 71.222656 L 95.605469 70.800781 L 96.644531 68.902344 C 96.550781 68.9375 93.285156 70.128906 89.316406 71.199219 C 88.972656 71.289062 88.625 71.382812 88.273438 71.472656 C 85.488281 72.179688 82.472656 72.777344 80.023438 72.855469 C 79.296875 72.878906 78.621094 72.855469 78.015625 72.777344 L 75.417969 78.519531 C 75.417969 78.519531 74.363281 74.578125 74.28125 70.539062 C 74.265625 69.742188 74.285156 68.941406 74.363281 68.167969 C 74.371094 68.089844 74.378906 68.007812 74.386719 67.929688 C 74.386719 67.910156 74.390625 67.890625 74.394531 67.871094 C 74.476562 67.160156 74.574219 66.417969 74.726562 65.660156 C 75.5625 61.5625 78.074219 57.171875 89.011719 56.765625 C 100.445312 56.335938 103.855469 61.277344 105.074219 65.957031 C 105.28125 66.757812 105.425781 67.554688 105.535156 68.3125 C 105.539062 68.339844 105.542969 68.367188 105.546875 68.394531 C 105.605469 68.835938 105.65625 69.265625 105.699219 69.675781 C 105.742188 70.078125 105.769531 70.464844 105.78125 70.847656 C 105.921875 75.152344 104.175781 78.269531 104.175781 78.269531 " fill-opacity="1" fill-rule="nonzero"/><g clip-path="url(#1bc7f3dc8f)"><path fill="#bb853e" d="M 119.0625 69.671875 L 60.570312 69.671875 L 73.089844 65.617188 L 73.230469 65.566406 C 73.230469 64.761719 73.296875 63.972656 73.429688 63.203125 C 74.550781 56.671875 80.253906 50.105469 87.117188 50.105469 L 92.515625 50.105469 C 99.378906 50.105469 105.082031 56.671875 106.199219 63.203125 C 106.335938 63.972656 106.402344 64.761719 106.402344 65.566406 L 106.542969 65.617188 L 119.0625 69.671875 " fill-opacity="1" fill-rule="nonzero"/></g><path fill="#bfb290" d="M 106.542969 65.617188 L 73.089844 65.617188 L 73.230469 65.566406 C 73.230469 64.761719 73.296875 63.972656 73.429688 63.203125 L 106.199219 63.203125 C 106.335938 63.972656 106.402344 64.761719 106.402344 65.566406 L 106.542969 65.617188 " fill-opacity="1" fill-rule="nonzero"/></svg>