<svg xmlns="http://www.w3.org/2000/svg" xmlns:xlink="http://www.w3.org/1999/xlink" width="940" zoomAndPan="magnify" viewBox="0 0 705 344.999992" height="460" preserveAspectRatio="xMidYMid meet" version="1.0"><defs><g/><clipPath id="d1b1399493"><path d="M 429.050781 36.074219 L 682.550781 36.074219 L 682.550781 289.574219 L 429.050781 289.574219 Z M 429.050781 36.074219 " clip-rule="nonzero"/></clipPath><clipPath id="d42f300c1f"><path d="M 429.050781 36.074219 L 682.550781 36.074219 L 682.550781 289.574219 L 429.050781 289.574219 Z M 429.050781 36.074219 " clip-rule="nonzero"/></clipPath><clipPath id="d899280b4d"><path d="M 555.800781 36.074219 C 485.800781 36.074219 429.050781 92.824219 429.050781 162.824219 C 429.050781 232.828125 485.800781 289.574219 555.800781 289.574219 C 625.804688 289.574219 682.550781 232.828125 682.550781 162.824219 C 682.550781 92.824219 625.804688 36.074219 555.800781 36.074219 " clip-rule="nonzero"/></clipPath><clipPath id="7286f2ff18"><path d="M 508 143.109375 L 550 143.109375 L 550 215 L 508 215 Z M 508 143.109375 " clip-rule="nonzero"/></clipPath><clipPath id="773e4fe368"><path d="M 468.449219 144 L 563 144 L 563 258.609375 L 468.449219 258.609375 Z M 468.449219 144 " clip-rule="nonzero"/></clipPath><clipPath id="ffab471b0c"><path d="M 538 239 L 611 239 L 611 264.125 L 538 264.125 Z M 538 239 " clip-rule="nonzero"/></clipPath><clipPath id="3c054cf5c7"><path d="M 521.949219 124.625 L 626.199219 124.625 L 626.199219 160 L 521.949219 160 Z M 521.949219 124.625 " clip-rule="nonzero"/></clipPath></defs><rect x="-70.5" width="846" fill="#ffffff" y="-34.499999" height="413.99999" fill-opacity="1"/><rect x="-70.5" width="846" fill="#ffffff" y="-34.499999" height="413.99999" fill-opacity="1"/><rect x="-70.5" width="846" fill="#0071bc" y="-34.499999" height="413.99999" fill-opacity="1"/><g clip-path="url(#d1b1399493)"><path fill="#f5fff9" d="M 555.800781 36.074219 C 485.800781 36.074219 429.050781 92.824219 429.050781 162.824219 C 429.050781 232.828125 485.800781 289.574219 555.800781 289.574219 C 625.804688 289.574219 682.550781 232.828125 682.550781 162.824219 C 682.550781 92.824219 625.804688 36.074219 555.800781 36.074219 " fill-opacity="1" fill-rule="nonzero"/></g><g clip-path="url(#d42f300c1f)"><g clip-path="url(#d899280b4d)"><path stroke-linecap="butt" transform="matrix(0.749861, 0, 0, 0.749861, 429.051004, 36.074767)" fill="none" stroke-linejoin="miter" d="M 169.030962 -0.000731093 C 75.680365 -0.000731093 -0.000297371 75.679931 -0.000297371 169.030528 C -0.000297371 262.386334 75.680365 338.061787 169.030962 338.061787 C 262.386768 338.061787 338.062221 262.386334 338.062221 169.030528 C 338.062221 75.679931 262.386768 -0.000731093 169.030962 -0.000731093 " stroke="#0c5b08" stroke-width="24" stroke-opacity="1" stroke-miterlimit="4"/></g></g><g clip-path="url(#7286f2ff18)"><path fill="#ffcc4d" d="M 533.980469 143.175781 C 527.769531 143.175781 519.773438 149.382812 513.117188 159.378906 C 505.328125 171.074219 509.53125 179.488281 512.910156 186.246094 C 513.429688 187.285156 514.449219 187.980469 515.609375 188.089844 C 515.707031 188.09375 515.808594 188.097656 515.90625 188.097656 C 516.957031 188.097656 517.953125 187.605469 518.589844 186.757812 C 526.621094 176.035156 539.425781 159.238281 541.757812 156.898438 C 542.390625 156.269531 542.742188 155.414062 542.742188 154.523438 C 542.742188 146.15625 538.214844 143.175781 533.980469 143.175781 Z M 541.957031 173.375 C 537.898438 173.375 533.320312 177.175781 526.644531 186.085938 C 519.519531 195.589844 518.390625 203.921875 522.972656 213.101562 C 523.476562 214.117188 524.460938 214.804688 525.585938 214.9375 C 525.710938 214.953125 525.84375 214.960938 525.96875 214.960938 C 526.960938 214.960938 527.90625 214.519531 528.550781 213.753906 C 534.316406 206.828125 545.902344 193.042969 548.46875 190.472656 C 549.097656 189.84375 549.449219 188.988281 549.449219 188.097656 C 549.449219 184.457031 549.449219 173.375 541.957031 173.375 Z M 541.957031 173.375 " fill-opacity="1" fill-rule="nonzero"/></g><g clip-path="url(#773e4fe368)"><path fill="#3bb73e" d="M 562.445312 179.761719 C 561.546875 178.144531 559.5 177.566406 557.886719 178.46875 C 533.832031 191.84375 511.652344 225.980469 502.988281 244.308594 C 505.796875 210.078125 521.667969 177.007812 548.46875 150.183594 C 549.78125 148.871094 549.78125 146.746094 548.46875 145.433594 C 547.15625 144.121094 545.035156 144.121094 543.726562 145.433594 C 517.015625 172.171875 500.699219 204.921875 496.746094 239.046875 C 494.488281 219.917969 493.46875 192.34375 502.199219 172.675781 C 502.953125 170.980469 502.1875 168.996094 500.496094 168.242188 C 498.804688 167.484375 496.820312 168.253906 496.070312 169.945312 C 491.621094 179.960938 489.546875 191.773438 488.816406 203.550781 C 485.851562 197.226562 482.367188 191.457031 477.238281 191.457031 L 477.085938 191.457031 C 474.03125 191.457031 471.414062 193.019531 469.300781 197.25 C 468.46875 198.910156 469.140625 200.347656 470.796875 201.175781 C 472.457031 202.007812 474.472656 201.332031 475.300781 199.675781 C 476.34375 197.585938 477.0625 197.089844 477.046875 197.015625 C 479.179688 197.675781 482.898438 206.070312 484.300781 209.246094 C 484.957031 210.734375 485.554688 212.070312 486.066406 213.105469 C 486.5625 214.101562 487.492188 214.710938 488.507812 214.882812 C 488.597656 231.527344 490.851562 246.878906 492.410156 255.480469 L 492.476562 255.847656 C 492.773438 257.46875 494.183594 258.609375 495.777344 258.609375 C 495.976562 258.609375 496.175781 258.589844 496.378906 258.554688 C 496.789062 258.476562 497.152344 258.316406 497.488281 258.109375 C 497.980469 258.398438 498.523438 258.609375 499.136719 258.609375 C 499.75 258.609375 500.289062 258.398438 500.785156 258.113281 C 501.269531 258.398438 501.800781 258.609375 502.402344 258.609375 L 502.492188 258.609375 C 504.269531 258.609375 505.746094 257.105469 505.84375 255.316406 C 506.035156 251.835938 514.210938 235.125 526.449219 218.238281 C 526.800781 218.191406 527.144531 218.128906 527.472656 217.964844 C 528.292969 217.554688 529.207031 217.050781 530.183594 216.511719 C 533.316406 214.773438 538.550781 211.878906 540.601562 213.085938 C 541.101562 213.382812 542.742188 214.882812 542.742188 221.675781 C 542.742188 223.53125 544.242188 225.03125 546.097656 225.03125 C 547.953125 225.03125 549.449219 223.53125 549.449219 221.675781 C 549.449219 214.167969 547.671875 209.464844 544.011719 207.304688 C 541.382812 205.757812 538.414062 205.882812 535.488281 206.71875 C 543.273438 197.609375 552.054688 189.378906 561.140625 184.324219 C 562.765625 183.421875 563.347656 181.382812 562.445312 179.761719 Z M 562.445312 179.761719 " fill-opacity="1" fill-rule="nonzero"/></g><g fill="#ffffff" fill-opacity="0.4"><g transform="translate(474.828636, 166.718688)"><g><path d="M 6.671875 -17.4375 C 5.648438 -14.613281 4.207031 -12.257812 2.34375 -10.375 C 0.476562 -8.5 -1.707031 -7.269531 -4.21875 -6.6875 C -6.726562 -6.101562 -9.425781 -6.332031 -12.3125 -7.375 C -14.332031 -8.101562 -16.390625 -9.242188 -18.484375 -10.796875 C -22.960938 -14.171875 -25.753906 -17.828125 -26.859375 -21.765625 C -27.960938 -25.703125 -27.867188 -29.445312 -26.578125 -33 C -25.878906 -34.914062 -24.976562 -36.507812 -23.875 -37.78125 C -22.769531 -39.050781 -21.453125 -40.113281 -19.921875 -40.96875 L -20.5 -42.703125 C -20.863281 -43.867188 -21.066406 -44.8125 -21.109375 -45.53125 C -21.160156 -46.25 -21.046875 -46.992188 -20.765625 -47.765625 C -20.460938 -48.597656 -20.035156 -49.203125 -19.484375 -49.578125 C -18.941406 -49.953125 -18.316406 -50.007812 -17.609375 -49.75 C -17.234375 -49.613281 -16.882812 -49.414062 -16.5625 -49.15625 L -9.71875 -43.46875 C -8.9375 -42.851562 -8.429688 -42.265625 -8.203125 -41.703125 C -7.984375 -41.148438 -8.023438 -40.453125 -8.328125 -39.609375 C -8.640625 -38.742188 -9.207031 -38.144531 -10.03125 -37.8125 C -10.863281 -37.476562 -12.160156 -37.238281 -13.921875 -37.09375 C -15.804688 -36.851562 -17.09375 -36.570312 -17.78125 -36.25 C -18.46875 -35.925781 -18.984375 -35.28125 -19.328125 -34.3125 C -19.828125 -32.925781 -19.457031 -31.289062 -18.21875 -29.40625 C -16.976562 -27.519531 -14.851562 -25.4375 -11.84375 -23.15625 C -9.3125 -21.238281 -7.085938 -19.9375 -5.171875 -19.25 C -3.492188 -18.632812 -2.128906 -18.5 -1.078125 -18.84375 C -0.0234375 -19.1875 0.695312 -19.894531 1.09375 -20.96875 C 1.664062 -22.539062 1.785156 -23.96875 1.453125 -25.25 C 1.117188 -26.539062 0.535156 -27.9375 -0.296875 -29.4375 C -0.773438 -30.382812 -1.113281 -31.128906 -1.3125 -31.671875 C -1.519531 -32.222656 -1.535156 -32.734375 -1.359375 -33.203125 C -1.140625 -33.816406 -0.609375 -34.347656 0.234375 -34.796875 C 1.078125 -35.253906 1.796875 -35.351562 2.390625 -35.09375 C 3.148438 -34.863281 4.078125 -33.851562 5.171875 -32.0625 C 6.273438 -30.269531 7.046875 -28.070312 7.484375 -25.46875 C 7.929688 -22.863281 7.660156 -20.1875 6.671875 -17.4375 Z M 6.671875 -17.4375 "/></g></g></g><g fill="#ffffff" fill-opacity="0.4"><g transform="translate(485.488159, 136.420966)"><g><path d="M -10.109375 -17.265625 C -10.742188 -18.140625 -11.023438 -19.054688 -10.953125 -20.015625 C -10.890625 -20.984375 -10.492188 -21.898438 -9.765625 -22.765625 L -1.71875 -32.34375 C -0.457031 -33.832031 0.757812 -34.082031 1.9375 -33.09375 C 2.238281 -32.84375 2.46875 -32.609375 2.625 -32.390625 C 3.84375 -30.472656 3.703125 -28.628906 2.203125 -26.859375 L -5.828125 -17.296875 C -6.453125 -16.554688 -7.066406 -16.113281 -7.671875 -15.96875 C -8.285156 -15.832031 -8.863281 -15.992188 -9.40625 -16.453125 C -9.675781 -16.679688 -9.910156 -16.953125 -10.109375 -17.265625 Z M -10.109375 -17.265625 "/></g></g></g><g fill="#ffffff" fill-opacity="0.4"><g transform="translate(501.331446, 115.941378)"><g><path d="M 11.796875 -48.53125 C 12.929688 -49.207031 13.960938 -49.488281 14.890625 -49.375 C 15.816406 -49.257812 16.535156 -48.769531 17.046875 -47.90625 C 17.304688 -47.476562 17.492188 -47.023438 17.609375 -46.546875 L 18.953125 -41.546875 C 19.203125 -40.628906 19.179688 -39.851562 18.890625 -39.21875 C 18.609375 -38.582031 18.066406 -38.023438 17.265625 -37.546875 C 16.492188 -37.097656 15.78125 -36.894531 15.125 -36.9375 C 14.476562 -36.988281 13.828125 -37.328125 13.171875 -37.953125 L 10.890625 -40.125 C 10.484375 -40.519531 10.144531 -40.738281 9.875 -40.78125 C 9.601562 -40.820312 9.171875 -40.664062 8.578125 -40.3125 L 3.96875 -37.578125 L 6.8125 -26.921875 L 7.703125 -27.453125 C 8.128906 -27.703125 8.46875 -27.984375 8.71875 -28.296875 C 8.96875 -28.617188 9.175781 -29.054688 9.34375 -29.609375 L 10.046875 -31.65625 C 10.296875 -32.425781 10.566406 -33.03125 10.859375 -33.46875 C 11.160156 -33.914062 11.539062 -34.273438 12 -34.546875 C 12.59375 -34.898438 13.179688 -35.019531 13.765625 -34.90625 C 14.347656 -34.800781 14.820312 -34.4375 15.1875 -33.8125 C 15.332031 -33.570312 15.457031 -33.257812 15.5625 -32.875 L 17.6875 -24.671875 C 18.125 -22.890625 17.742188 -21.644531 16.546875 -20.9375 C 15.566406 -20.351562 14.492188 -20.398438 13.328125 -21.078125 L 11.59375 -22.15625 C 11.113281 -22.445312 10.742188 -22.597656 10.484375 -22.609375 C 10.234375 -22.628906 9.921875 -22.53125 9.546875 -22.3125 L 8.21875 -21.515625 L 10.359375 -13.515625 C 10.410156 -13.285156 10.523438 -13.019531 10.703125 -12.71875 C 10.960938 -12.289062 11.273438 -11.992188 11.640625 -11.828125 C 12.003906 -11.671875 12.476562 -11.5625 13.0625 -11.5 C 13.5625 -11.414062 13.921875 -11.328125 14.140625 -11.234375 C 14.359375 -11.140625 14.539062 -10.972656 14.6875 -10.734375 C 15.007812 -10.171875 14.992188 -9.632812 14.640625 -9.125 C 14.285156 -8.625 13.628906 -8.09375 12.671875 -7.53125 L 1.09375 -0.65625 C 0.300781 -0.175781 -0.378906 0.0351562 -0.953125 -0.015625 C -1.523438 -0.078125 -1.898438 -0.40625 -2.078125 -1 C -2.179688 -1.3125 -2.203125 -1.601562 -2.140625 -1.875 C -2.078125 -2.144531 -1.9375 -2.488281 -1.71875 -2.90625 C -1.382812 -3.519531 -1.164062 -4.085938 -1.0625 -4.609375 C -0.957031 -5.128906 -1.023438 -5.796875 -1.265625 -6.609375 L -7.390625 -29.84375 C -7.503906 -30.3125 -7.660156 -30.710938 -7.859375 -31.046875 C -8.078125 -31.421875 -8.3125 -31.695312 -8.5625 -31.875 C -8.8125 -32.0625 -9.128906 -32.222656 -9.515625 -32.359375 C -10.035156 -32.597656 -10.363281 -32.835938 -10.5 -33.078125 C -10.5625 -33.179688 -10.632812 -33.375 -10.71875 -33.65625 C -10.832031 -34.132812 -10.722656 -34.582031 -10.390625 -35 C -10.054688 -35.425781 -9.476562 -35.882812 -8.65625 -36.375 Z M 11.796875 -48.53125 "/></g></g></g><g fill="#ffffff" fill-opacity="0.4"><g transform="translate(525.438594, 100.129999)"><g><path d="M 31.265625 -11.609375 C 31.203125 -11.128906 31.207031 -10.664062 31.28125 -10.21875 C 31.34375 -9.820312 31.445312 -9.5 31.59375 -9.25 C 31.75 -9 31.898438 -8.804688 32.046875 -8.671875 C 32.203125 -8.535156 32.300781 -8.4375 32.34375 -8.375 C 32.757812 -8.070312 32.992188 -7.742188 33.046875 -7.390625 C 33.054688 -7.316406 33.050781 -7.140625 33.03125 -6.859375 C 32.976562 -6.335938 32.726562 -5.941406 32.28125 -5.671875 C 31.832031 -5.398438 31.113281 -5.179688 30.125 -5.015625 L 17.59375 -2.9375 C 16.851562 -2.8125 16.257812 -2.835938 15.8125 -3.015625 C 15.375 -3.191406 15.117188 -3.492188 15.046875 -3.921875 C 15.015625 -4.140625 15.03125 -4.378906 15.09375 -4.640625 C 15.15625 -4.929688 15.269531 -5.171875 15.4375 -5.359375 C 15.601562 -5.546875 15.84375 -5.78125 16.15625 -6.0625 C 16.675781 -6.476562 17.078125 -6.90625 17.359375 -7.34375 C 17.648438 -7.789062 17.835938 -8.472656 17.921875 -9.390625 L 18.5625 -14.171875 L 10.296875 -12.796875 L 9.390625 -9.546875 C 9.003906 -8.140625 8.875 -7.066406 9 -6.328125 C 9.070312 -5.898438 9.195312 -5.566406 9.375 -5.328125 C 9.5625 -5.097656 9.820312 -4.859375 10.15625 -4.609375 C 10.4375 -4.378906 10.640625 -4.171875 10.765625 -3.984375 C 10.890625 -3.804688 10.941406 -3.554688 10.921875 -3.234375 C 10.867188 -2.679688 10.640625 -2.269531 10.234375 -2 C 9.828125 -1.726562 9.148438 -1.515625 8.203125 -1.359375 L 0.328125 -0.046875 C -0.484375 0.0859375 -1.128906 0.0390625 -1.609375 -0.1875 C -2.085938 -0.414062 -2.363281 -0.78125 -2.4375 -1.28125 C -2.53125 -1.84375 -2.398438 -2.320312 -2.046875 -2.71875 C -1.703125 -3.125 -1.15625 -3.585938 -0.40625 -4.109375 C 0.550781 -4.828125 1.304688 -5.488281 1.859375 -6.09375 C 2.421875 -6.707031 2.847656 -7.507812 3.140625 -8.5 L 9.3125 -29.59375 C 10.25 -32.863281 11.582031 -35.335938 13.3125 -37.015625 C 15.039062 -38.691406 17.503906 -39.796875 20.703125 -40.328125 C 24.304688 -40.929688 27.210938 -40.664062 29.421875 -39.53125 C 31.640625 -38.394531 32.96875 -36.523438 33.40625 -33.921875 C 33.582031 -32.828125 33.597656 -31.671875 33.453125 -30.453125 Z M 19.265625 -19.734375 L 20.515625 -29.5 C 20.585938 -29.945312 20.585938 -30.394531 20.515625 -30.84375 C 20.398438 -31.519531 20.128906 -31.992188 19.703125 -32.265625 C 19.273438 -32.535156 18.726562 -32.613281 18.0625 -32.5 C 17.207031 -32.363281 16.523438 -32 16.015625 -31.40625 C 15.503906 -30.8125 15.050781 -29.832031 14.65625 -28.46875 L 11.859375 -18.5 Z M 19.265625 -19.734375 "/></g></g></g><g fill="#ffffff" fill-opacity="0.4"><g transform="translate(556.7886, 93.4416)"><g><path d="M 45.703125 -14.28125 C 44.648438 -12.414062 43.21875 -11.101562 41.40625 -10.34375 C 39.601562 -9.59375 37.507812 -9.367188 35.125 -9.671875 C 36.75 -9.109375 37.875 -8.304688 38.5 -7.265625 C 39.125 -6.234375 39.269531 -5.046875 38.9375 -3.703125 C 38.8125 -3.171875 38.570312 -2.550781 38.21875 -1.84375 L 37 0.5625 C 36.851562 0.894531 36.765625 1.128906 36.734375 1.265625 C 36.617188 1.722656 36.632812 2.085938 36.78125 2.359375 C 36.9375 2.640625 37.203125 2.828125 37.578125 2.921875 C 38.304688 3.097656 38.8125 3.332031 39.09375 3.625 C 39.382812 3.914062 39.398438 4.328125 39.140625 4.859375 C 38.816406 5.609375 38.210938 6.28125 37.328125 6.875 C 36.441406 7.46875 35.304688 7.859375 33.921875 8.046875 C 32.535156 8.242188 30.941406 8.125 29.140625 7.6875 C 26.847656 7.113281 25.148438 6.148438 24.046875 4.796875 C 22.941406 3.441406 22.625 1.804688 23.09375 -0.109375 C 23.269531 -0.828125 23.566406 -1.578125 23.984375 -2.359375 L 25.640625 -5.5 C 25.898438 -5.90625 26.085938 -6.351562 26.203125 -6.84375 C 26.398438 -7.644531 26.269531 -8.285156 25.8125 -8.765625 C 25.363281 -9.242188 24.546875 -9.628906 23.359375 -9.921875 L 21.390625 -10.40625 L 16.875 -2.359375 C 16.75 -2.160156 16.648438 -1.90625 16.578125 -1.59375 C 16.453125 -1.101562 16.46875 -0.65625 16.625 -0.25 C 16.78125 0.144531 17.019531 0.585938 17.34375 1.078125 C 17.59375 1.390625 17.773438 1.679688 17.890625 1.953125 C 18.003906 2.234375 18.03125 2.492188 17.96875 2.734375 C 17.820312 3.316406 17.441406 3.660156 16.828125 3.765625 C 16.222656 3.867188 15.382812 3.789062 14.3125 3.53125 L 1.25 0.3125 C 0.34375 0.0820312 -0.289062 -0.25 -0.65625 -0.6875 C -1.019531 -1.125 -1.066406 -1.617188 -0.796875 -2.171875 C -0.640625 -2.472656 -0.441406 -2.691406 -0.203125 -2.828125 C 0.0234375 -2.972656 0.363281 -3.125 0.8125 -3.28125 C 1.476562 -3.476562 2.03125 -3.726562 2.46875 -4.03125 C 2.914062 -4.332031 3.34375 -4.851562 3.75 -5.59375 L 15.640625 -26.4375 C 15.890625 -26.863281 16.0625 -27.285156 16.15625 -27.703125 C 16.257812 -28.085938 16.28125 -28.421875 16.21875 -28.703125 C 16.164062 -28.992188 16.070312 -29.335938 15.9375 -29.734375 C 15.738281 -30.265625 15.671875 -30.664062 15.734375 -30.9375 C 15.765625 -31.050781 15.847656 -31.238281 15.984375 -31.5 C 16.242188 -31.914062 16.628906 -32.160156 17.140625 -32.234375 C 17.648438 -32.304688 18.390625 -32.222656 19.359375 -31.984375 L 36.796875 -27.6875 C 39.191406 -27.09375 41.191406 -26.210938 42.796875 -25.046875 C 44.398438 -23.878906 45.523438 -22.546875 46.171875 -21.046875 C 46.816406 -19.546875 46.941406 -18 46.546875 -16.40625 C 46.359375 -15.675781 46.078125 -14.96875 45.703125 -14.28125 Z M 32.484375 -18.09375 C 32.867188 -18.851562 33.113281 -19.4375 33.21875 -19.84375 C 33.675781 -21.6875 32.898438 -22.851562 30.890625 -23.34375 L 28.703125 -23.890625 L 24.125 -15.25 L 26.3125 -14.703125 C 27.65625 -14.378906 28.800781 -14.445312 29.75 -14.90625 C 30.695312 -15.363281 31.609375 -16.425781 32.484375 -18.09375 Z M 32.484375 -18.09375 "/></g></g></g><g fill="#ffffff" fill-opacity="0.4"><g transform="translate(591.431743, 98.496992)"><g><path d="M 66.546875 12.640625 C 67.097656 13.148438 67.445312 13.628906 67.59375 14.078125 C 67.738281 14.523438 67.664062 14.90625 67.375 15.21875 C 67.25 15.351562 67.050781 15.484375 66.78125 15.609375 C 66.476562 15.773438 66.195312 15.851562 65.9375 15.84375 C 65.6875 15.832031 65.335938 15.789062 64.890625 15.71875 C 64.253906 15.5625 63.675781 15.507812 63.15625 15.5625 C 62.644531 15.625 62.015625 15.875 61.265625 16.3125 L 40.859375 28.859375 C 40.441406 29.097656 40.085938 29.378906 39.796875 29.703125 C 39.535156 29.984375 39.359375 30.265625 39.265625 30.546875 C 39.179688 30.835938 39.097656 31.1875 39.015625 31.59375 C 39.003906 31.820312 38.96875 32.046875 38.90625 32.265625 C 38.84375 32.484375 38.738281 32.671875 38.59375 32.828125 C 38.550781 32.878906 38.40625 32.984375 38.15625 33.140625 C 37.75 33.390625 37.28125 33.421875 36.75 33.234375 C 36.21875 33.046875 35.597656 32.625 34.890625 31.96875 L 25.625 23.453125 C 25.0625 22.953125 24.710938 22.46875 24.578125 22 C 24.441406 21.53125 24.523438 21.132812 24.828125 20.8125 C 24.960938 20.664062 25.160156 20.535156 25.421875 20.421875 C 25.660156 20.304688 25.921875 20.238281 26.203125 20.21875 C 26.484375 20.207031 26.710938 20.222656 26.890625 20.265625 C 27.066406 20.316406 27.207031 20.34375 27.3125 20.34375 C 27.957031 20.488281 28.539062 20.535156 29.0625 20.484375 C 29.582031 20.441406 30.210938 20.203125 30.953125 19.765625 L 43.75 11.859375 L 21.890625 15.15625 C 20.097656 15.40625 18.769531 15.484375 17.90625 15.390625 C 17.050781 15.304688 16.289062 14.957031 15.625 14.34375 C 15 13.769531 14.691406 13.113281 14.703125 12.375 C 14.722656 11.644531 15.039062 10.660156 15.65625 9.421875 L 23.125 -6.171875 L 10.828125 1.359375 C 10.410156 1.609375 10.0625 1.890625 9.78125 2.203125 C 9.488281 2.515625 9.289062 2.816406 9.1875 3.109375 C 9.082031 3.410156 9.015625 3.765625 8.984375 4.171875 C 8.898438 4.734375 8.765625 5.117188 8.578125 5.328125 C 8.523438 5.378906 8.378906 5.488281 8.140625 5.65625 C 7.691406 5.914062 7.21875 5.945312 6.71875 5.75 C 6.21875 5.5625 5.597656 5.128906 4.859375 4.453125 L 1.578125 1.453125 C 1.023438 0.941406 0.679688 0.457031 0.546875 0 C 0.410156 -0.457031 0.488281 -0.847656 0.78125 -1.171875 C 0.925781 -1.328125 1.128906 -1.460938 1.390625 -1.578125 C 1.742188 -1.765625 2.113281 -1.828125 2.5 -1.765625 C 2.882812 -1.710938 3.113281 -1.675781 3.1875 -1.65625 C 3.851562 -1.519531 4.441406 -1.46875 4.953125 -1.5 C 5.472656 -1.539062 6.113281 -1.796875 6.875 -2.265625 L 27.34375 -14.890625 L 28.65625 -17.5625 C 28.882812 -18.082031 29.164062 -18.523438 29.5 -18.890625 C 29.925781 -19.359375 30.390625 -19.554688 30.890625 -19.484375 C 31.390625 -19.421875 31.957031 -19.101562 32.59375 -18.53125 L 38.71875 -12.90625 C 39.5 -12.175781 39.921875 -11.46875 39.984375 -10.78125 C 40.046875 -10.09375 39.8125 -9.21875 39.28125 -8.15625 L 31.203125 8.5625 L 54.109375 5.078125 C 55.566406 4.878906 56.75 4.941406 57.65625 5.265625 C 58.570312 5.585938 59.570312 6.25 60.65625 7.25 Z M 66.546875 12.640625 "/></g></g></g><g fill="#ffffff" fill-opacity="0.4"><g transform="translate(626.950927, 131.981734)"><g><path d="M 40.6875 6.625 C 41.363281 8.5 41.757812 10.316406 41.875 12.078125 C 42 13.835938 41.875 15.71875 41.5 17.71875 L 42.875 18.53125 C 43.8125 19.101562 44.488281 19.609375 44.90625 20.046875 C 45.332031 20.484375 45.664062 21.039062 45.90625 21.71875 C 46.195312 22.519531 46.25 23.21875 46.0625 23.8125 C 45.882812 24.40625 45.460938 24.820312 44.796875 25.0625 C 44.523438 25.164062 44.21875 25.222656 43.875 25.234375 L 36.15625 25.625 C 35.269531 25.6875 34.59375 25.597656 34.125 25.359375 C 33.664062 25.128906 33.304688 24.660156 33.046875 23.953125 C 32.773438 23.210938 32.765625 22.484375 33.015625 21.765625 C 33.273438 21.054688 33.898438 19.859375 34.890625 18.171875 C 35.804688 16.503906 36.367188 15.09375 36.578125 13.9375 C 36.785156 12.789062 36.707031 11.710938 36.34375 10.703125 C 36.070312 9.953125 35.601562 9.410156 34.9375 9.078125 C 34.269531 8.742188 33.582031 8.707031 32.875 8.96875 C 32.0625 9.257812 31.457031 9.929688 31.0625 10.984375 C 30.664062 12.046875 30.253906 13.625 29.828125 15.71875 C 29.421875 17.832031 29.003906 19.613281 28.578125 21.0625 C 28.148438 22.519531 27.460938 23.875 26.515625 25.125 C 25.566406 26.375 24.285156 27.289062 22.671875 27.875 C 21.628906 28.25 20.523438 28.460938 19.359375 28.515625 C 16.378906 28.679688 13.769531 27.851562 11.53125 26.03125 C 9.300781 24.21875 7.628906 21.769531 6.515625 18.6875 C 5.679688 16.363281 5.242188 14.3125 5.203125 12.53125 C 5.171875 10.757812 5.5 8.820312 6.1875 6.71875 L 4.015625 5.4375 C 3.003906 4.851562 2.273438 4.335938 1.828125 3.890625 C 1.390625 3.453125 1.046875 2.894531 0.796875 2.21875 C 0.515625 1.445312 0.476562 0.765625 0.6875 0.171875 C 0.894531 -0.410156 1.320312 -0.820312 1.96875 -1.0625 C 2.300781 -1.175781 2.675781 -1.234375 3.09375 -1.234375 L 11.5 -1.484375 C 12.46875 -1.515625 13.21875 -1.363281 13.75 -1.03125 C 14.289062 -0.695312 14.691406 -0.160156 14.953125 0.578125 C 15.234375 1.347656 15.21875 2.140625 14.90625 2.953125 C 14.601562 3.765625 13.925781 4.929688 12.875 6.453125 C 11.726562 8.097656 11.015625 9.488281 10.734375 10.625 C 10.460938 11.757812 10.554688 12.972656 11.015625 14.265625 C 11.335938 15.160156 11.726562 15.800781 12.1875 16.1875 C 12.65625 16.570312 13.25 16.75 13.96875 16.71875 C 14.15625 16.726562 14.414062 16.675781 14.75 16.5625 C 15.5625 16.257812 16.160156 15.597656 16.546875 14.578125 C 16.941406 13.566406 17.320312 12.085938 17.6875 10.140625 C 18.101562 8.046875 18.523438 6.3125 18.953125 4.9375 C 19.390625 3.5625 20.085938 2.253906 21.046875 1.015625 C 22.003906 -0.210938 23.320312 -1.128906 25 -1.734375 C 26.1875 -2.160156 27.414062 -2.394531 28.6875 -2.4375 C 31.269531 -2.570312 33.660156 -1.800781 35.859375 -0.125 C 38.054688 1.550781 39.664062 3.800781 40.6875 6.625 Z M 40.6875 6.625 "/></g></g></g><g fill="#2065d1" fill-opacity="1"><g transform="translate(473.454852, 165.344885)"><g><path d="M 6.671875 -17.4375 C 5.648438 -14.613281 4.207031 -12.257812 2.34375 -10.375 C 0.476562 -8.5 -1.707031 -7.269531 -4.21875 -6.6875 C -6.726562 -6.101562 -9.425781 -6.332031 -12.3125 -7.375 C -14.332031 -8.101562 -16.390625 -9.242188 -18.484375 -10.796875 C -22.960938 -14.171875 -25.753906 -17.828125 -26.859375 -21.765625 C -27.960938 -25.703125 -27.867188 -29.445312 -26.578125 -33 C -25.878906 -34.914062 -24.976562 -36.507812 -23.875 -37.78125 C -22.769531 -39.050781 -21.453125 -40.113281 -19.921875 -40.96875 L -20.5 -42.703125 C -20.863281 -43.867188 -21.066406 -44.8125 -21.109375 -45.53125 C -21.160156 -46.25 -21.046875 -46.992188 -20.765625 -47.765625 C -20.460938 -48.597656 -20.035156 -49.203125 -19.484375 -49.578125 C -18.941406 -49.953125 -18.316406 -50.007812 -17.609375 -49.75 C -17.234375 -49.613281 -16.882812 -49.414062 -16.5625 -49.15625 L -9.71875 -43.46875 C -8.9375 -42.851562 -8.429688 -42.265625 -8.203125 -41.703125 C -7.984375 -41.148438 -8.023438 -40.453125 -8.328125 -39.609375 C -8.640625 -38.742188 -9.207031 -38.144531 -10.03125 -37.8125 C -10.863281 -37.476562 -12.160156 -37.238281 -13.921875 -37.09375 C -15.804688 -36.851562 -17.09375 -36.570312 -17.78125 -36.25 C -18.46875 -35.925781 -18.984375 -35.28125 -19.328125 -34.3125 C -19.828125 -32.925781 -19.457031 -31.289062 -18.21875 -29.40625 C -16.976562 -27.519531 -14.851562 -25.4375 -11.84375 -23.15625 C -9.3125 -21.238281 -7.085938 -19.9375 -5.171875 -19.25 C -3.492188 -18.632812 -2.128906 -18.5 -1.078125 -18.84375 C -0.0234375 -19.1875 0.695312 -19.894531 1.09375 -20.96875 C 1.664062 -22.539062 1.785156 -23.96875 1.453125 -25.25 C 1.117188 -26.539062 0.535156 -27.9375 -0.296875 -29.4375 C -0.773438 -30.382812 -1.113281 -31.128906 -1.3125 -31.671875 C -1.519531 -32.222656 -1.535156 -32.734375 -1.359375 -33.203125 C -1.140625 -33.816406 -0.609375 -34.347656 0.234375 -34.796875 C 1.078125 -35.253906 1.796875 -35.351562 2.390625 -35.09375 C 3.148438 -34.863281 4.078125 -33.851562 5.171875 -32.0625 C 6.273438 -30.269531 7.046875 -28.070312 7.484375 -25.46875 C 7.929688 -22.863281 7.660156 -20.1875 6.671875 -17.4375 Z M 6.671875 -17.4375 "/></g></g></g><g fill="#2065d1" fill-opacity="1"><g transform="translate(484.114352, 135.047161)"><g><path d="M -10.109375 -17.265625 C -10.742188 -18.140625 -11.023438 -19.054688 -10.953125 -20.015625 C -10.890625 -20.984375 -10.492188 -21.898438 -9.765625 -22.765625 L -1.71875 -32.34375 C -0.457031 -33.832031 0.757812 -34.082031 1.9375 -33.09375 C 2.238281 -32.84375 2.46875 -32.609375 2.625 -32.390625 C 3.84375 -30.472656 3.703125 -28.628906 2.203125 -26.859375 L -5.828125 -17.296875 C -6.453125 -16.554688 -7.066406 -16.113281 -7.671875 -15.96875 C -8.285156 -15.832031 -8.863281 -15.992188 -9.40625 -16.453125 C -9.675781 -16.679688 -9.910156 -16.953125 -10.109375 -17.265625 Z M -10.109375 -17.265625 "/></g></g></g><g fill="#2065d1" fill-opacity="1"><g transform="translate(499.957662, 114.567565)"><g><path d="M 11.796875 -48.53125 C 12.929688 -49.207031 13.960938 -49.488281 14.890625 -49.375 C 15.816406 -49.257812 16.535156 -48.769531 17.046875 -47.90625 C 17.304688 -47.476562 17.492188 -47.023438 17.609375 -46.546875 L 18.953125 -41.546875 C 19.203125 -40.628906 19.179688 -39.851562 18.890625 -39.21875 C 18.609375 -38.582031 18.066406 -38.023438 17.265625 -37.546875 C 16.492188 -37.097656 15.78125 -36.894531 15.125 -36.9375 C 14.476562 -36.988281 13.828125 -37.328125 13.171875 -37.953125 L 10.890625 -40.125 C 10.484375 -40.519531 10.144531 -40.738281 9.875 -40.78125 C 9.601562 -40.820312 9.171875 -40.664062 8.578125 -40.3125 L 3.96875 -37.578125 L 6.8125 -26.921875 L 7.703125 -27.453125 C 8.128906 -27.703125 8.46875 -27.984375 8.71875 -28.296875 C 8.96875 -28.617188 9.175781 -29.054688 9.34375 -29.609375 L 10.046875 -31.65625 C 10.296875 -32.425781 10.566406 -33.03125 10.859375 -33.46875 C 11.160156 -33.914062 11.539062 -34.273438 12 -34.546875 C 12.59375 -34.898438 13.179688 -35.019531 13.765625 -34.90625 C 14.347656 -34.800781 14.820312 -34.4375 15.1875 -33.8125 C 15.332031 -33.570312 15.457031 -33.257812 15.5625 -32.875 L 17.6875 -24.671875 C 18.125 -22.890625 17.742188 -21.644531 16.546875 -20.9375 C 15.566406 -20.351562 14.492188 -20.398438 13.328125 -21.078125 L 11.59375 -22.15625 C 11.113281 -22.445312 10.742188 -22.597656 10.484375 -22.609375 C 10.234375 -22.628906 9.921875 -22.53125 9.546875 -22.3125 L 8.21875 -21.515625 L 10.359375 -13.515625 C 10.410156 -13.285156 10.523438 -13.019531 10.703125 -12.71875 C 10.960938 -12.289062 11.273438 -11.992188 11.640625 -11.828125 C 12.003906 -11.671875 12.476562 -11.5625 13.0625 -11.5 C 13.5625 -11.414062 13.921875 -11.328125 14.140625 -11.234375 C 14.359375 -11.140625 14.539062 -10.972656 14.6875 -10.734375 C 15.007812 -10.171875 14.992188 -9.632812 14.640625 -9.125 C 14.285156 -8.625 13.628906 -8.09375 12.671875 -7.53125 L 1.09375 -0.65625 C 0.300781 -0.175781 -0.378906 0.0351562 -0.953125 -0.015625 C -1.523438 -0.078125 -1.898438 -0.40625 -2.078125 -1 C -2.179688 -1.3125 -2.203125 -1.601562 -2.140625 -1.875 C -2.078125 -2.144531 -1.9375 -2.488281 -1.71875 -2.90625 C -1.382812 -3.519531 -1.164062 -4.085938 -1.0625 -4.609375 C -0.957031 -5.128906 -1.023438 -5.796875 -1.265625 -6.609375 L -7.390625 -29.84375 C -7.503906 -30.3125 -7.660156 -30.710938 -7.859375 -31.046875 C -8.078125 -31.421875 -8.3125 -31.695312 -8.5625 -31.875 C -8.8125 -32.0625 -9.128906 -32.222656 -9.515625 -32.359375 C -10.035156 -32.597656 -10.363281 -32.835938 -10.5 -33.078125 C -10.5625 -33.179688 -10.632812 -33.375 -10.71875 -33.65625 C -10.832031 -34.132812 -10.722656 -34.582031 -10.390625 -35 C -10.054688 -35.425781 -9.476562 -35.882812 -8.65625 -36.375 Z M 11.796875 -48.53125 "/></g></g></g><g fill="#2065d1" fill-opacity="1"><g transform="translate(524.06481, 98.756193)"><g><path d="M 31.265625 -11.609375 C 31.203125 -11.128906 31.207031 -10.664062 31.28125 -10.21875 C 31.34375 -9.820312 31.445312 -9.5 31.59375 -9.25 C 31.75 -9 31.898438 -8.804688 32.046875 -8.671875 C 32.203125 -8.535156 32.300781 -8.4375 32.34375 -8.375 C 32.757812 -8.070312 32.992188 -7.742188 33.046875 -7.390625 C 33.054688 -7.316406 33.050781 -7.140625 33.03125 -6.859375 C 32.976562 -6.335938 32.726562 -5.941406 32.28125 -5.671875 C 31.832031 -5.398438 31.113281 -5.179688 30.125 -5.015625 L 17.59375 -2.9375 C 16.851562 -2.8125 16.257812 -2.835938 15.8125 -3.015625 C 15.375 -3.191406 15.117188 -3.492188 15.046875 -3.921875 C 15.015625 -4.140625 15.03125 -4.378906 15.09375 -4.640625 C 15.15625 -4.929688 15.269531 -5.171875 15.4375 -5.359375 C 15.601562 -5.546875 15.84375 -5.78125 16.15625 -6.0625 C 16.675781 -6.476562 17.078125 -6.90625 17.359375 -7.34375 C 17.648438 -7.789062 17.835938 -8.472656 17.921875 -9.390625 L 18.5625 -14.171875 L 10.296875 -12.796875 L 9.390625 -9.546875 C 9.003906 -8.140625 8.875 -7.066406 9 -6.328125 C 9.070312 -5.898438 9.195312 -5.566406 9.375 -5.328125 C 9.5625 -5.097656 9.820312 -4.859375 10.15625 -4.609375 C 10.4375 -4.378906 10.640625 -4.171875 10.765625 -3.984375 C 10.890625 -3.804688 10.941406 -3.554688 10.921875 -3.234375 C 10.867188 -2.679688 10.640625 -2.269531 10.234375 -2 C 9.828125 -1.726562 9.148438 -1.515625 8.203125 -1.359375 L 0.328125 -0.046875 C -0.484375 0.0859375 -1.128906 0.0390625 -1.609375 -0.1875 C -2.085938 -0.414062 -2.363281 -0.78125 -2.4375 -1.28125 C -2.53125 -1.84375 -2.398438 -2.320312 -2.046875 -2.71875 C -1.703125 -3.125 -1.15625 -3.585938 -0.40625 -4.109375 C 0.550781 -4.828125 1.304688 -5.488281 1.859375 -6.09375 C 2.421875 -6.707031 2.847656 -7.507812 3.140625 -8.5 L 9.3125 -29.59375 C 10.25 -32.863281 11.582031 -35.335938 13.3125 -37.015625 C 15.039062 -38.691406 17.503906 -39.796875 20.703125 -40.328125 C 24.304688 -40.929688 27.210938 -40.664062 29.421875 -39.53125 C 31.640625 -38.394531 32.96875 -36.523438 33.40625 -33.921875 C 33.582031 -32.828125 33.597656 -31.671875 33.453125 -30.453125 Z M 19.265625 -19.734375 L 20.515625 -29.5 C 20.585938 -29.945312 20.585938 -30.394531 20.515625 -30.84375 C 20.398438 -31.519531 20.128906 -31.992188 19.703125 -32.265625 C 19.273438 -32.535156 18.726562 -32.613281 18.0625 -32.5 C 17.207031 -32.363281 16.523438 -32 16.015625 -31.40625 C 15.503906 -30.8125 15.050781 -29.832031 14.65625 -28.46875 L 11.859375 -18.5 Z M 19.265625 -19.734375 "/></g></g></g><g fill="#2065d1" fill-opacity="1"><g transform="translate(555.414792, 92.067794)"><g><path d="M 45.703125 -14.28125 C 44.648438 -12.414062 43.21875 -11.101562 41.40625 -10.34375 C 39.601562 -9.59375 37.507812 -9.367188 35.125 -9.671875 C 36.75 -9.109375 37.875 -8.304688 38.5 -7.265625 C 39.125 -6.234375 39.269531 -5.046875 38.9375 -3.703125 C 38.8125 -3.171875 38.570312 -2.550781 38.21875 -1.84375 L 37 0.5625 C 36.851562 0.894531 36.765625 1.128906 36.734375 1.265625 C 36.617188 1.722656 36.632812 2.085938 36.78125 2.359375 C 36.9375 2.640625 37.203125 2.828125 37.578125 2.921875 C 38.304688 3.097656 38.8125 3.332031 39.09375 3.625 C 39.382812 3.914062 39.398438 4.328125 39.140625 4.859375 C 38.816406 5.609375 38.210938 6.28125 37.328125 6.875 C 36.441406 7.46875 35.304688 7.859375 33.921875 8.046875 C 32.535156 8.242188 30.941406 8.125 29.140625 7.6875 C 26.847656 7.113281 25.148438 6.148438 24.046875 4.796875 C 22.941406 3.441406 22.625 1.804688 23.09375 -0.109375 C 23.269531 -0.828125 23.566406 -1.578125 23.984375 -2.359375 L 25.640625 -5.5 C 25.898438 -5.90625 26.085938 -6.351562 26.203125 -6.84375 C 26.398438 -7.644531 26.269531 -8.285156 25.8125 -8.765625 C 25.363281 -9.242188 24.546875 -9.628906 23.359375 -9.921875 L 21.390625 -10.40625 L 16.875 -2.359375 C 16.75 -2.160156 16.648438 -1.90625 16.578125 -1.59375 C 16.453125 -1.101562 16.46875 -0.65625 16.625 -0.25 C 16.78125 0.144531 17.019531 0.585938 17.34375 1.078125 C 17.59375 1.390625 17.773438 1.679688 17.890625 1.953125 C 18.003906 2.234375 18.03125 2.492188 17.96875 2.734375 C 17.820312 3.316406 17.441406 3.660156 16.828125 3.765625 C 16.222656 3.867188 15.382812 3.789062 14.3125 3.53125 L 1.25 0.3125 C 0.34375 0.0820312 -0.289062 -0.25 -0.65625 -0.6875 C -1.019531 -1.125 -1.066406 -1.617188 -0.796875 -2.171875 C -0.640625 -2.472656 -0.441406 -2.691406 -0.203125 -2.828125 C 0.0234375 -2.972656 0.363281 -3.125 0.8125 -3.28125 C 1.476562 -3.476562 2.03125 -3.726562 2.46875 -4.03125 C 2.914062 -4.332031 3.34375 -4.851562 3.75 -5.59375 L 15.640625 -26.4375 C 15.890625 -26.863281 16.0625 -27.285156 16.15625 -27.703125 C 16.257812 -28.085938 16.28125 -28.421875 16.21875 -28.703125 C 16.164062 -28.992188 16.070312 -29.335938 15.9375 -29.734375 C 15.738281 -30.265625 15.671875 -30.664062 15.734375 -30.9375 C 15.765625 -31.050781 15.847656 -31.238281 15.984375 -31.5 C 16.242188 -31.914062 16.628906 -32.160156 17.140625 -32.234375 C 17.648438 -32.304688 18.390625 -32.222656 19.359375 -31.984375 L 36.796875 -27.6875 C 39.191406 -27.09375 41.191406 -26.210938 42.796875 -25.046875 C 44.398438 -23.878906 45.523438 -22.546875 46.171875 -21.046875 C 46.816406 -19.546875 46.941406 -18 46.546875 -16.40625 C 46.359375 -15.675781 46.078125 -14.96875 45.703125 -14.28125 Z M 32.484375 -18.09375 C 32.867188 -18.851562 33.113281 -19.4375 33.21875 -19.84375 C 33.675781 -21.6875 32.898438 -22.851562 30.890625 -23.34375 L 28.703125 -23.890625 L 24.125 -15.25 L 26.3125 -14.703125 C 27.65625 -14.378906 28.800781 -14.445312 29.75 -14.90625 C 30.695312 -15.363281 31.609375 -16.425781 32.484375 -18.09375 Z M 32.484375 -18.09375 "/></g></g></g><g fill="#2065d1" fill-opacity="1"><g transform="translate(590.057935, 97.123188)"><g><path d="M 66.546875 12.640625 C 67.097656 13.148438 67.445312 13.628906 67.59375 14.078125 C 67.738281 14.523438 67.664062 14.90625 67.375 15.21875 C 67.25 15.351562 67.050781 15.484375 66.78125 15.609375 C 66.476562 15.773438 66.195312 15.851562 65.9375 15.84375 C 65.6875 15.832031 65.335938 15.789062 64.890625 15.71875 C 64.253906 15.5625 63.675781 15.507812 63.15625 15.5625 C 62.644531 15.625 62.015625 15.875 61.265625 16.3125 L 40.859375 28.859375 C 40.441406 29.097656 40.085938 29.378906 39.796875 29.703125 C 39.535156 29.984375 39.359375 30.265625 39.265625 30.546875 C 39.179688 30.835938 39.097656 31.1875 39.015625 31.59375 C 39.003906 31.820312 38.96875 32.046875 38.90625 32.265625 C 38.84375 32.484375 38.738281 32.671875 38.59375 32.828125 C 38.550781 32.878906 38.40625 32.984375 38.15625 33.140625 C 37.75 33.390625 37.28125 33.421875 36.75 33.234375 C 36.21875 33.046875 35.597656 32.625 34.890625 31.96875 L 25.625 23.453125 C 25.0625 22.953125 24.710938 22.46875 24.578125 22 C 24.441406 21.53125 24.523438 21.132812 24.828125 20.8125 C 24.960938 20.664062 25.160156 20.535156 25.421875 20.421875 C 25.660156 20.304688 25.921875 20.238281 26.203125 20.21875 C 26.484375 20.207031 26.710938 20.222656 26.890625 20.265625 C 27.066406 20.316406 27.207031 20.34375 27.3125 20.34375 C 27.957031 20.488281 28.539062 20.535156 29.0625 20.484375 C 29.582031 20.441406 30.210938 20.203125 30.953125 19.765625 L 43.75 11.859375 L 21.890625 15.15625 C 20.097656 15.40625 18.769531 15.484375 17.90625 15.390625 C 17.050781 15.304688 16.289062 14.957031 15.625 14.34375 C 15 13.769531 14.691406 13.113281 14.703125 12.375 C 14.722656 11.644531 15.039062 10.660156 15.65625 9.421875 L 23.125 -6.171875 L 10.828125 1.359375 C 10.410156 1.609375 10.0625 1.890625 9.78125 2.203125 C 9.488281 2.515625 9.289062 2.816406 9.1875 3.109375 C 9.082031 3.410156 9.015625 3.765625 8.984375 4.171875 C 8.898438 4.734375 8.765625 5.117188 8.578125 5.328125 C 8.523438 5.378906 8.378906 5.488281 8.140625 5.65625 C 7.691406 5.914062 7.21875 5.945312 6.71875 5.75 C 6.21875 5.5625 5.597656 5.128906 4.859375 4.453125 L 1.578125 1.453125 C 1.023438 0.941406 0.679688 0.457031 0.546875 0 C 0.410156 -0.457031 0.488281 -0.847656 0.78125 -1.171875 C 0.925781 -1.328125 1.128906 -1.460938 1.390625 -1.578125 C 1.742188 -1.765625 2.113281 -1.828125 2.5 -1.765625 C 2.882812 -1.710938 3.113281 -1.675781 3.1875 -1.65625 C 3.851562 -1.519531 4.441406 -1.46875 4.953125 -1.5 C 5.472656 -1.539062 6.113281 -1.796875 6.875 -2.265625 L 27.34375 -14.890625 L 28.65625 -17.5625 C 28.882812 -18.082031 29.164062 -18.523438 29.5 -18.890625 C 29.925781 -19.359375 30.390625 -19.554688 30.890625 -19.484375 C 31.390625 -19.421875 31.957031 -19.101562 32.59375 -18.53125 L 38.71875 -12.90625 C 39.5 -12.175781 39.921875 -11.46875 39.984375 -10.78125 C 40.046875 -10.09375 39.8125 -9.21875 39.28125 -8.15625 L 31.203125 8.5625 L 54.109375 5.078125 C 55.566406 4.878906 56.75 4.941406 57.65625 5.265625 C 58.570312 5.585938 59.570312 6.25 60.65625 7.25 Z M 66.546875 12.640625 "/></g></g></g><g fill="#2065d1" fill-opacity="1"><g transform="translate(625.577143, 130.607931)"><g><path d="M 40.6875 6.625 C 41.363281 8.5 41.757812 10.316406 41.875 12.078125 C 42 13.835938 41.875 15.71875 41.5 17.71875 L 42.875 18.53125 C 43.8125 19.101562 44.488281 19.609375 44.90625 20.046875 C 45.332031 20.484375 45.664062 21.039062 45.90625 21.71875 C 46.195312 22.519531 46.25 23.21875 46.0625 23.8125 C 45.882812 24.40625 45.460938 24.820312 44.796875 25.0625 C 44.523438 25.164062 44.21875 25.222656 43.875 25.234375 L 36.15625 25.625 C 35.269531 25.6875 34.59375 25.597656 34.125 25.359375 C 33.664062 25.128906 33.304688 24.660156 33.046875 23.953125 C 32.773438 23.210938 32.765625 22.484375 33.015625 21.765625 C 33.273438 21.054688 33.898438 19.859375 34.890625 18.171875 C 35.804688 16.503906 36.367188 15.09375 36.578125 13.9375 C 36.785156 12.789062 36.707031 11.710938 36.34375 10.703125 C 36.070312 9.953125 35.601562 9.410156 34.9375 9.078125 C 34.269531 8.742188 33.582031 8.707031 32.875 8.96875 C 32.0625 9.257812 31.457031 9.929688 31.0625 10.984375 C 30.664062 12.046875 30.253906 13.625 29.828125 15.71875 C 29.421875 17.832031 29.003906 19.613281 28.578125 21.0625 C 28.148438 22.519531 27.460938 23.875 26.515625 25.125 C 25.566406 26.375 24.285156 27.289062 22.671875 27.875 C 21.628906 28.25 20.523438 28.460938 19.359375 28.515625 C 16.378906 28.679688 13.769531 27.851562 11.53125 26.03125 C 9.300781 24.21875 7.628906 21.769531 6.515625 18.6875 C 5.679688 16.363281 5.242188 14.3125 5.203125 12.53125 C 5.171875 10.757812 5.5 8.820312 6.1875 6.71875 L 4.015625 5.4375 C 3.003906 4.851562 2.273438 4.335938 1.828125 3.890625 C 1.390625 3.453125 1.046875 2.894531 0.796875 2.21875 C 0.515625 1.445312 0.476562 0.765625 0.6875 0.171875 C 0.894531 -0.410156 1.320312 -0.820312 1.96875 -1.0625 C 2.300781 -1.175781 2.675781 -1.234375 3.09375 -1.234375 L 11.5 -1.484375 C 12.46875 -1.515625 13.21875 -1.363281 13.75 -1.03125 C 14.289062 -0.695312 14.691406 -0.160156 14.953125 0.578125 C 15.234375 1.347656 15.21875 2.140625 14.90625 2.953125 C 14.601562 3.765625 13.925781 4.929688 12.875 6.453125 C 11.726562 8.097656 11.015625 9.488281 10.734375 10.625 C 10.460938 11.757812 10.554688 12.972656 11.015625 14.265625 C 11.335938 15.160156 11.726562 15.800781 12.1875 16.1875 C 12.65625 16.570312 13.25 16.75 13.96875 16.71875 C 14.15625 16.726562 14.414062 16.675781 14.75 16.5625 C 15.5625 16.257812 16.160156 15.597656 16.546875 14.578125 C 16.941406 13.566406 17.320312 12.085938 17.6875 10.140625 C 18.101562 8.046875 18.523438 6.3125 18.953125 4.9375 C 19.390625 3.5625 20.085938 2.253906 21.046875 1.015625 C 22.003906 -0.210938 23.320312 -1.128906 25 -1.734375 C 26.1875 -2.160156 27.414062 -2.394531 28.6875 -2.4375 C 31.269531 -2.570312 33.660156 -1.800781 35.859375 -0.125 C 38.054688 1.550781 39.664062 3.800781 40.6875 6.625 Z M 40.6875 6.625 "/></g></g></g><path fill="#d6a887" d="M 559.121094 202.90625 L 559.121094 223.015625 C 559.148438 223.261719 560.0625 231.21875 573.925781 230.710938 C 574.074219 230.707031 588.71875 230.105469 589.21875 221.941406 L 589.792969 202.121094 C 587.292969 204.363281 582.011719 207.984375 573.957031 207.984375 C 566.648438 207.984375 561.742188 205.058594 559.121094 202.90625 " fill-opacity="1" fill-rule="nonzero"/><path fill="#e1bc9b" d="M 549.097656 181.789062 C 549.335938 186.722656 550.625 190.664062 547.148438 190.835938 C 544.925781 190.941406 542.933594 187.035156 542.691406 182.101562 C 542.449219 177.175781 544.054688 173.09375 546.273438 172.984375 C 548.496094 172.875 548.855469 176.863281 549.097656 181.789062 " fill-opacity="1" fill-rule="nonzero"/><path fill="#e1bc9b" d="M 605.136719 182.203125 C 604.785156 187.132812 602.703125 190.992188 600.484375 190.832031 C 597.46875 190.621094 598.445312 186.679688 598.792969 181.753906 C 599.140625 176.832031 599.53125 172.847656 601.746094 173.007812 C 603.96875 173.164062 605.484375 177.285156 605.136719 182.203125 " fill-opacity="1" fill-rule="nonzero"/><path fill="#e1bc9b" d="M 599.753906 169.917969 C 599.753906 187.082031 599.753906 216.535156 574.070312 216.535156 C 548.386719 216.535156 548.386719 187.082031 548.386719 169.917969 C 548.386719 152.753906 559.886719 138.839844 574.070312 138.839844 C 588.253906 138.839844 599.753906 152.753906 599.753906 169.917969 " fill-opacity="1" fill-rule="nonzero"/><path fill="#2d3d48" d="M 549.097656 219.476562 L 559.121094 217.027344 C 559.121094 217.027344 558.546875 226.523438 572.980469 226.523438 C 586.796875 226.523438 589.246094 224.910156 589.378906 216.308594 L 599.617188 219.148438 C 611.367188 222.296875 619.539062 232.964844 619.539062 245.148438 L 619.539062 251.714844 C 619.539062 255.648438 616.359375 258.835938 612.433594 258.835938 L 535.707031 258.835938 C 531.78125 258.835938 528.601562 255.648438 528.601562 251.714844 L 528.601562 245.628906 C 528.601562 233.21875 537.066406 222.417969 549.097656 219.476562 " fill-opacity="1" fill-rule="nonzero"/><path fill="#79471b" d="M 540.433594 224.410156 L 540.433594 250.132812 L 550.796875 250.132812 L 550.796875 218.550781 L 544.929688 219.296875 C 542.359375 219.625 540.433594 221.8125 540.433594 224.410156 " fill-opacity="1" fill-rule="nonzero"/><path fill="#79471b" d="M 608.738281 224.027344 L 608.738281 249.753906 L 598.378906 249.753906 L 598.378906 218.171875 L 604.242188 218.914062 C 606.8125 219.242188 608.738281 221.433594 608.738281 224.027344 " fill-opacity="1" fill-rule="nonzero"/><g clip-path="url(#ffab471b0c)"><path fill="#79471b" d="M 603.707031 264.054688 L 545.207031 264.054688 C 541.28125 264.054688 538.101562 260.871094 538.101562 256.9375 L 538.101562 239.824219 L 610.8125 239.824219 L 610.8125 256.9375 C 610.8125 260.871094 607.632812 264.054688 603.707031 264.054688 " fill-opacity="1" fill-rule="nonzero"/></g><path fill="#f8f8f8" d="M 551.453125 250.132812 L 539.777344 250.132812 L 539.777344 239.824219 L 541.089844 239.824219 L 541.089844 248.820312 L 550.140625 248.820312 L 550.140625 239.824219 L 551.453125 239.824219 L 551.453125 250.132812 " fill-opacity="1" fill-rule="nonzero"/><path fill="#f8f8f8" d="M 609.394531 250.132812 L 597.71875 250.132812 L 597.71875 239.824219 L 599.035156 239.824219 L 599.035156 248.820312 L 608.082031 248.820312 L 608.082031 239.824219 L 609.394531 239.824219 L 609.394531 250.132812 " fill-opacity="1" fill-rule="nonzero"/><path fill="#f8f8f8" d="M 547.585938 244.453125 C 547.585938 245.542969 546.703125 246.429688 545.617188 246.429688 C 544.527344 246.429688 543.644531 245.542969 543.644531 244.453125 C 543.644531 243.367188 544.527344 242.480469 545.617188 242.480469 C 546.703125 242.480469 547.585938 243.367188 547.585938 244.453125 " fill-opacity="1" fill-rule="nonzero"/><path fill="#f8f8f8" d="M 605.527344 244.453125 C 605.527344 245.542969 604.644531 246.429688 603.558594 246.429688 C 602.46875 246.429688 601.589844 245.542969 601.589844 244.453125 C 601.589844 243.367188 602.46875 242.480469 603.558594 242.480469 C 604.644531 242.480469 605.527344 243.367188 605.527344 244.453125 " fill-opacity="1" fill-rule="nonzero"/><path fill="#362018" d="M 599.65625 175.058594 L 598.542969 163.414062 L 598.0625 159.042969 L 598.042969 158.886719 L 598.039062 158.824219 C 598.039062 158.824219 597.992188 158.863281 597.902344 158.933594 C 597.816406 159.003906 597.683594 159.109375 597.515625 159.238281 C 596.074219 160.371094 591.839844 163.574219 587.140625 165.976562 C 585.019531 167.054688 582.800781 167.976562 580.703125 168.472656 L 581.738281 166.574219 L 583.976562 162.457031 L 584.386719 161.703125 L 586.234375 158.3125 C 586.074219 158.367188 580.25 160.503906 573.175781 162.414062 C 572.566406 162.578125 571.945312 162.742188 571.320312 162.902344 C 566.359375 164.167969 560.984375 165.242188 556.617188 165.378906 C 555.324219 165.421875 554.121094 165.378906 553.039062 165.238281 L 548.410156 175.503906 C 548.410156 175.503906 546.53125 168.460938 546.386719 161.230469 C 546.355469 159.808594 546.394531 158.375 546.53125 156.992188 C 546.542969 156.851562 546.554688 156.710938 546.574219 156.570312 C 546.574219 156.53125 546.582031 156.5 546.585938 156.460938 C 546.730469 155.195312 546.90625 153.859375 547.175781 152.507812 C 548.667969 145.179688 553.144531 137.332031 572.636719 136.597656 C 593.007812 135.832031 599.089844 144.671875 601.257812 153.039062 C 601.632812 154.472656 601.886719 155.898438 602.078125 157.25 C 602.085938 157.300781 602.09375 157.351562 602.101562 157.398438 C 602.207031 158.191406 602.296875 158.960938 602.375 159.695312 C 602.453125 160.410156 602.5 161.105469 602.523438 161.785156 C 602.773438 169.488281 599.65625 175.058594 599.65625 175.058594 " fill-opacity="1" fill-rule="nonzero"/><g clip-path="url(#3c054cf5c7)"><path fill="#bb853e" d="M 626.1875 159.683594 L 521.953125 159.683594 L 544.261719 152.433594 L 544.511719 152.339844 C 544.511719 150.898438 544.632812 149.488281 544.871094 148.117188 C 546.867188 136.4375 557.027344 124.6875 569.257812 124.6875 L 578.878906 124.6875 C 591.113281 124.6875 601.269531 136.4375 603.265625 148.117188 C 603.503906 149.488281 603.628906 150.898438 603.628906 152.339844 L 603.878906 152.433594 L 626.1875 159.683594 " fill-opacity="1" fill-rule="nonzero"/></g><path fill="#bfb290" d="M 603.878906 152.433594 L 544.261719 152.433594 L 544.511719 152.339844 C 544.511719 150.898438 544.632812 149.488281 544.871094 148.117188 L 603.265625 148.117188 C 603.503906 149.488281 603.628906 150.898438 603.628906 152.339844 L 603.878906 152.433594 " fill-opacity="1" fill-rule="nonzero"/><g fill="#f5fff9" fill-opacity="1"><g transform="translate(44.247105, 143.750016)"><g><path d="M 76.734375 -47.039062 C 69.886719 -44.476562 66.941406 -33.152344 61.4375 -15.296875 C 59.835938 -10.113281 56.957031 -5.183594 53.4375 -5.183594 C 49.917969 -5.183594 49.855469 -8.511719 50.8125 -11.902344 C 53.820312 -22.589844 58.558594 -36.480469 60.351562 -41.46875 C 59.710938 -44.222656 51.390625 -44.542969 50.175781 -42.6875 C 48.0625 -36.285156 43.710938 -24.191406 41.277344 -16.382812 C 39.101562 -9.34375 35.453125 -5.246094 33.023438 -5.246094 C 29.503906 -5.246094 29.757812 -9.726562 31.167969 -14.335938 C 35.964844 -29.949219 37.308594 -33.214844 40.320312 -42.367188 C 40.191406 -44.160156 31.808594 -44.542969 29.886719 -42.621094 C 22.976562 -34.878906 6.976562 -38.207031 5.503906 -29.183594 C 4.609375 -23.550781 9.023438 -19.773438 15.550781 -20.542969 C 16.960938 -20.925781 17.855469 -24.191406 17.214844 -24.894531 C 15.617188 -25.664062 14.976562 -27.136719 15.421875 -28.925781 C 16.574219 -33.277344 24 -31.292969 27.328125 -35.582031 C 25.085938 -28.414062 22.71875 -22.398438 21.3125 -17.214844 C 18.238281 -5.632812 20.863281 0.574219 30.144531 0.574219 C 35.902344 0.574219 40.382812 -2.113281 43.328125 -7.808594 C 43.582031 -3.710938 46.207031 0.574219 53.054688 0.574219 C 63.933594 0.574219 69.054688 -5.632812 72.0625 -16.128906 C 74.878906 -25.984375 78.84375 -36.992188 83.515625 -40.382812 C 84.667969 -42.6875 80.253906 -47.871094 76.734375 -47.039062 Z M 76.734375 -47.039062 "/></g></g></g><g fill="#f5fff9" fill-opacity="1"><g transform="translate(123.986213, 143.750016)"><g><path d="M 18.109375 -27.199219 C 8.832031 -27.328125 1.664062 -21.3125 0.832031 -12.414062 C 0.191406 -5.632812 4.222656 0.574219 15.296875 0.640625 C 23.101562 0.703125 29.246094 -2.496094 34.238281 -11.582031 C 34.558594 -12.160156 31.871094 -13.953125 31.421875 -13.054688 C 28.09375 -6.71875 22.398438 -5.183594 18.75 -5.246094 C 14.144531 -5.3125 11.519531 -6.785156 11.199219 -10.175781 C 18.429688 -9.085938 24.320312 -11.328125 26.496094 -15.871094 C 29.183594 -20.925781 26.429688 -27.070312 18.109375 -27.199219 Z M 17.214844 -21.121094 C 18.175781 -20.992188 18.429688 -19.96875 18.046875 -18.6875 C 17.472656 -16.640625 15.230469 -14.144531 11.519531 -14.269531 C 12.480469 -18.429688 14.910156 -21.4375 17.214844 -21.121094 Z M 17.214844 -21.121094 "/></g></g></g><g fill="#f5fff9" fill-opacity="1"><g transform="translate(154.512342, 143.750016)"><g><path d="M 14.335938 -42.75 C 8.320312 -39.359375 4.160156 -30.589844 2.238281 -21.4375 C -0.320312 -9.152344 0.832031 -0.449219 10.6875 0.449219 C 20.222656 1.34375 24.832031 -4.480469 28.605469 -11.582031 C 28.863281 -12.09375 26.304688 -13.886719 25.917969 -13.121094 C 22.335938 -6.273438 17.664062 -5.121094 14.71875 -5.183594 C 10.367188 -5.3125 9.152344 -8.832031 10.558594 -14.910156 C 20.289062 -17.472656 26.621094 -23.808594 28.285156 -32.125 C 30.335938 -42.300781 21.375 -46.71875 14.335938 -42.75 Z M 19.457031 -37.566406 C 21.054688 -37.566406 20.605469 -33.726562 19.136719 -29.886719 C 17.726562 -26.367188 14.785156 -21.949219 11.710938 -20.542969 C 12.542969 -23.613281 14.078125 -27.839844 15.167969 -30.847656 C 16.574219 -34.558594 18.109375 -37.566406 19.457031 -37.566406 Z M 19.457031 -37.566406 "/></g></g></g><g fill="#f5fff9" fill-opacity="1"><g transform="translate(179.470806, 143.750016)"><g><path d="M 18.109375 -27.261719 C 7.871094 -27.390625 0.894531 -20.09375 0.703125 -11.710938 C 0.574219 -5.054688 5.503906 0.191406 12.289062 0.449219 C 19.328125 0.703125 26.367188 -1.664062 31.550781 -11.582031 C 31.871094 -12.09375 29.183594 -13.953125 28.800781 -13.054688 C 26.046875 -7.488281 21.886719 -5.632812 17.984375 -5.375 C 14.015625 -5.183594 10.945312 -7.488281 11.328125 -12.289062 C 11.777344 -17.855469 14.910156 -21.4375 17.085938 -21.246094 C 18.6875 -21.121094 16.832031 -17.535156 16.382812 -16.640625 C 17.085938 -14.464844 23.871094 -14.785156 25.535156 -17.023438 C 27.710938 -20.925781 27.390625 -27.136719 18.109375 -27.261719 Z M 18.109375 -27.261719 "/></g></g></g><g fill="#f5fff9" fill-opacity="1"><g transform="translate(207.309095, 143.750016)"><g><path d="M 18.304688 -27.390625 C 10.429688 -27.453125 3.136719 -22.910156 0.960938 -13.632812 C -1.535156 -3.136719 4.03125 0.640625 11.582031 0.640625 C 15.871094 0.640625 19.902344 -0.640625 23.101562 -3.265625 C 27.648438 -2.75 33.40625 -2.945312 37.886719 -11.519531 C 38.269531 -12.222656 35.582031 -13.953125 35.132812 -13.054688 C 32.894531 -8.382812 29.3125 -6.273438 26.304688 -6.65625 C 32.125 -16.191406 30.269531 -27.261719 18.304688 -27.390625 Z M 16.894531 -21.4375 C 20.09375 -21.503906 19.648438 -16.191406 17.917969 -10.945312 C 15.742188 -10.878906 14.335938 -8.191406 15.359375 -6.273438 C 14.71875 -5.632812 13.886719 -5.246094 13.054688 -5.246094 C 9.34375 -5.246094 10.558594 -10.046875 11.582031 -13.824219 C 12.800781 -18.238281 14.589844 -21.375 16.894531 -21.4375 Z M 16.894531 -21.4375 "/></g></g></g><g fill="#f5fff9" fill-opacity="1"><g transform="translate(241.546989, 143.750016)"><g><path d="M 38.847656 0.511719 C 46.207031 0.128906 50.75 -6.464844 53.5 -11.519531 C 53.886719 -12.160156 51.199219 -13.953125 50.75 -13.054688 C 48.316406 -8 44.992188 -5.375 43.390625 -5.375 C 40.0625 -5.375 43.710938 -14.207031 44.925781 -18.878906 C 46.269531 -23.933594 44.671875 -27.390625 39.039062 -27.390625 C 35.132812 -27.390625 31.230469 -25.214844 28.671875 -22.71875 C 28.734375 -25.789062 26.878906 -27.390625 23.679688 -27.390625 C 20.222656 -27.390625 15.871094 -24.574219 13.441406 -22.589844 C 13.632812 -23.230469 14.207031 -25.085938 14.464844 -25.726562 C 13.375 -27.839844 6.589844 -28.285156 4.863281 -26.878906 C 2.175781 -18.429688 -0.191406 -9.664062 -2.367188 -1.214844 C -2.238281 1.28125 6.976562 1.023438 7.9375 -0.703125 C 9.28125 -6.589844 10.496094 -11.648438 12.289062 -17.664062 C 13.953125 -19.261719 15.617188 -20.160156 16.894531 -20.289062 C 18.238281 -20.414062 18.496094 -19.457031 18.175781 -18.238281 C 16.703125 -12.414062 15.296875 -6.910156 14.015625 -0.960938 C 14.847656 1.28125 23.359375 0.894531 24.320312 -0.574219 C 25.472656 -5.566406 27.328125 -13.632812 28.605469 -18.046875 C 30.015625 -19.328125 31.421875 -20.351562 32.832031 -20.414062 C 34.496094 -20.480469 34.6875 -19.328125 34.300781 -17.726562 C 33.664062 -14.976562 32.320312 -9.726562 31.871094 -7.742188 C 30.71875 -2.6875 32.320312 0.832031 38.847656 0.511719 Z M 38.847656 0.511719 "/></g></g></g><g fill="#f5fff9" fill-opacity="1"><g transform="translate(291.399922, 143.750016)"><g><path d="M 18.109375 -27.199219 C 8.832031 -27.328125 1.664062 -21.3125 0.832031 -12.414062 C 0.191406 -5.632812 4.222656 0.574219 15.296875 0.640625 C 23.101562 0.703125 29.246094 -2.496094 34.238281 -11.582031 C 34.558594 -12.160156 31.871094 -13.953125 31.421875 -13.054688 C 28.09375 -6.71875 22.398438 -5.183594 18.75 -5.246094 C 14.144531 -5.3125 11.519531 -6.785156 11.199219 -10.175781 C 18.429688 -9.085938 24.320312 -11.328125 26.496094 -15.871094 C 29.183594 -20.925781 26.429688 -27.070312 18.109375 -27.199219 Z M 17.214844 -21.121094 C 18.175781 -20.992188 18.429688 -19.96875 18.046875 -18.6875 C 17.472656 -16.640625 15.230469 -14.144531 11.519531 -14.269531 C 12.480469 -18.429688 14.910156 -21.4375 17.214844 -21.121094 Z M 17.214844 -21.121094 "/></g></g></g><g fill="#f5fff9" fill-opacity="1"><g transform="translate(321.926051, 143.750016)"><g/></g></g><g fill="#f5fff9" fill-opacity="1"><g transform="translate(336.645143, 143.750016)"><g><path d="M 10.6875 0.511719 C 17.28125 0.511719 21.632812 -3.96875 25.277344 -11.519531 C 25.597656 -12.160156 22.976562 -13.953125 22.527344 -13.054688 C 18.878906 -5.761719 14.65625 -5.054688 12.414062 -5.183594 C 9.792969 -5.375 10.113281 -9.214844 11.390625 -14.527344 C 12.03125 -17.152344 12.992188 -20.222656 13.886719 -23.296875 L 18.816406 -23.296875 C 19.96875 -23.871094 20.925781 -27.648438 19.390625 -28.925781 L 15.421875 -28.925781 C 16.703125 -33.46875 17.855469 -37.375 19.261719 -41.726562 C 18.6875 -44.222656 10.429688 -44.734375 9.152344 -43.199219 C 8.191406 -40.511719 6.273438 -34.238281 4.609375 -28.925781 L 2.433594 -28.925781 C 1.089844 -28.671875 0.128906 -24 1.472656 -23.296875 L 3.070312 -23.296875 C -0.191406 -10.496094 -1.792969 0.511719 10.6875 0.511719 Z M 10.6875 0.511719 "/></g></g></g><g fill="#f5fff9" fill-opacity="1"><g transform="translate(358.211807, 143.750016)"><g><path d="M 18.304688 -27.390625 C 10.429688 -27.453125 3.136719 -22.910156 0.960938 -13.632812 C -1.535156 -3.136719 4.03125 0.640625 11.582031 0.640625 C 15.871094 0.640625 19.902344 -0.640625 23.101562 -3.265625 C 27.648438 -2.75 33.40625 -2.945312 37.886719 -11.519531 C 38.269531 -12.222656 35.582031 -13.953125 35.132812 -13.054688 C 32.894531 -8.382812 29.3125 -6.273438 26.304688 -6.65625 C 32.125 -16.191406 30.269531 -27.261719 18.304688 -27.390625 Z M 16.894531 -21.4375 C 20.09375 -21.503906 19.648438 -16.191406 17.917969 -10.945312 C 15.742188 -10.878906 14.335938 -8.191406 15.359375 -6.273438 C 14.71875 -5.632812 13.886719 -5.246094 13.054688 -5.246094 C 9.34375 -5.246094 10.558594 -10.046875 11.582031 -13.824219 C 12.800781 -18.238281 14.589844 -21.375 16.894531 -21.4375 Z M 16.894531 -21.4375 "/></g></g></g><g fill="#f5fff9" fill-opacity="1"><g transform="translate(15.447746, 234.349993)"><g><path d="M 27.84375 0.484375 C 23.363281 0.484375 19.335938 -0.34375 15.765625 -2 C 12.191406 -3.65625 9.347656 -6.09375 7.234375 -9.3125 C 5.128906 -12.539062 4.078125 -16.453125 4.078125 -21.046875 C 4.078125 -24.242188 4.640625 -27.707031 5.765625 -31.4375 C 8.210938 -39.4375 11.914062 -45.207031 16.875 -48.75 C 21.832031 -52.300781 27.140625 -54.078125 32.796875 -54.078125 C 35.835938 -54.078125 38.53125 -53.625 40.875 -52.71875 C 43.226562 -51.8125 45.390625 -50.503906 47.359375 -48.796875 L 49.515625 -50.484375 C 50.960938 -51.597656 52.175781 -52.367188 53.15625 -52.796875 C 54.144531 -53.222656 55.253906 -53.4375 56.484375 -53.4375 C 57.816406 -53.4375 58.878906 -53.144531 59.671875 -52.5625 C 60.472656 -51.976562 60.875 -51.125 60.875 -50 C 60.875 -49.414062 60.769531 -48.828125 60.5625 -48.234375 L 56.078125 -35.765625 C 55.597656 -34.316406 55.023438 -33.300781 54.359375 -32.71875 C 53.691406 -32.132812 52.691406 -31.84375 51.359375 -31.84375 C 49.972656 -31.84375 48.835938 -32.332031 47.953125 -33.3125 C 47.078125 -34.300781 46.078125 -36 44.953125 -38.40625 C 43.679688 -40.90625 42.644531 -42.554688 41.84375 -43.359375 C 41.039062 -44.160156 39.863281 -44.5625 38.3125 -44.5625 C 36.132812 -44.5625 34.03125 -43.210938 32 -40.515625 C 29.96875 -37.828125 28.128906 -33.789062 26.484375 -28.40625 C 25.097656 -23.863281 24.40625 -20.078125 24.40625 -17.046875 C 24.40625 -14.378906 24.910156 -12.390625 25.921875 -11.078125 C 26.929688 -9.773438 28.289062 -9.125 30 -9.125 C 32.507812 -9.125 34.578125 -9.679688 36.203125 -10.796875 C 37.828125 -11.921875 39.492188 -13.441406 41.203125 -15.359375 C 42.265625 -16.535156 43.128906 -17.398438 43.796875 -17.953125 C 44.460938 -18.515625 45.171875 -18.796875 45.921875 -18.796875 C 46.878906 -18.796875 47.890625 -18.316406 48.953125 -17.359375 C 50.023438 -16.398438 50.535156 -15.441406 50.484375 -14.484375 C 50.535156 -13.304688 49.585938 -11.488281 47.640625 -9.03125 C 45.691406 -6.582031 43 -4.382812 39.5625 -2.4375 C 36.125 -0.488281 32.21875 0.484375 27.84375 0.484375 Z M 27.84375 0.484375 "/></g></g></g><g fill="#f5fff9" fill-opacity="1"><g transform="translate(70.802369, 234.349993)"><g><path d="M 10 -28.15625 C 10.375 -29.707031 11.144531 -30.910156 12.3125 -31.765625 C 13.488281 -32.617188 14.929688 -33.046875 16.640625 -33.046875 L 35.28125 -33.046875 C 38.21875 -33.046875 39.6875 -31.894531 39.6875 -29.59375 C 39.6875 -29.007812 39.628906 -28.53125 39.515625 -28.15625 C 38.503906 -24.90625 36.265625 -23.28125 32.796875 -23.28125 L 14.15625 -23.28125 C 12.71875 -23.28125 11.625 -23.554688 10.875 -24.109375 C 10.132812 -24.671875 9.765625 -25.488281 9.765625 -26.5625 C 9.765625 -27.09375 9.84375 -27.625 10 -28.15625 Z M 10 -28.15625 "/></g></g></g><g fill="#f5fff9" fill-opacity="1"><g transform="translate(116.317945, 234.349993)"><g><path d="M 52.15625 -53.28125 C 54.132812 -53.28125 55.671875 -52.851562 56.765625 -52 C 57.859375 -51.144531 58.40625 -49.972656 58.40625 -48.484375 C 58.40625 -47.734375 58.296875 -47.007812 58.078125 -46.3125 L 56 -38.875 C 55.625 -37.488281 55.007812 -36.503906 54.15625 -35.921875 C 53.300781 -35.335938 52.179688 -35.046875 50.796875 -35.046875 C 49.460938 -35.046875 48.394531 -35.320312 47.59375 -35.875 C 46.800781 -36.4375 46.21875 -37.359375 45.84375 -38.640625 L 44.5625 -43.203125 C 44.34375 -44.003906 44.070312 -44.535156 43.75 -44.796875 C 43.4375 -45.066406 42.773438 -45.203125 41.765625 -45.203125 L 33.765625 -45.203125 L 29.28125 -29.359375 L 30.796875 -29.359375 C 31.546875 -29.359375 32.195312 -29.460938 32.75 -29.671875 C 33.3125 -29.890625 33.914062 -30.289062 34.5625 -30.875 L 37.046875 -32.953125 C 37.953125 -33.753906 38.765625 -34.328125 39.484375 -34.671875 C 40.203125 -35.023438 40.960938 -35.203125 41.765625 -35.203125 C 42.773438 -35.203125 43.613281 -34.90625 44.28125 -34.3125 C 44.945312 -33.726562 45.28125 -32.90625 45.28125 -31.84375 C 45.28125 -31.414062 45.203125 -30.90625 45.046875 -30.3125 L 41.515625 -18.15625 C 40.710938 -15.539062 39.273438 -14.234375 37.203125 -14.234375 C 35.492188 -14.234375 34.160156 -15.113281 33.203125 -16.875 L 31.765625 -19.59375 C 31.390625 -20.34375 31.039062 -20.820312 30.71875 -21.03125 C 30.394531 -21.25 29.914062 -21.359375 29.28125 -21.359375 L 26.953125 -21.359375 L 23.59375 -9.4375 C 23.488281 -9.113281 23.4375 -8.6875 23.4375 -8.15625 C 23.4375 -7.414062 23.609375 -6.800781 23.953125 -6.3125 C 24.304688 -5.832031 24.828125 -5.328125 25.515625 -4.796875 C 26.109375 -4.316406 26.507812 -3.929688 26.71875 -3.640625 C 26.9375 -3.347656 27.046875 -2.988281 27.046875 -2.5625 C 27.046875 -1.601562 26.617188 -0.9375 25.765625 -0.5625 C 24.910156 -0.1875 23.65625 0 22 0 L 1.921875 0 C 0.535156 0 -0.5 -0.25 -1.1875 -0.75 C -1.882812 -1.257812 -2.128906 -1.96875 -1.921875 -2.875 C -1.816406 -3.351562 -1.613281 -3.738281 -1.3125 -4.03125 C -1.019531 -4.332031 -0.582031 -4.671875 0 -5.046875 C 0.90625 -5.578125 1.625 -6.132812 2.15625 -6.71875 C 2.6875 -7.300781 3.113281 -8.207031 3.4375 -9.4375 L 13.28125 -43.921875 C 13.488281 -44.609375 13.59375 -45.25 13.59375 -45.84375 C 13.59375 -46.476562 13.5 -47.007812 13.3125 -47.4375 C 13.132812 -47.863281 12.859375 -48.316406 12.484375 -48.796875 C 12.003906 -49.492188 11.765625 -50.054688 11.765625 -50.484375 C 11.765625 -50.640625 11.816406 -50.929688 11.921875 -51.359375 C 12.128906 -52.054688 12.609375 -52.550781 13.359375 -52.84375 C 14.109375 -53.132812 15.203125 -53.28125 16.640625 -53.28125 Z M 52.15625 -53.28125 "/></g></g></g><g fill="#f5fff9" fill-opacity="1"><g transform="translate(166.793047, 234.349993)"><g><path d="M 48.875 -9.4375 C 48.664062 -8.75 48.5625 -8.054688 48.5625 -7.359375 C 48.5625 -6.773438 48.640625 -6.28125 48.796875 -5.875 C 48.960938 -5.476562 49.132812 -5.160156 49.3125 -4.921875 C 49.5 -4.679688 49.625 -4.507812 49.6875 -4.40625 C 50.21875 -3.863281 50.484375 -3.328125 50.484375 -2.796875 C 50.484375 -2.691406 50.425781 -2.425781 50.3125 -2 C 50.101562 -1.25 49.640625 -0.726562 48.921875 -0.4375 C 48.203125 -0.144531 47.09375 0 45.59375 0 L 26.640625 0 C 25.515625 0 24.644531 -0.1875 24.03125 -0.5625 C 23.425781 -0.9375 23.125 -1.441406 23.125 -2.078125 C 23.125 -2.398438 23.203125 -2.75 23.359375 -3.125 C 23.515625 -3.550781 23.738281 -3.882812 24.03125 -4.125 C 24.332031 -4.363281 24.75 -4.640625 25.28125 -4.953125 C 26.132812 -5.441406 26.828125 -5.976562 27.359375 -6.5625 C 27.890625 -7.144531 28.34375 -8.101562 28.71875 -9.4375 L 30.796875 -16.3125 L 18.3125 -16.3125 L 16.15625 -11.765625 C 15.25 -9.785156 14.796875 -8.238281 14.796875 -7.125 C 14.796875 -6.476562 14.898438 -5.953125 15.109375 -5.546875 C 15.328125 -5.148438 15.648438 -4.738281 16.078125 -4.3125 C 16.453125 -3.894531 16.707031 -3.535156 16.84375 -3.234375 C 16.976562 -2.941406 16.988281 -2.554688 16.875 -2.078125 C 16.664062 -1.273438 16.226562 -0.726562 15.5625 -0.4375 C 14.894531 -0.144531 13.84375 0 12.40625 0 L 0.484375 0 C -0.742188 0 -1.675781 -0.222656 -2.3125 -0.671875 C -2.957031 -1.128906 -3.28125 -1.734375 -3.28125 -2.484375 C -3.28125 -3.335938 -2.972656 -4.015625 -2.359375 -4.515625 C -1.742188 -5.023438 -0.820312 -5.570312 0.40625 -6.15625 C 2 -6.957031 3.273438 -7.742188 4.234375 -8.515625 C 5.203125 -9.296875 6.03125 -10.378906 6.71875 -11.765625 L 20.953125 -41.28125 C 23.140625 -45.863281 25.710938 -49.179688 28.671875 -51.234375 C 31.640625 -53.285156 35.550781 -54.3125 40.40625 -54.3125 C 45.84375 -54.3125 50.050781 -53.207031 53.03125 -51 C 56.019531 -48.789062 57.515625 -45.710938 57.515625 -41.765625 C 57.515625 -40.109375 57.25 -38.398438 56.71875 -36.640625 Z M 33.203125 -24.3125 L 37.4375 -38.40625 C 37.65625 -39.039062 37.765625 -39.707031 37.765625 -40.40625 C 37.765625 -41.414062 37.484375 -42.171875 36.921875 -42.671875 C 36.359375 -43.179688 35.570312 -43.4375 34.5625 -43.4375 C 33.28125 -43.4375 32.1875 -43.0625 31.28125 -42.3125 C 30.375 -41.570312 29.46875 -40.238281 28.5625 -38.3125 L 22 -24.3125 Z M 33.203125 -24.3125 "/></g></g></g><g fill="#f5fff9" fill-opacity="1"><g transform="translate(222.627634, 234.349993)"><g><path d="M 61.125 -37.046875 C 60.269531 -33.953125 58.664062 -31.535156 56.3125 -29.796875 C 53.96875 -28.066406 51.007812 -26.988281 47.4375 -26.5625 C 50 -26.34375 51.921875 -25.59375 53.203125 -24.3125 C 54.484375 -23.039062 55.125 -21.363281 55.125 -19.28125 C 55.125 -18.476562 54.988281 -17.488281 54.71875 -16.3125 L 53.84375 -12.40625 C 53.738281 -11.863281 53.6875 -11.488281 53.6875 -11.28125 C 53.6875 -10.582031 53.84375 -10.0625 54.15625 -9.71875 C 54.476562 -9.375 54.929688 -9.203125 55.515625 -9.203125 C 56.640625 -9.203125 57.453125 -9.039062 57.953125 -8.71875 C 58.460938 -8.394531 58.640625 -7.804688 58.484375 -6.953125 C 58.265625 -5.734375 57.617188 -4.535156 56.546875 -3.359375 C 55.484375 -2.179688 53.976562 -1.207031 52.03125 -0.4375 C 50.09375 0.332031 47.734375 0.71875 44.953125 0.71875 C 41.441406 0.71875 38.644531 -0.0664062 36.5625 -1.640625 C 34.476562 -3.210938 33.4375 -5.46875 33.4375 -8.40625 C 33.4375 -9.519531 33.597656 -10.71875 33.921875 -12 L 35.203125 -17.125 C 35.410156 -17.8125 35.515625 -18.53125 35.515625 -19.28125 C 35.515625 -20.507812 35.101562 -21.390625 34.28125 -21.921875 C 33.457031 -22.453125 32.132812 -22.71875 30.3125 -22.71875 L 27.28125 -22.71875 L 23.59375 -9.4375 C 23.488281 -9.113281 23.4375 -8.710938 23.4375 -8.234375 C 23.4375 -7.492188 23.625 -6.851562 24 -6.3125 C 24.375 -5.78125 24.878906 -5.222656 25.515625 -4.640625 C 25.992188 -4.265625 26.367188 -3.90625 26.640625 -3.5625 C 26.910156 -3.21875 27.046875 -2.859375 27.046875 -2.484375 C 27.046875 -1.578125 26.617188 -0.9375 25.765625 -0.5625 C 24.910156 -0.1875 23.65625 0 22 0 L 1.921875 0 C 0.535156 0 -0.5 -0.25 -1.1875 -0.75 C -1.882812 -1.257812 -2.128906 -1.96875 -1.921875 -2.875 C -1.816406 -3.351562 -1.613281 -3.738281 -1.3125 -4.03125 C -1.019531 -4.332031 -0.582031 -4.671875 0 -5.046875 C 0.90625 -5.578125 1.625 -6.132812 2.15625 -6.71875 C 2.6875 -7.300781 3.113281 -8.207031 3.4375 -9.4375 L 13.203125 -43.921875 C 13.410156 -44.609375 13.515625 -45.273438 13.515625 -45.921875 C 13.515625 -46.503906 13.421875 -46.992188 13.234375 -47.390625 C 13.046875 -47.796875 12.796875 -48.265625 12.484375 -48.796875 C 12.003906 -49.492188 11.765625 -50.054688 11.765625 -50.484375 C 11.765625 -50.640625 11.816406 -50.929688 11.921875 -51.359375 C 12.128906 -52.054688 12.59375 -52.550781 13.3125 -52.84375 C 14.039062 -53.132812 15.148438 -53.28125 16.640625 -53.28125 L 43.4375 -53.28125 C 47.113281 -53.28125 50.328125 -52.71875 53.078125 -51.59375 C 55.828125 -50.476562 57.929688 -48.945312 59.390625 -47 C 60.859375 -45.050781 61.59375 -42.851562 61.59375 -40.40625 C 61.59375 -39.28125 61.4375 -38.160156 61.125 -37.046875 Z M 40.640625 -37.84375 C 40.910156 -39.070312 41.046875 -40.003906 41.046875 -40.640625 C 41.046875 -43.460938 39.5 -44.875 36.40625 -44.875 L 33.046875 -44.875 L 29.515625 -30.71875 L 32.875 -30.71875 C 34.957031 -30.71875 36.597656 -31.222656 37.796875 -32.234375 C 38.992188 -33.253906 39.941406 -35.125 40.640625 -37.84375 Z M 40.640625 -37.84375 "/></g></g></g><g fill="#f5fff9" fill-opacity="1"><g transform="translate(283.341741, 234.349993)"><g><path d="M 85.921875 -53.28125 C 87.035156 -53.28125 87.898438 -53.101562 88.515625 -52.75 C 89.128906 -52.40625 89.4375 -51.914062 89.4375 -51.28125 C 89.4375 -51.007812 89.359375 -50.660156 89.203125 -50.234375 C 89.035156 -49.753906 88.804688 -49.394531 88.515625 -49.15625 C 88.222656 -48.914062 87.785156 -48.609375 87.203125 -48.234375 C 86.347656 -47.753906 85.664062 -47.222656 85.15625 -46.640625 C 84.65625 -46.054688 84.21875 -45.148438 83.84375 -43.921875 L 74.078125 -9.515625 C 73.867188 -8.828125 73.765625 -8.160156 73.765625 -7.515625 C 73.765625 -6.929688 73.851562 -6.4375 74.03125 -6.03125 C 74.21875 -5.632812 74.472656 -5.171875 74.796875 -4.640625 C 75.015625 -4.367188 75.203125 -4.085938 75.359375 -3.796875 C 75.515625 -3.503906 75.59375 -3.195312 75.59375 -2.875 C 75.59375 -2.769531 75.539062 -2.503906 75.4375 -2.078125 C 75.226562 -1.390625 74.734375 -0.882812 73.953125 -0.5625 C 73.179688 -0.238281 72.078125 -0.078125 70.640625 -0.078125 L 51.84375 -0.078125 C 50.71875 -0.078125 49.847656 -0.265625 49.234375 -0.640625 C 48.617188 -1.015625 48.3125 -1.519531 48.3125 -2.15625 C 48.3125 -2.476562 48.394531 -2.828125 48.5625 -3.203125 C 48.71875 -3.578125 48.941406 -3.910156 49.234375 -4.203125 C 49.535156 -4.492188 49.804688 -4.707031 50.046875 -4.84375 C 50.285156 -4.976562 50.457031 -5.097656 50.5625 -5.203125 C 51.414062 -5.679688 52.109375 -6.210938 52.640625 -6.796875 C 53.171875 -7.390625 53.625 -8.296875 54 -9.515625 L 60.078125 -31.125 L 39.359375 -5.4375 C 37.648438 -3.351562 36.273438 -1.925781 35.234375 -1.15625 C 34.203125 -0.382812 33.019531 0 31.6875 0 C 30.40625 0 29.398438 -0.410156 28.671875 -1.234375 C 27.953125 -2.066406 27.300781 -3.46875 26.71875 -5.4375 L 19.203125 -30.15625 L 13.28125 -9.4375 C 13.0625 -8.75 12.953125 -8.082031 12.953125 -7.4375 C 12.953125 -6.800781 13.046875 -6.269531 13.234375 -5.84375 C 13.421875 -5.414062 13.703125 -4.960938 14.078125 -4.484375 C 14.554688 -3.785156 14.796875 -3.222656 14.796875 -2.796875 C 14.796875 -2.691406 14.742188 -2.425781 14.640625 -2 C 14.421875 -1.25 13.9375 -0.726562 13.1875 -0.4375 C 12.445312 -0.144531 11.332031 0 9.84375 0 L 3.203125 0 C 2.078125 0 1.207031 -0.1875 0.59375 -0.5625 C -0.0078125 -0.9375 -0.3125 -1.441406 -0.3125 -2.078125 C -0.3125 -2.398438 -0.234375 -2.75 -0.078125 -3.125 C 0.128906 -3.707031 0.472656 -4.15625 0.953125 -4.46875 C 1.441406 -4.789062 1.738281 -4.984375 1.84375 -5.046875 C 2.695312 -5.578125 3.390625 -6.117188 3.921875 -6.671875 C 4.453125 -7.234375 4.90625 -8.15625 5.28125 -9.4375 L 15.046875 -44 L 13.765625 -48.234375 C 13.492188 -49.035156 13.359375 -49.8125 13.359375 -50.5625 C 13.359375 -51.519531 13.664062 -52.210938 14.28125 -52.640625 C 14.894531 -53.066406 15.84375 -53.28125 17.125 -53.28125 L 29.515625 -53.28125 C 31.117188 -53.28125 32.304688 -52.929688 33.078125 -52.234375 C 33.847656 -51.546875 34.472656 -50.347656 34.953125 -48.640625 L 42.953125 -22.078125 L 64.640625 -49.046875 C 66.023438 -50.742188 67.382812 -51.875 68.71875 -52.4375 C 70.050781 -53 71.8125 -53.28125 74 -53.28125 Z M 85.921875 -53.28125 "/></g></g></g><g fill="#f5fff9" fill-opacity="1"><g transform="translate(366.133697, 234.349993)"><g><path d="M 29.921875 -53.765625 C 32.910156 -53.765625 35.671875 -53.398438 38.203125 -52.671875 C 40.734375 -51.953125 43.304688 -50.820312 45.921875 -49.28125 L 47.765625 -50.796875 C 49.046875 -51.804688 50.097656 -52.5 50.921875 -52.875 C 51.742188 -53.25 52.691406 -53.4375 53.765625 -53.4375 C 55.046875 -53.4375 56.054688 -53.15625 56.796875 -52.59375 C 57.546875 -52.039062 57.921875 -51.226562 57.921875 -50.15625 C 57.921875 -49.726562 57.84375 -49.273438 57.6875 -48.796875 L 54.3125 -37.765625 C 53.945312 -36.484375 53.484375 -35.570312 52.921875 -35.03125 C 52.359375 -34.5 51.519531 -34.234375 50.40625 -34.234375 C 49.226562 -34.234375 48.195312 -34.59375 47.3125 -35.3125 C 46.4375 -36.039062 45.066406 -37.523438 43.203125 -39.765625 C 41.335938 -41.890625 39.644531 -43.390625 38.125 -44.265625 C 36.601562 -45.148438 35.039062 -45.59375 33.4375 -45.59375 C 32.269531 -45.59375 31.285156 -45.207031 30.484375 -44.4375 C 29.679688 -43.664062 29.28125 -42.71875 29.28125 -41.59375 C 29.28125 -40.320312 29.921875 -39.140625 31.203125 -38.046875 C 32.484375 -36.953125 34.484375 -35.578125 37.203125 -33.921875 C 39.972656 -32.265625 42.265625 -30.769531 44.078125 -29.4375 C 45.890625 -28.101562 47.4375 -26.445312 48.71875 -24.46875 C 50 -22.5 50.640625 -20.238281 50.640625 -17.6875 C 50.640625 -16.03125 50.375 -14.375 49.84375 -12.71875 C 48.5625 -8.445312 46.078125 -5.207031 42.390625 -3 C 38.710938 -0.789062 34.421875 0.3125 29.515625 0.3125 C 25.835938 0.3125 22.742188 -0.109375 20.234375 -0.953125 C 17.734375 -1.804688 15.175781 -3.25 12.5625 -5.28125 L 9.6875 -2.875 C 8.351562 -1.757812 7.257812 -1 6.40625 -0.59375 C 5.550781 -0.195312 4.585938 0 3.515625 0 C 2.296875 0 1.320312 -0.289062 0.59375 -0.875 C -0.125 -1.46875 -0.484375 -2.269531 -0.484375 -3.28125 C -0.484375 -3.8125 -0.375 -4.367188 -0.15625 -4.953125 L 3.765625 -16.875 C 4.191406 -18.257812 4.773438 -19.242188 5.515625 -19.828125 C 6.265625 -20.421875 7.226562 -20.71875 8.40625 -20.71875 C 9.625 -20.71875 10.726562 -20.289062 11.71875 -19.4375 C 12.707031 -18.582031 14 -17.035156 15.59375 -14.796875 C 17.300781 -12.347656 18.890625 -10.640625 20.359375 -9.671875 C 21.828125 -8.710938 23.570312 -8.234375 25.59375 -8.234375 C 27.039062 -8.234375 28.148438 -8.457031 28.921875 -8.90625 C 29.691406 -9.363281 30.238281 -10.101562 30.5625 -11.125 C 30.664062 -11.382812 30.71875 -11.78125 30.71875 -12.3125 C 30.71875 -13.59375 30.101562 -14.765625 28.875 -15.828125 C 27.65625 -16.898438 25.765625 -18.1875 23.203125 -19.6875 C 20.484375 -21.332031 18.269531 -22.804688 16.5625 -24.109375 C 14.851562 -25.421875 13.367188 -27.0625 12.109375 -29.03125 C 10.859375 -31.007812 10.234375 -33.332031 10.234375 -36 C 10.234375 -37.863281 10.53125 -39.703125 11.125 -41.515625 C 12.238281 -45.203125 14.53125 -48.164062 18 -50.40625 C 21.46875 -52.644531 25.441406 -53.765625 29.921875 -53.765625 Z M 29.921875 -53.765625 "/></g></g></g></svg>